{
.appVersion = "1075";
DisplayStrings = (
"/__tail-cy"
);
classes = (
{
automatic = 1;

glyphs = (
{
glyphname = A;
lastChange = "2017-11-16 15:27:43 +0000";
layers = (
{
anchors = (
{
name = bottom;
position = "{340, 0}";
},
{
name = ogonek;
position = "{664, 10}";
},
{
name = top;
position = "{395, 705}";
}
);
background = {
anchors = (
{
name = bottom;
position = "{359, 0}";
},
{
name = ogonek;
position = "{683, 10}";
},
{
name = top;
position = "{414, 705}";
}
);
paths = (
{
closed = 1;
nodes = (
"425 669 LINE",
"399 669 LINE",
"633 0 LINE",
"689 0 LINE",
"439 705 LINE",
"389 705 LINE",
"29 0 LINE",
"85 0 LINE"
);
},
{
closed = 1;
nodes = (
"581 191 LINE",
"568 239 LINE",
"190 239 LINE",
"170 191 LINE"
);
}
);
};
layerId = "9E718F8A-2CEA-4931-B05D-987794BD97DA";
paths = (
{
closed = 1;
nodes = (
"406 669 LINE",
"379 669 LINE",
"614 0 LINE",
"670 0 LINE",
"420 705 LINE",
"370 705 LINE",
"10 0 LINE",
"68 0 LINE"
);
},
{
closed = 1;
nodes = (
"562 191 LINE",
"549 239 LINE",
"171 239 LINE",
"151 191 LINE"
);
}
);
width = 718;
}
);
leftKerningGroup = A;
rightKerningGroup = A;
unicode = 0041;
userData = {
anchors = (
);
b = {
};
com.typemytype.robofont.layerData = {
b = {
anchors = (
);
components = (
);
contours = (
{
points = (
{
segmentType = line;
smooth = 0;
x = 403;
y = 502;
},
{
segmentType = line;
smooth = 0;
x = 703;
y = 1275;
},
{
segmentType = line;
smooth = 0;
x = 705;
y = 1275;
},
{
segmentType = line;
smooth = 0;
x = 1004;
y = 502;
}
);
},
{
points = (
{
segmentType = curve;
smooth = 1;
x = 150;
y = 0;
},
{
smooth = 0;
x = 181;
y = 0;
},
{
smooth = 0;
x = 214;
y = 15;
},
{
segmentType = curve;
smooth = 1;
x = 229;
y = 53;
},
{
segmentType = line;
smooth = 0;
x = 356;
y = 373;
},
{
segmentType = line;
smooth = 0;
x = 1051;
y = 373;
},
{
segmentType = line;
smooth = 1;
x = 1179;
y = 53;
},
{
smooth = 0;
x = 1193;
y = 17;
},
{
smooth = 0;
x = 1228;
y = 0;
},
{
segmentType = curve;
smooth = 1;
x = 1260;
y = 0;
},
{
smooth = 0;
x = 1306;
y = 0;
},
{
smooth = 0;
x = 1354;
y = 31;
},
{
segmentType = curve;
smooth = 1;
x = 1354;
y = 80;
},
{
smooth = 0;
x = 1354;
y = 87;
},
{
smooth = 0;
x = 1352;
y = 97;
},
{
segmentType = curve;
smooth = 0;
x = 1349;
y = 108;
},
{
segmentType = line;
smooth = 1;
x = 871;
y = 1288;
},
{
smooth = 0;
x = 817;
y = 1420;
},
{
smooth = 0;
x = 777;
y = 1430;
},
{
segmentType = curve;
smooth = 1;
x = 710;
y = 1430;
},
{
smooth = 0;
x = 644;
y = 1430;
},
{
smooth = 0;
x = 596;
y = 1413;
},
{
segmentType = curve;
smooth = 1;
x = 542;
y = 1280;
},
{
segmentType = line;
smooth = 1;
x = 66;
y = 108;
},
{
smooth = 0;
x = 62;
y = 97;
},
{
smooth = 0;
x = 60;
y = 87;
},
{
segmentType = curve;
smooth = 1;
x = 60;
y = 78;
},
{
smooth = 0;
x = 60;
y = 32;
},
{
smooth = 0;
x = 106;
y = 0;
}
);
}
);
lib = {
};
name = A;
unicodes = (
);
width = 1414;
};
};
components = (
);
contours = {
};
lib = {
};
name = A;
points = {
};
segmentType = line;
unicodes = (
);
width = 1445;
x = 718;
y = 1232;
};
},
{
glyphname = Aogonek;
lastChange = "2017-11-16 15:27:43 +0000";
layers = (
{
background = {
paths = (
{
closed = 1;
nodes = (
"652 -191 OFFCURVE",
"683 -180 OFFCURVE",
"701 -168 CURVE",
"688 -129 LINE",
"666 -142 OFFCURVE",
"643 -148 OFFCURVE",
"627 -148 CURVE SMOOTH",
"588 -148 OFFCURVE",
"565 -127 OFFCURVE",
"565 -86 CURVE SMOOTH",
"565 -41 OFFCURVE",
"594 -5 OFFCURVE",
"664 10 CURVE",
"654 41 LINE",
"565 26 OFFCURVE",
"514 -26 OFFCURVE",
"514 -95 CURVE SMOOTH",
"514 -152 OFFCURVE",
"555 -191 OFFCURVE",
"621 -191 CURVE SMOOTH"
);
},
{
closed = 1;
nodes = (
"406 669 LINE",
"379 669 LINE",
"614 0 LINE",
"670 0 LINE",
"420 705 LINE",
"370 705 LINE",
"10 0 LINE",
"68 0 LINE"
);
},
{
closed = 1;
nodes = (
"562 191 LINE",
"549 239 LINE",
"171 239 LINE",
"151 191 LINE"
);
}
);
};
layerId = "9E718F8A-2CEA-4931-B05D-987794BD97DA";
paths = (
{
closed = 1;
nodes = (
"562 191 LINE",
"549 239 LINE",
"171 239 LINE",
"151 191 LINE"
);
},
{
closed = 1;
nodes = (
"666 -142 OFFCURVE",
"643 -148 OFFCURVE",
"626 -148 CURVE SMOOTH",
"588 -148 OFFCURVE",
"565 -127 OFFCURVE",
"565 -86 CURVE SMOOTH",
"565 -46 OFFCURVE",
"590 0 OFFCURVE",
"663 0 CURVE SMOOTH",
"670 0 LINE",
"420 705 LINE",
"370 705 LINE",
"10 0 LINE",
"68 0 LINE",
"406 669 LINE",
"379 669 LINE",
"614 0 LINE",
"641 38 LINE",
"553 23 OFFCURVE",
"514 -30 OFFCURVE",
"514 -92 CURVE SMOOTH",
"514 -152 OFFCURVE",
"555 -191 OFFCURVE",
"621 -191 CURVE SMOOTH",
"652 -191 OFFCURVE",
"683 -180 OFFCURVE",
"701 -168 CURVE",
"688 -129 LINE"
);
}
);
width = 718;
}
);
leftKerningGroup = A;
rightKerningGroup = A;
unicode = 0104;
},
{
glyphname = Aring;
lastChange = "2017-11-16 15:27:43 +0000";
layers = (
{
background = {
paths = (
{
closed = 1;
nodes = (
"466 675 OFFCURVE",
"513 717 OFFCURVE",
"518 771 CURVE SMOOTH",
"522 825 OFFCURVE",
"481 867 OFFCURVE",
"427 867 CURVE SMOOTH",
"373 867 OFFCURVE",
"326 825 OFFCURVE",
"322 771 CURVE SMOOTH",
"317 717 OFFCURVE",
"358 675 OFFCURVE",
"412 675 CURVE SMOOTH"
);
},
{
closed = 1;
nodes = (
"387 719 OFFCURVE",
"367 742 OFFCURVE",
"370 771 CURVE SMOOTH",
"372 800 OFFCURVE",
"395 823 OFFCURVE",
"424 823 CURVE SMOOTH",
"453 823 OFFCURVE",
"472 800 OFFCURVE",
"470 771 CURVE SMOOTH",
"467 742 OFFCURVE",
"445 719 OFFCURVE",
"416 719 CURVE SMOOTH"
);
},
{
closed = 1;
nodes = (
"425 669 LINE",
"399 669 LINE",
"633 0 LINE",
"689 0 LINE",
"439 705 LINE",
"389 705 LINE",
"29 0 LINE",
"85 0 LINE"
);
},
{
closed = 1;
nodes = (
"581 191 LINE",
"568 239 LINE",
"190 239 LINE",
"170 191 LINE"
);
}
);
};
layerId = "9E718F8A-2CEA-4931-B05D-987794BD97DA";
paths = (
{
closed = 1;
nodes = (
"68 0 LINE",
"406 669 LINE",
"379 669 LINE",
"614 0 LINE",
"670 0 LINE",
"420 705 LINE",
"370 705 LINE",
"10 0 LINE"
);
},
{
closed = 1;
nodes = (
"562 191 LINE",
"549 239 LINE",
"171 239 LINE",
"151 191 LINE"
);
},
{
closed = 1;
nodes = (
"452 675 OFFCURVE",
"496 717 OFFCURVE",
"496 771 CURVE SMOOTH",
"496 825 OFFCURVE",
"452 867 OFFCURVE",
"398 867 CURVE SMOOTH",
"344 867 OFFCURVE",
"300 825 OFFCURVE",
"300 771 CURVE SMOOTH",
"300 717 OFFCURVE",
"344 675 OFFCURVE",
"398 675 CURVE SMOOTH"
);
},
{
closed = 1;
nodes = (
"369 719 OFFCURVE",
"348 742 OFFCURVE",
"348 771 CURVE SMOOTH",
"348 800 OFFCURVE",
"369 823 OFFCURVE",
"398 823 CURVE SMOOTH",
"427 823 OFFCURVE",
"448 800 OFFCURVE",
"448 771 CURVE SMOOTH",
"448 742 OFFCURVE",
"427 719 OFFCURVE",
"398 719 CURVE SMOOTH"
);
}
);
width = 718;
}
);
leftKerningGroup = A;
rightKerningGroup = A;
unicode = 00C5;
},
{
glyphname = Aringacute;
lastChange = "2017-11-16 15:27:43 +0000";
layers = (
{
background = {
paths = (
{
closed = 1;
nodes = (
"85 0 LINE",
"425 669 LINE",
"399 669 LINE",
"633 0 LINE",
"689 0 LINE",
"439 705 LINE",
"389 705 LINE",
"29 0 LINE"
);
},
{
closed = 1;
nodes = (
"581 191 LINE",
"568 239 LINE",
"190 239 LINE",
"170 191 LINE"
);
},
{
closed = 1;
nodes = (
"466 675 OFFCURVE",
"513 717 OFFCURVE",
"518 771 CURVE SMOOTH",
"522 825 OFFCURVE",
"481 867 OFFCURVE",
"427 867 CURVE SMOOTH",
"373 867 OFFCURVE",
"326 825 OFFCURVE",
"322 771 CURVE SMOOTH",
"317 717 OFFCURVE",
"358 675 OFFCURVE",
"412 675 CURVE SMOOTH"
);
},
{
closed = 1;
nodes = (
"387 719 OFFCURVE",
"367 742 OFFCURVE",
"370 771 CURVE SMOOTH",
"372 800 OFFCURVE",
"395 823 OFFCURVE",
"424 823 CURVE SMOOTH",
"453 823 OFFCURVE",
"472 800 OFFCURVE",
"470 771 CURVE SMOOTH",
"467 742 OFFCURVE",
"445 719 OFFCURVE",
"416 719 CURVE SMOOTH"
);
},
{
closed = 1;
nodes = (
"646 939 LINE",
"573 939 LINE",
"464 835 LINE",
"495 818 LINE"
);
}
);
};
layerId = "9E718F8A-2CEA-4931-B05D-987794BD97DA";
paths = (
{
closed = 1;
nodes = (
"68 0 LINE",
"406 669 LINE",
"379 669 LINE",
"614 0 LINE",
"670 0 LINE",
"420 705 LINE",
"370 705 LINE",
"10 0 LINE"
);
},
{
closed = 1;
nodes = (
"562 191 LINE",
"549 239 LINE",
"171 239 LINE",
"151 191 LINE"
);
},
{
closed = 1;
nodes = (
"452 675 OFFCURVE",
"496 717 OFFCURVE",
"496 771 CURVE SMOOTH",
"496 825 OFFCURVE",
"452 867 OFFCURVE",
"398 867 CURVE SMOOTH",
"344 867 OFFCURVE",
"300 825 OFFCURVE",
"300 771 CURVE SMOOTH",
"300 717 OFFCURVE",
"344 675 OFFCURVE",
"398 675 CURVE SMOOTH"
);
},
{
closed = 1;
nodes = (
"369 719 OFFCURVE",
"348 742 OFFCURVE",
"348 771 CURVE SMOOTH",
"348 800 OFFCURVE",
"369 823 OFFCURVE",
"398 823 CURVE SMOOTH",
"427 823 OFFCURVE",
"448 800 OFFCURVE",
"448 771 CURVE SMOOTH",
"448 742 OFFCURVE",
"427 719 OFFCURVE",
"398 719 CURVE SMOOTH"
);
},
{
closed = 1;
nodes = (
"629 939 LINE",
"552 939 LINE",
"445 835 LINE",
"476 818 LINE"
);
}
);
width = 718;
}
);
leftKerningGroup = A;
rightKerningGroup = A;
unicode = 01FA;
},
{
glyphname = AE;
lastChange = "2017-11-16 15:27:43 +0000";
layers = (
{
anchors = (
{
name = bottom;
position = "{478, 0}";
},
{
name = top;
position = "{532, 705}";
}
);
background = {
anchors = (
{
name = bottom;
position = "{497, 0}";
},
{
name = top;
position = "{551, 705}";
}
);
paths = (
{
closed = 1;
nodes = (
"934 0 LINE",
"938 49 LINE",
"622 49 LINE",
"537 682 LINE",
"527 656 LINE",
"986 656 LINE",
"989 705 LINE",
"487 705 LINE",
"9 0 LINE",
"67 0 LINE",
"513 665 LINE",
"489 665 LINE",
"577 0 LINE"
);
},
{
closed = 1;
nodes = (
"574 191 LINE",
"559 239 LINE",
"181 239 LINE",
"161 191 LINE"
);
},
{
closed = 1;
nodes = (
"940 334 LINE",
"944 382 LINE",
"568 382 LINE",
"564 334 LINE"
);
}
);
};
layerId = "9E718F8A-2CEA-4931-B05D-987794BD97DA";
paths = (
{
closed = 1;
nodes = (
"915 0 LINE",
"919 49 LINE",
"602 49 LINE",
"517 682 LINE",
"508 656 LINE",
"967 656 LINE",
"970 705 LINE",
"468 705 LINE",
"-10 0 LINE",
"52 0 LINE",
"498 665 LINE",
"470 665 LINE",
"558 0 LINE"
);
},
{
closed = 1;
nodes = (
"555 191 LINE",
"540 239 LINE",
"172 239 LINE",
"152 191 LINE"
);
},
{
closed = 1;
nodes = (
"921 334 LINE",
"925 382 LINE",
"549 382 LINE",
"545 334 LINE"
);
}
);
width = 988;
}
);
leftKerningGroup = A;
rightKerningGroup = E;
unicode = 00C6;
userData = {
com.typemytype.robofont.layerData = {
b = {
anchors = (
);
components = (
);
contours = (
);
lib = {
};
name = AE;
unicodes = (
);
width = 1976;
};
};
};
},
{
glyphname = B;
lastChange = "2017-11-16 15:27:43 +0000";
layers = (
{
anchors = (
{
name = bottom;
position = "{319, 0}";
},
{
name = top;
position = "{373, 705}";
}
);
background = {
anchors = (
{
name = bottom;
position = "{338, 0}";
},
{
name = top;
position = "{392, 705}";
}
);
paths = (
{
closed = 1;
nodes = (
"371 0 LINE SMOOTH",
"518 0 OFFCURVE",
"606 66 OFFCURVE",
"616 191 CURVE SMOOTH",
"623 285 OFFCURVE",
"575 348 OFFCURVE",
"488 364 CURVE",
"487 356 LINE",
"567 380 OFFCURVE",
"619 438 OFFCURVE",
"626 520 CURVE SMOOTH",
"635 640 OFFCURVE",
"558 705 OFFCURVE",
"415 705 CURVE SMOOTH",
"148 705 LINE",
"93 0 LINE"
);
},
{
closed = 1;
nodes = (
"173 334 LINE",
"394 334 LINE SMOOTH",
"513 334 OFFCURVE",
"568 284 OFFCURVE",
"561 188 CURVE SMOOTH",
"553 93 OFFCURVE",
"493 48 OFFCURVE",
"372 48 CURVE SMOOTH",
"151 48 LINE"
);
},
{
closed = 1;
nodes = (
"199 657 LINE",
"405 657 LINE SMOOTH",
"524 657 OFFCURVE",
"578 612 OFFCURVE",
"571 523 CURVE SMOOTH",
"564 432 OFFCURVE",
"499 382 OFFCURVE",
"383 382 CURVE SMOOTH",
"177 382 LINE"
);
}
);
};
layerId = "9E718F8A-2CEA-4931-B05D-987794BD97DA";
paths = (
{
closed = 1;
nodes = (
"362 0 LINE SMOOTH",
"512 0 OFFCURVE",
"598 75 OFFCURVE",
"598 204 CURVE SMOOTH",
"598 290 OFFCURVE",
"551 348 OFFCURVE",
"459 363 CURVE",
"470 356 LINE",
"562 383 OFFCURVE",
"608 448 OFFCURVE",
"608 533 CURVE SMOOTH",
"608 644 OFFCURVE",
"533 705 OFFCURVE",
"386 705 CURVE SMOOTH",
"129 705 LINE",
"74 0 LINE"
);
},
{
closed = 1;
nodes = (
"180 657 LINE",
"386 657 LINE SMOOTH",
"497 657 OFFCURVE",
"553 615 OFFCURVE",
"553 533 CURVE SMOOTH",
"553 435 OFFCURVE",
"486 382 OFFCURVE",
"374 382 CURVE SMOOTH",
"146 382 LINE",
"142 334 LINE",
"375 334 LINE SMOOTH",
"489 334 OFFCURVE",
"543 287 OFFCURVE",
"543 198 CURVE SMOOTH",
"543 98 OFFCURVE",
"479 48 OFFCURVE",
"363 48 CURVE SMOOTH",
"132 48 LINE"
);
}
);
width = 668;
}
);
leftKerningGroup = H;
rightKerningGroup = B;
unicode = 0042;
userData = {
anchors = (
);
b = {
};
com.typemytype.robofont.layerData = {
b = {
anchors = (
);
components = (
);
contours = (
{
points = (
{
segmentType = curve;
smooth = 1;
x = 266;
y = 0;
},
{
segmentType = line;
smooth = 1;
x = 1035;
y = 0;
},
{
smooth = 0;
x = 1084;
y = 0;
},
{
smooth = 0;
x = 1108;
y = 36;
},
{
segmentType = curve;
smooth = 1;
x = 1108;
y = 73;
},
{
smooth = 0;
x = 1108;
y = 109;
},
{
smooth = 0;
x = 1084;
y = 145;
},
{
segmentType = curve;
smooth = 1;
x = 1035;
y = 145;
},
{
segmentType = line;
smooth = 0;
x = 353;
y = 145;
},
{
segmentType = line;
smooth = 0;
x = 353;
y = 662;
},
{
segmentType = line;
smooth = 1;
x = 975;
y = 662;
},
{
smooth = 0;
x = 1024;
y = 662;
},
{
smooth = 0;
x = 1049;
y = 698;
},
{
segmentType = curve;
smooth = 1;
x = 1049;
y = 734;
},
{
smooth = 0;
x = 1049;
y = 770;
},
{
smooth = 0;
x = 1026;
y = 806;
},
{
segmentType = curve;
smooth = 1;
x = 975;
y = 806;
},
{
segmentType = line;
smooth = 0;
x = 353;
y = 806;
},
{
segmentType = line;
smooth = 0;
x = 353;
y = 1281;
},
{
segmentType = line;
smooth = 1;
x = 1007;
y = 1281;
},
{
smooth = 0;
x = 1056;
y = 1281;
},
{
smooth = 0;
x = 1080;
y = 1317;
},
{
segmentType = curve;
smooth = 1;
x = 1080;
y = 1354;
},
{
smooth = 0;
x = 1080;
y = 1390;
},
{
smooth = 0;
x = 1056;
y = 1426;
},
{
segmentType = curve;
smooth = 1;
x = 1007;
y = 1426;
},
{
segmentType = line;
smooth = 1;
x = 261;
y = 1426;
},
{
smooth = 0;
x = 213;
y = 1426;
},
{
smooth = 0;
x = 178;
y = 1383;
},
{
segmentType = curve;
smooth = 1;
x = 178;
y = 1340;
},
{
segmentType = line;
smooth = 1;
x = 178;
y = 86;
},
{
smooth = 0;
x = 178;
y = 41;
},
{
smooth = 0;
x = 222;
y = 0;
}
);
}
);
lib = {
};
name = B;
unicodes = (
);
width = 1292;
};
};
components = (
);
contours = {
};
lib = {
};
name = B;
points = {
};
segmentType = curve;
unicodes = (
);
width = 1395;
x = 676;
y = 1260;
};
},
{
glyphname = C;
lastChange = "2017-11-16 15:27:43 +0000";
layers = (
{
anchors = (
{
name = bottom;
position = "{363, 0}";
},
{
name = top;
position = "{419, 705}";
}
);
background = {
anchors = (
{
name = bottom;
position = "{982, 0}";
},
{
name = top;
position = "{1038, 705}";
}
);
paths = (
{
closed = 1;
nodes = (
"573 -9 OFFCURVE",
"699 145 OFFCURVE",
"699 383 CURVE SMOOTH",
"699 589 OFFCURVE",
"584 714 OFFCURVE",
"394 714 CURVE SMOOTH",
"199 714 OFFCURVE",
"73 560 OFFCURVE",
"73 321 CURVE SMOOTH",
"73 116 OFFCURVE",
"188 -9 OFFCURVE",
"377 -9 CURVE SMOOTH"
);
},
{
closed = 1;
nodes = (
"219 42 OFFCURVE",
"130 142 OFFCURVE",
"130 320 CURVE SMOOTH",
"130 534 OFFCURVE",
"230 663 OFFCURVE",
"394 663 CURVE SMOOTH",
"553 663 OFFCURVE",
"642 563 OFFCURVE",
"642 384 CURVE SMOOTH",
"642 171 OFFCURVE",
"542 42 OFFCURVE",
"378 42 CURVE SMOOTH"
);
}
);
};
layerId = "9E718F8A-2CEA-4931-B05D-987794BD97DA";
paths = (
{
closed = 1;
nodes = (
"464 -8 OFFCURVE",
"546 24 OFFCURVE",
"611 85 CURVE",
"590 129 LINE",
"523 66 OFFCURVE",
"449 42 OFFCURVE",
"376 42 CURVE SMOOTH",
"219 42 OFFCURVE",
"130 142 OFFCURVE",
"130 320 CURVE SMOOTH",
"130 534 OFFCURVE",
"230 663 OFFCURVE",
"401 663 CURVE SMOOTH",
"498 663 OFFCURVE",
"561 638 OFFCURVE",
"625 577 CURVE",
"653 620 LINE",
"594 682 OFFCURVE",
"507 713 OFFCURVE",
"403 713 CURVE SMOOTH",
"199 713 OFFCURVE",
"73 560 OFFCURVE",
"73 321 CURVE SMOOTH",
"73 116 OFFCURVE",
"188 -8 OFFCURVE",
"363 -8 CURVE SMOOTH"
);
}
);
width = 677;
}
);
leftKerningGroup = O;
rightKerningGroup = C;
unicode = 0043;
userData = {
anchors = (
);
b = {
};
com.typemytype.robofont.layerData = {
b = {
anchors = (
);
components = (
);
contours = (
);
lib = {
};
name = C;
unicodes = (
);
width = 1353.89001;
};
};
components = (
);
contours = (
);
lib = {
};
name = C;
unicodes = (
);
width = 1354;
};
},
{
glyphname = D;
lastChange = "2017-11-16 15:27:43 +0000";
layers = (
{
anchors = (
{
name = bottom;
position = "{346, 0}";
},
{
name = center;
position = "{374, 353}";
},
{
name = top;
position = "{400, 705}";
}
);
background = {
paths = (
{
closed = 1;
nodes = (
"301 0 LINE SMOOTH",
"544 0 OFFCURVE",
"675 151 OFFCURVE",
"675 392 CURVE SMOOTH",
"675 592 OFFCURVE",
"558 705 OFFCURVE",
"348 705 CURVE SMOOTH",
"129 705 LINE",
"74 0 LINE"
);
},
{
closed = 1;
nodes = (
"180 657 LINE",
"347 657 LINE SMOOTH",
"526 657 OFFCURVE",
"618 566 OFFCURVE",
"618 392 CURVE SMOOTH",
"618 176 OFFCURVE",
"518 48 OFFCURVE",
"299 48 CURVE SMOOTH",
"132 48 LINE"
);
}
);
};
guideLines = (
{
angle = 88.6493;
position = "{361, 353}";
}
);
layerId = "9E718F8A-2CEA-4931-B05D-987794BD97DA";
paths = (
{
closed = 1;
nodes = (
"323 0 LINE SMOOTH",
"548 0 OFFCURVE",
"673 145 OFFCURVE",
"673 383 CURVE SMOOTH",
"673 589 OFFCURVE",
"559 705 OFFCURVE",
"347 705 CURVE SMOOTH",
"129 705 LINE",
"74 0 LINE"
);
},
{
closed = 1;
nodes = (
"180 657 LINE",
"346 657 LINE SMOOTH",
"528 657 OFFCURVE",
"616 563 OFFCURVE",
"616 384 CURVE SMOOTH",
"616 171 OFFCURVE",
"517 48 OFFCURVE",
"322 48 CURVE SMOOTH",
"132 48 LINE"
);
}
);
width = 729;
}
);
leftKerningGroup = H;
rightKerningGroup = O;
unicode = 0044;
userData = {
anchors = (
);
b = {
};
com.typemytype.robofont.layerData = {
b = {
anchors = (
);
components = (
);
contours = (
{
points = (
{
segmentType = curve;
smooth = 1;
x = 266;
y = 0;
},
{
segmentType = line;
smooth = 1;
x = 1035;
y = 0;
},
{
smooth = 0;
x = 1084;
y = 0;
},
{
smooth = 0;
x = 1108;
y = 34;
},
{
segmentType = curve;
smooth = 1;
x = 1108;
y = 71;
},
{
smooth = 0;
x = 1108;
y = 107;
},
{
smooth = 0;
x = 1084;
y = 141;
},
{
segmentType = curve;
smooth = 1;
x = 1035;
y = 141;
},
{
segmentType = line;
smooth = 0;
x = 356;
y = 141;
},
{
segmentType = line;
smooth = 0;
x = 356;
y = 665;
},
{
segmentType = line;
smooth = 1;
x = 975;
y = 665;
},
{
smooth = 0;
x = 1024;
y = 665;
},
{
smooth = 0;
x = 1049;
y = 698;
},
{
segmentType = curve;
smooth = 1;
x = 1049;
y = 734;
},
{
smooth = 0;
x = 1049;
y = 770;
},
{
smooth = 0;
x = 1026;
y = 803;
},
{
segmentType = curve;
smooth = 1;
x = 975;
y = 803;
},
{
segmentType = line;
smooth = 0;
x = 356;
y = 803;
},
{
segmentType = line;
smooth = 0;
x = 356;
y = 1285;
},
{
segmentType = line;
smooth = 1;
x = 1007;
y = 1285;
},
{
smooth = 0;
x = 1056;
y = 1285;
},
{
smooth = 0;
x = 1080;
y = 1319;
},
{
segmentType = curve;
smooth = 1;
x = 1080;
y = 1356;
},
{
smooth = 0;
x = 1080;
y = 1392;
},
{
smooth = 0;
x = 1056;
y = 1426;
},
{
segmentType = curve;
smooth = 1;
x = 1007;
y = 1426;
},
{
segmentType = line;
smooth = 1;
x = 261;
y = 1426;
},
{
smooth = 0;
x = 213;
y = 1426;
},
{
smooth = 0;
x = 178;
y = 1383;
},
{
segmentType = curve;
smooth = 1;
x = 178;
y = 1340;
},
{
segmentType = line;
smooth = 1;
x = 178;
y = 86;
},
{
smooth = 0;
x = 178;
y = 41;
},
{
smooth = 0;
x = 222;
y = 0;
}
);
}
);
lib = {
};
name = D;
unicodes = (
);
width = 1499;
};
};
components = (
);
contours = (
);
lib = {
};
name = D;
unicodes = (
);
width = 1535;
};
},
{
glyphname = Eth;
lastChange = "2017-11-16 15:27:43 +0000";
layers = (
{
background = {
paths = (
{
closed = 1;
nodes = (
"356 335 LINE",
"360 381 LINE",
"16 381 LINE",
"12 335 LINE"
);
},
{
closed = 1;
nodes = (
"308 0 LINE SMOOTH",
"551 0 OFFCURVE",
"682 151 OFFCURVE",
"682 392 CURVE SMOOTH",
"682 592 OFFCURVE",
"565 705 OFFCURVE",
"355 705 CURVE SMOOTH",
"136 705 LINE",
"81 0 LINE"
);
},
{
closed = 1;
nodes = (
"187 657 LINE",
"354 657 LINE SMOOTH",
"533 657 OFFCURVE",
"625 566 OFFCURVE",
"625 392 CURVE SMOOTH",
"625 176 OFFCURVE",
"525 48 OFFCURVE",
"306 48 CURVE SMOOTH",
"139 48 LINE"
);
}
);
};
layerId = "9E718F8A-2CEA-4931-B05D-987794BD97DA";
paths = (
{
closed = 1;
nodes = (
"356 335 LINE",
"360 381 LINE",
"16 381 LINE",
"12 335 LINE"
);
},
{
closed = 1;
nodes = (
"330 0 LINE SMOOTH",
"555 0 OFFCURVE",
"680 145 OFFCURVE",
"680 383 CURVE SMOOTH",
"680 589 OFFCURVE",
"566 705 OFFCURVE",
"354 705 CURVE SMOOTH",
"136 705 LINE",
"81 0 LINE"
);
},
{
closed = 1;
nodes = (
"187 657 LINE",
"353 657 LINE SMOOTH",
"535 657 OFFCURVE",
"623 563 OFFCURVE",
"623 384 CURVE SMOOTH",
"623 171 OFFCURVE",
"524 48 OFFCURVE",
"329 48 CURVE SMOOTH",
"139 48 LINE"
);
}
);
width = 736;
}
);
leftKerningGroup = H;
rightKerningGroup = O;
unicode = 00D0;
},
{
glyphname = E;
lastChange = "2017-11-16 15:27:43 +0000";
layers = (
{
anchors = (
{
name = bottom;
position = "{302, 0}";
},
{
name = ogonek;
position = "{487, 10}";
},
{
name = top;
position = "{357, 705}";
},
{
name = topleft;
position = "{62, 705}";
}
);
background = {
anchors = (
{
name = bottom;
position = "{321, 0}";
},
{
name = ogonek;
position = "{506, 10}";
},
{
name = top;
position = "{376, 705}";
},
{
name = topleft;
position = "{81, 705}";
}
);
paths = (
{
closed = 1;
nodes = (
"524 0 LINE",
"528 48 LINE",
"151 48 LINE",
"173 334 LINE",
"530 334 LINE",
"534 382 LINE",
"177 382 LINE",
"199 657 LINE",
"576 657 LINE",
"579 705 LINE",
"148 705 LINE",
"93 0 LINE"
);
}
);
};
guideLines = (
{
angle = 90;
position = "{473, 247}";
}
);
layerId = "9E718F8A-2CEA-4931-B05D-987794BD97DA";
paths = (
{
closed = 1;
nodes = (
"505 0 LINE",
"509 48 LINE",
"132 48 LINE",
"180 657 LINE",
"557 657 LINE",
"560 705 LINE",
"129 705 LINE",
"74 0 LINE"
);
},
{
closed = 1;
nodes = (
"511 334 LINE",
"515 382 LINE",
"146 382 LINE",
"142 334 LINE"
);
}
);
width = 578;
}
);
leftKerningGroup = H;
rightKerningGroup = E;
unicode = 0045;
userData = {
anchors = (
);
b = {
};
com.typemytype.robofont.layerData = {
b = {
anchors = (
);
components = (
);
contours = (
);
lib = {
};
name = E;
unicodes = (
);
width = 1234;
};
};
components = (
);
contours = (
);
lib = {
};
name = E;
unicodes = (
);
width = 1258;
};
},
{
glyphname = Eogonek;
lastChange = "2017-11-16 15:27:43 +0000";
layers = (
{
anchors = (
{
name = top;
position = "{357, 705}";
}
);
background = {
anchors = (
{
name = top;
position = "{376, 705}";
}
);
paths = (
{
closed = 1;
nodes = (
"475 -191 OFFCURVE",
"506 -180 OFFCURVE",
"524 -168 CURVE",
"511 -129 LINE",
"489 -142 OFFCURVE",
"466 -148 OFFCURVE",
"450 -148 CURVE SMOOTH",
"411 -148 OFFCURVE",
"388 -127 OFFCURVE",
"388 -86 CURVE SMOOTH",
"388 -41 OFFCURVE",
"417 -5 OFFCURVE",
"487 10 CURVE",
"477 41 LINE",
"388 26 OFFCURVE",
"337 -26 OFFCURVE",
"337 -95 CURVE SMOOTH",
"337 -152 OFFCURVE",
"378 -191 OFFCURVE",
"444 -191 CURVE SMOOTH"
);
}
);
};
layerId = "9E718F8A-2CEA-4931-B05D-987794BD97DA";
paths = (
{
closed = 1;
nodes = (
"142 334 LINE",
"511 334 LINE",
"515 382 LINE",
"146 382 LINE"
);
},
{
closed = 1;
nodes = (
"180 657 LINE",
"557 657 LINE",
"560 705 LINE",
"129 705 LINE",
"74 0 LINE",
"429 0 LINE",
"410 19 LINE",
"364 -5 OFFCURVE",
"337 -44 OFFCURVE",
"337 -95 CURVE SMOOTH",
"337 -152 OFFCURVE",
"378 -191 OFFCURVE",
"444 -191 CURVE SMOOTH",
"475 -191 OFFCURVE",
"506 -180 OFFCURVE",
"524 -168 CURVE",
"511 -129 LINE",
"489 -142 OFFCURVE",
"466 -148 OFFCURVE",
"450 -148 CURVE SMOOTH",
"411 -148 OFFCURVE",
"388 -127 OFFCURVE",
"388 -85 CURVE SMOOTH",
"388 -40 OFFCURVE",
"417 0 OFFCURVE",
"492 0 CURVE SMOOTH",
"505 0 LINE",
"509 48 LINE",
"132 48 LINE"
);
}
);
width = 578;
}
);
leftKerningGroup = H;
rightKerningGroup = E;
unicode = 0118;
userData = {
com.typemytype.robofont.layerData = {
b = {
anchors = (
);
components = (
);
contours = (
);
lib = {
};
name = Eogonek;
unicodes = (
);
width = 1234;
};
};
};
},
{
glyphname = F;
lastChange = "2017-11-16 15:27:43 +0000";
layers = (
{
anchors = (
{
name = bottom;
position = "{287, 0}";
},
{
name = top;
position = "{321, 705}";
}
);
background = {
anchors = (
{
name = bottom;
position = "{306, 0}";
},
{
name = top;
position = "{340, 705}";
}
);
paths = (
{
closed = 1;
nodes = (
"147 0 LINE",
"173 334 LINE",
"520 334 LINE",
"524 382 LINE",
"177 382 LINE",
"199 657 LINE",
"566 657 LINE",
"569 705 LINE",
"148 705 LINE",
"93 0 LINE"
);
}
);
};
layerId = "9E718F8A-2CEA-4931-B05D-987794BD97DA";
paths = (
{
closed = 1;
nodes = (
"142 334 LINE",
"501 334 LINE",
"505 382 LINE",
"146 382 LINE"
);
},
{
closed = 1;
nodes = (
"180 657 LINE",
"547 657 LINE",
"550 705 LINE",
"129 705 LINE",
"74 0 LINE",
"128 0 LINE"
);
}
);
width = 551;
}
);
leftKerningGroup = H;
rightKerningGroup = F;
unicode = 0046;
userData = {
anchors = (
);
b = {
};
com.typemytype.robofont.layerData = {
b = {
anchors = (
);
components = (
);
contours = (
{
points = (
{
segmentType = curve;
smooth = 1;
x = 266;
y = 0;
},
{
segmentType = line;
smooth = 1;
x = 1035;
y = 0;
},
{
smooth = 0;
x = 1084;
y = 0;
},
{
smooth = 0;
x = 1108;
y = 34;
},
{
segmentType = curve;
smooth = 1;
x = 1108;
y = 71;
},
{
smooth = 0;
x = 1108;
y = 107;
},
{
smooth = 0;
x = 1084;
y = 141;
},
{
segmentType = curve;
smooth = 1;
x = 1035;
y = 141;
},
{
segmentType = line;
smooth = 0;
x = 353;
y = 141;
},
{
segmentType = line;
smooth = 0;
x = 353;
y = 665;
},
{
segmentType = line;
smooth = 1;
x = 975;
y = 665;
},
{
smooth = 0;
x = 1024;
y = 665;
},
{
smooth = 0;
x = 1049;
y = 698;
},
{
segmentType = curve;
smooth = 1;
x = 1049;
y = 734;
},
{
smooth = 0;
x = 1049;
y = 770;
},
{
smooth = 0;
x = 1026;
y = 803;
},
{
segmentType = curve;
smooth = 1;
x = 975;
y = 803;
},
{
segmentType = line;
smooth = 0;
x = 353;
y = 803;
},
{
segmentType = line;
smooth = 0;
x = 353;
y = 1285;
},
{
segmentType = line;
smooth = 1;
x = 1007;
y = 1285;
},
{
smooth = 0;
x = 1056;
y = 1285;
},
{
smooth = 0;
x = 1080;
y = 1319;
},
{
segmentType = curve;
smooth = 1;
x = 1080;
y = 1356;
},
{
smooth = 0;
x = 1080;
y = 1392;
},
{
smooth = 0;
x = 1056;
y = 1426;
},
{
segmentType = curve;
smooth = 1;
x = 1007;
y = 1426;
},
{
segmentType = line;
smooth = 1;
x = 261;
y = 1426;
},
{
smooth = 0;
x = 213;
y = 1426;
},
{
smooth = 0;
x = 178;
y = 1383;
},
{
segmentType = curve;
smooth = 1;
x = 178;
y = 1340;
},
{
segmentType = line;
smooth = 1;
x = 178;
y = 86;
},
{
smooth = 0;
x = 178;
y = 41;
},
{
smooth = 0;
x = 222;
y = 0;
}
);
}
);
lib = {
};
name = F;
unicodes = (
);
width = 1142;
};
};
components = (
);
contours = (
);
lib = {
};
name = F;
unicodes = (
);
width = 1175;
};
},
{
glyphname = G;
lastChange = "2017-11-16 15:27:43 +0000";
layers = (
{
anchors = (
{
name = bottom;
position = "{374, 0}";
},
{
name = top;
position = "{422, 705}";
}
);
background = {
anchors = (
{
name = bottom;
position = "{393, 0}";
},
{
name = top;
position = "{441, 705}";
}
);
paths = (
{
closed = 1;
nodes = (
"1160 -8 OFFCURVE",
"1260 12 OFFCURVE",
"1313 40 CURVE",
"1338 359 LINE",
"1099 359 LINE",
"1095 311 LINE",
"1284 311 LINE",
"1263 41 LINE",
"1280 80 LINE",
"1225 56 OFFCURVE",
"1149 42 OFFCURVE",
"1073 42 CURVE SMOOTH",
"898 42 OFFCURVE",
"811 151 OFFCURVE",
"827 353 CURVE SMOOTH",
"843 551 OFFCURVE",
"947 664 OFFCURVE",
"1115 664 CURVE SMOOTH",
"1199 664 OFFCURVE",
"1261 639 OFFCURVE",
"1325 576 CURVE",
"1353 620 LINE",
"1297 682 OFFCURVE",
"1217 713 OFFCURVE",
"1121 713 CURVE SMOOTH",
"921 713 OFFCURVE",
"788 580 OFFCURVE",
"770 353 CURVE SMOOTH",
"752 126 OFFCURVE",
"863 -8 OFFCURVE",
"1069 -8 CURVE SMOOTH"
);
},
{
closed = 1;
nodes = (
"464 -8 OFFCURVE",
"546 24 OFFCURVE",
"611 85 CURVE",
"590 129 LINE",
"516 66 OFFCURVE",
"449 40 OFFCURVE",
"363 41 CURVE SMOOTH",
"214 43 OFFCURVE",
"129 142 OFFCURVE",
"129 315 CURVE SMOOTH",
"129 533 OFFCURVE",
"236 664 OFFCURVE",
"416 664 CURVE SMOOTH",
"498 664 OFFCURVE",
"560 638 OFFCURVE",
"625 576 CURVE",
"653 620 LINE",
"594 682 OFFCURVE",
"513 713 OFFCURVE",
"416 713 CURVE SMOOTH",
"205 713 OFFCURVE",
"72 557 OFFCURVE",
"72 311 CURVE SMOOTH",
"72 112 OFFCURVE",
"181 -8 OFFCURVE",
"363 -8 CURVE SMOOTH"
);
}
);
};
layerId = "9E718F8A-2CEA-4931-B05D-987794BD97DA";
paths = (
{
closed = 1;
nodes = (
"464 -8 OFFCURVE",
"560 12 OFFCURVE",
"617 40 CURVE",
"642 359 LINE",
"403 359 LINE",
"399 311 LINE",
"588 311 LINE",
"567 41 LINE",
"584 80 LINE",
"529 56 OFFCURVE",
"453 41 OFFCURVE",
"387 41 CURVE SMOOTH",
"214 41 OFFCURVE",
"129 142 OFFCURVE",
"129 315 CURVE SMOOTH",
"129 533 OFFCURVE",
"236 663 OFFCURVE",
"416 663 CURVE SMOOTH",
"498 663 OFFCURVE",
"560 638 OFFCURVE",
"629 576 CURVE",
"657 620 LINE",
"594 682 OFFCURVE",
"513 712 OFFCURVE",
"416 712 CURVE SMOOTH",
"205 712 OFFCURVE",
"72 557 OFFCURVE",
"72 311 CURVE SMOOTH",
"72 112 OFFCURVE",
"181 -8 OFFCURVE",
"388 -8 CURVE SMOOTH"
);
}
);
width = 718;
}
);
leftKerningGroup = O;
rightKerningGroup = G;
unicode = 0047;
userData = {
anchors = (
);
b = {
};
com.typemytype.robofont.layerData = {
b = {
anchors = (
);
components = (
);
contours = (
{
points = (
{
segmentType = curve;
smooth = 1;
x = 783;
y = "-22";
},
{
smooth = 0;
x = 965;
y = "-22";
},
{
smooth = 0;
x = 1086;
y = 34;
},
{
segmentType = curve;
smooth = 1;
x = 1166;
y = 86;
},
{
smooth = 0;
x = 1270;
y = 154;
},
{
smooth = 0;
x = 1186;
y = 258;
},
{
segmentType = curve;
smooth = 1;
x = 1112;
y = 214;
},
{
smooth = 0;
x = 1024;
y = 162;
},
{
smooth = 0;
x = 939;
y = 120;
},
{
segmentType = curve;
smooth = 1;
x = 806;
y = 120;
},
{
smooth = 0;
x = 446;
y = 120;
},
{
smooth = 0;
x = 316;
y = 406;
},
{
segmentType = curve;
smooth = 1;
x = 316;
y = 706;
},
{
smooth = 0;
x = 316;
y = 1005;
},
{
smooth = 0;
x = 450;
y = 1296;
},
{
segmentType = curve;
smooth = 1;
x = 801;
y = 1296;
},
{
smooth = 0;
x = 980;
y = 1296;
},
{
smooth = 0;
x = 1053;
y = 1246;
},
{
segmentType = curve;
smooth = 1;
x = 1094;
y = 1225;
},
{
smooth = 0;
x = 1174;
y = 1184;
},
{
smooth = 0;
x = 1231;
y = 1300;
},
{
segmentType = curve;
smooth = 1;
x = 1156;
y = 1343;
},
{
smooth = 0;
x = 1106;
y = 1372;
},
{
smooth = 0;
x = 995;
y = 1438;
},
{
segmentType = curve;
smooth = 1;
x = 797;
y = 1438;
},
{
smooth = 0;
x = 359;
y = 1438;
},
{
smooth = 0;
x = 128;
y = 1093;
},
{
segmentType = curve;
smooth = 1;
x = 128;
y = 704;
},
{
smooth = 0;
x = 128;
y = 307;
},
{
smooth = 0;
x = 350;
y = "-22";
}
);
}
);
lib = {
};
name = G;
unicodes = (
);
width = 1448;
};
};
components = (
);
contours = (
);
lib = {
};
name = G;
unicodes = (
);
width = 1538;
};
},
{
glyphname = H;
lastChange = "2017-11-16 15:27:43 +0000";
layers = (
{
anchors = (
{
name = bottom;
position = "{358, 0}";
},
{
name = center;
position = "{386, 358}";
},
{
name = top;
position = "{412, 705}";
},
{
name = topleft;
position = "{62, 705}";
}
);
background = {
anchors = (
{
name = bottom;
position = "{377, 0}";
},
{
name = center;
position = "{405, 358}";
},
{
name = top;
position = "{431, 705}";
},
{
name = topleft;
position = "{81, 705}";
}
);
paths = (
{
closed = 1;
nodes = (
"660 0 LINE",
"715 705 LINE",
"661 705 LINE",
"606 0 LINE"
);
},
{
closed = 1;
nodes = (
"147 0 LINE",
"202 705 LINE",
"148 705 LINE",
"93 0 LINE"
);
},
{
closed = 1;
nodes = (
"641 334 LINE",
"645 382 LINE",
"157 382 LINE",
"153 334 LINE"
);
}
);
};
layerId = "9E718F8A-2CEA-4931-B05D-987794BD97DA";
paths = (
{
closed = 1;
nodes = (
"641 0 LINE",
"696 705 LINE",
"642 705 LINE",
"587 0 LINE"
);
},
{
closed = 1;
nodes = (
"128 0 LINE",
"183 705 LINE",
"129 705 LINE",
"74 0 LINE"
);
},
{
closed = 1;
nodes = (
"642 334 LINE",
"646 382 LINE",
"138 382 LINE",
"134 334 LINE"
);
}
);
width = 753;
}
);
leftKerningGroup = H;
rightKerningGroup = H;
unicode = 0048;
userData = {
anchors = (
);
b = {
};
com.typemytype.robofont.layerData = {
b = {
anchors = (
);
components = (
);
contours = (
);
lib = {
};
name = H;
unicodes = (
);
width = 1464;
};
};
components = (
);
contours = (
);
lib = {
};
name = H;
unicodes = (
);
width = 1524;
};
},
{
glyphname = Hbar;
lastChange = "2017-11-16 15:27:43 +0000";
layers = (
{
background = {
paths = (
{
closed = 1;
nodes = (
"803 525 LINE",
"807 571 LINE",
"50 571 LINE",
"46 525 LINE"
);
},
{
closed = 1;
nodes = (
"667 0 LINE",
"722 705 LINE",
"668 705 LINE",
"613 0 LINE"
);
},
{
closed = 1;
nodes = (
"154 0 LINE",
"209 705 LINE",
"155 705 LINE",
"100 0 LINE"
);
},
{
closed = 1;
nodes = (
"649 334 LINE",
"653 382 LINE",
"165 382 LINE",
"161 334 LINE"
);
}
);
};
layerId = "9E718F8A-2CEA-4931-B05D-987794BD97DA";
paths = (
{
closed = 1;
nodes = (
"784 525 LINE",
"788 571 LINE",
"31 571 LINE",
"27 525 LINE"
);
},
{
closed = 1;
nodes = (
"648 0 LINE",
"703 705 LINE",
"649 705 LINE",
"594 0 LINE"
);
},
{
closed = 1;
nodes = (
"135 0 LINE",
"190 705 LINE",
"136 705 LINE",
"81 0 LINE"
);
},
{
closed = 1;
nodes = (
"630 334 LINE",
"634 382 LINE",
"146 382 LINE",
"142 334 LINE"
);
}
);
width = 767;
}
);
leftKerningGroup = H;
rightKerningGroup = H;
unicode = 0126;
userData = {
com.typemytype.robofont.layerData = {
b = {
anchors = (
);
components = (
);
contours = (
);
lib = {
};
name = Hbar;
unicodes = (
);
width = 1464;
};
};
};
},
{
glyphname = I;
lastChange = "2017-11-16 15:27:43 +0000";
layers = (
{
anchors = (
{
name = bottom;
position = "{101, 0}";
},
{
name = ogonek;
position = "{126, 10}";
},
{
name = top;
position = "{156, 705}";
},
{
name = topleft;
position = "{62, 705}";
}
);
background = {
anchors = (
{
name = bottom;
position = "{120, 0}";
},
{
name = ogonek;
position = "{145, 10}";
},
{
name = top;
position = "{175, 705}";
},
{
name = topleft;
position = "{81, 705}";
}
);
paths = (
{
closed = 1;
nodes = (
"147 0 LINE",
"202 705 LINE",
"148 705 LINE",
"93 0 LINE"
);
}
);
};
layerId = "9E718F8A-2CEA-4931-B05D-987794BD97DA";
paths = (
{
closed = 1;
nodes = (
"128 0 LINE",
"183 705 LINE",
"129 705 LINE",
"74 0 LINE"
);
}
);
width = 240;
}
);
leftKerningGroup = H;
rightKerningGroup = H;
unicode = 0049;
userData = {
anchors = (
);
b = {
};
com.typemytype.robofont.layerData = {
b = {
anchors = (
);
components = (
);
contours = (
);
lib = {
};
name = I;
unicodes = (
);
width = 592;
};
};
components = (
);
contours = (
);
lib = {
};
name = I;
unicodes = (
);
width = 637;
};
},
{
glyphname = Iogonek;
lastChange = "2017-11-16 15:27:43 +0000";
layers = (
{
background = {
paths = (
{
closed = 1;
nodes = (
"113 -191 OFFCURVE",
"144 -180 OFFCURVE",
"162 -168 CURVE",
"149 -129 LINE",
"127 -142 OFFCURVE",
"104 -148 OFFCURVE",
"88 -148 CURVE SMOOTH",
"49 -148 OFFCURVE",
"26 -127 OFFCURVE",
"26 -86 CURVE SMOOTH",
"26 -41 OFFCURVE",
"55 -5 OFFCURVE",
"125 10 CURVE",
"115 41 LINE",
"26 26 OFFCURVE",
"-25 -26 OFFCURVE",
"-25 -95 CURVE SMOOTH",
"-25 -152 OFFCURVE",
"16 -191 OFFCURVE",
"82 -191 CURVE SMOOTH"
);
}
);
};
layerId = "9E718F8A-2CEA-4931-B05D-987794BD97DA";
paths = (
{
closed = 1;
nodes = (
"113 -191 OFFCURVE",
"144 -180 OFFCURVE",
"162 -168 CURVE",
"149 -129 LINE",
"127 -142 OFFCURVE",
"104 -148 OFFCURVE",
"88 -148 CURVE SMOOTH",
"49 -148 OFFCURVE",
"26 -127 OFFCURVE",
"26 -84 CURVE SMOOTH",
"26 -41 OFFCURVE",
"52 0 OFFCURVE",
"124 0 CURVE SMOOTH",
"128 0 LINE",
"183 705 LINE",
"129 705 LINE",
"74 0 LINE",
"91 0 LINE",
"115 41 LINE",
"21 30 OFFCURVE",
"-25 -24 OFFCURVE",
"-25 -92 CURVE SMOOTH",
"-25 -152 OFFCURVE",
"16 -191 OFFCURVE",
"82 -191 CURVE SMOOTH"
);
}
);
width = 240;
}
);
leftKerningGroup = H;
rightKerningGroup = H;
unicode = 012E;
},
{
glyphname = J;
lastChange = "2017-11-16 15:27:43 +0000";
layers = (
{
anchors = (
{
name = bottom;
position = "{167, 0}";
},
{
name = top;
position = "{222, 705}";
}
);
background = {
anchors = (
{
name = bottom;
position = "{167, 0}";
},
{
name = top;
position = "{222, 705}";
}
);
paths = (
{
closed = 1;
nodes = (
"31 -2 LINE SMOOTH",
"136 5 OFFCURVE",
"199 67 OFFCURVE",
"208 180 CURVE SMOOTH",
"249 705 LINE",
"195 705 LINE",
"154 182 LINE SMOOTH",
"147 99 OFFCURVE",
"102 51 OFFCURVE",
"29 45 CURVE SMOOTH",
"-25 41 LINE",
"-24 -6 LINE"
);
}
);
};
layerId = "9E718F8A-2CEA-4931-B05D-987794BD97DA";
paths = (
{
closed = 1;
nodes = (
"31 -2 LINE SMOOTH",
"138 6 OFFCURVE",
"199 65 OFFCURVE",
"208 180 CURVE SMOOTH",
"249 705 LINE",
"195 705 LINE",
"154 182 LINE SMOOTH",
"147 97 OFFCURVE",
"104 51 OFFCURVE",
"29 45 CURVE SMOOTH",
"-25 41 LINE",
"-24 -6 LINE"
);
}
);
width = 306;
}
);
leftKerningGroup = J;
rightKerningGroup = J;
unicode = 004A;
userData = {
anchors = (
);
b = {
};
com.typemytype.robofont.layerData = {
b = {
anchors = (
);
components = (
);
contours = (
);
lib = {
};
name = J;
unicodes = (
);
width = 1003;
};
};
components = (
);
contours = (
);
lib = {
};
name = J;
unicodes = (
);
width = 1126;
};
},
{
glyphname = K;
lastChange = "2017-11-16 15:27:43 +0000";
layers = (
{
anchors = (
{
name = bottom;
position = "{287, 0}";
},
{
name = top;
position = "{341, 705}";
}
);
background = {
anchors = (
{
name = bottom;
position = "{287, 0}";
},
{
name = top;
position = "{341, 705}";
}
);
paths = (
{
closed = 1;
nodes = (
"588 0 LINE",
"190 379 LINE",
"185 339 LINE",
"621 705 LINE",
"548 705 LINE",
"134 357 LINE",
"513 0 LINE"
);
},
{
closed = 1;
nodes = (
"128 0 LINE",
"183 705 LINE",
"129 705 LINE",
"74 0 LINE"
);
}
);
};
layerId = "9E718F8A-2CEA-4931-B05D-987794BD97DA";
paths = (
{
closed = 1;
nodes = (
"588 0 LINE",
"191 376 LINE",
"181 339 LINE",
"621 705 LINE",
"544 705 LINE",
"134 360 LINE",
"518 0 LINE"
);
},
{
closed = 1;
nodes = (
"128 0 LINE",
"183 705 LINE",
"129 705 LINE",
"74 0 LINE"
);
}
);
width = 608;
}
);
leftKerningGroup = H;
rightKerningGroup = K;
unicode = 004B;
userData = {
anchors = (
);
b = {
};
com.typemytype.robofont.layerData = {
b = {
anchors = (
);
components = (
);
contours = (
);
lib = {
};
name = K;
unicodes = (
);
width = 1210;
};
};
components = (
);
contours = (
);
lib = {
};
name = K;
unicodes = (
);
width = 1329;
};
},
{
glyphname = L;
lastChange = "2017-11-16 15:27:43 +0000";
layers = (
{
anchors = (
{
name = bottom;
position = "{288, 0}";
},
{
name = center;
position = "{343, 353}";
},
{
name = top;
position = "{156, 705}";
},
{
name = topright;
position = "{273, 705}";
}
);
background = {
anchors = (
{
name = bottom;
position = "{288, 0}";
},
{
name = center;
position = "{343, 353}";
},
{
name = top;
position = "{156, 705}";
},
{
name = topright;
position = "{273, 705}";
}
);
paths = (
{
closed = 1;
nodes = (
"496 0 LINE",
"500 48 LINE",
"132 48 LINE",
"183 705 LINE",
"129 705 LINE",
"74 0 LINE"
);
}
);
};
layerId = "9E718F8A-2CEA-4931-B05D-987794BD97DA";
paths = (
{
closed = 1;
nodes = (
"496 0 LINE",
"500 48 LINE",
"132 48 LINE",
"183 705 LINE",
"129 705 LINE",
"74 0 LINE"
);
}
);
width = 531;
}
);
leftKerningGroup = H;
rightKerningGroup = L;
unicode = 004C;
userData = {
anchors = (
);
b = {
};
com.typemytype.robofont.layerData = {
b = {
anchors = (
);
components = (
);
contours = (
{
points = (
{
segmentType = curve;
smooth = 1;
x = 266;
y = 0;
},
{
segmentType = line;
smooth = 1;
x = 1035;
y = 0;
},
{
smooth = 0;
x = 1084;
y = 0;
},
{
smooth = 0;
x = 1108;
y = 34;
},
{
segmentType = curve;
smooth = 1;
x = 1108;
y = 71;
},
{
smooth = 0;
x = 1108;
y = 107;
},
{
smooth = 0;
x = 1084;
y = 141;
},
{
segmentType = curve;
smooth = 1;
x = 1035;
y = 141;
},
{
segmentType = line;
smooth = 0;
x = 356;
y = 141;
},
{
segmentType = line;
smooth = 0;
x = 356;
y = 665;
},
{
segmentType = line;
smooth = 1;
x = 975;
y = 665;
},
{
smooth = 0;
x = 1024;
y = 665;
},
{
smooth = 0;
x = 1049;
y = 698;
},
{
segmentType = curve;
smooth = 1;
x = 1049;
y = 734;
},
{
smooth = 0;
x = 1049;
y = 770;
},
{
smooth = 0;
x = 1026;
y = 803;
},
{
segmentType = curve;
smooth = 1;
x = 975;
y = 803;
},
{
segmentType = line;
smooth = 0;
x = 356;
y = 803;
},
{
segmentType = line;
smooth = 0;
x = 356;
y = 1285;
},
{
segmentType = line;
smooth = 1;
x = 1007;
y = 1285;
},
{
smooth = 0;
x = 1056;
y = 1285;
},
{
smooth = 0;
x = 1080;
y = 1319;
},
{
segmentType = curve;
smooth = 1;
x = 1080;
y = 1356;
},
{
smooth = 0;
x = 1080;
y = 1392;
},
{
smooth = 0;
x = 1056;
y = 1426;
},
{
segmentType = curve;
smooth = 1;
x = 1007;
y = 1426;
},
{
segmentType = line;
smooth = 1;
x = 261;
y = 1426;
},
{
smooth = 0;
x = 213;
y = 1426;
},
{
smooth = 0;
x = 178;
y = 1383;
},
{
segmentType = curve;
smooth = 1;
x = 178;
y = 1340;
},
{
segmentType = line;
smooth = 1;
x = 178;
y = 86;
},
{
smooth = 0;
x = 178;
y = 41;
},
{
smooth = 0;
x = 222;
y = 0;
}
);
}
);
lib = {
};
name = L;
unicodes = (
);
width = 1095;
};
};
components = (
);
contours = (
);
lib = {
};
name = L;
unicodes = (
);
width = 1169;
};
},
{
glyphname = LJ;
lastChange = "2017-11-16 15:27:43 +0000";
layers = (
{
background = {
paths = (
{
closed = 1;
nodes = (
"466 0 LINE",
"470 48 LINE",
"132 48 LINE",
"183 705 LINE",
"129 705 LINE",
"74 0 LINE"
);
},
{
closed = 1;
nodes = (
"560 -2 LINE SMOOTH",
"668 5 OFFCURVE",
"728 64 OFFCURVE",
"736 171 CURVE SMOOTH",
"778 705 LINE",
"724 705 LINE",
"682 167 LINE SMOOTH",
"676 91 OFFCURVE",
"635 51 OFFCURVE",
"558 45 CURVE SMOOTH",
"504 41 LINE",
"505 -6 LINE"
);
}
);
};
layerId = "9E718F8A-2CEA-4931-B05D-987794BD97DA";
paths = (
{
closed = 1;
nodes = (
"466 0 LINE",
"470 48 LINE",
"132 48 LINE",
"183 705 LINE",
"129 705 LINE",
"74 0 LINE"
);
},
{
closed = 1;
nodes = (
"560 -2 LINE SMOOTH",
"667 6 OFFCURVE",
"728 65 OFFCURVE",
"737 180 CURVE SMOOTH",
"778 705 LINE",
"724 705 LINE",
"683 182 LINE SMOOTH",
"676 97 OFFCURVE",
"633 51 OFFCURVE",
"558 45 CURVE SMOOTH",
"504 41 LINE",
"505 -6 LINE"
);
}
);
width = 835;
}
);
leftKerningGroup = H;
rightKerningGroup = J;
unicode = 01C7;
},
{
glyphname = Lslash;
lastChange = "2017-11-16 15:27:43 +0000";
layers = (
{
background = {
paths = (
{
closed = 1;
nodes = (
"372 461 LINE",
"352 502 LINE",
"1 309 LINE",
"22 268 LINE"
);
},
{
closed = 1;
nodes = (
"503 0 LINE",
"507 48 LINE",
"139 48 LINE",
"190 705 LINE",
"136 705 LINE",
"81 0 LINE"
);
}
);
};
guideLines = (
{
position = "{345, 358}";
},
{
angle = 90;
position = "{-75, 125}";
},
{
angle = 90;
position = "{179, 125}";
},
{
angle = 90;
position = "{279, 125}";
}
);
layerId = "9E718F8A-2CEA-4931-B05D-987794BD97DA";
paths = (
{
closed = 1;
nodes = (
"372 461 LINE",
"352 502 LINE",
"1 309 LINE",
"22 268 LINE"
);
},
{
closed = 1;
nodes = (
"503 0 LINE",
"507 48 LINE",
"139 48 LINE",
"190 705 LINE",
"136 705 LINE",
"81 0 LINE"
);
}
);
width = 538;
}
);
leftKerningGroup = L;
rightKerningGroup = L;
unicode = 0141;
},
{
glyphname = M;
lastChange = "2017-11-16 15:27:43 +0000";
layers = (
{
anchors = (
{
name = bottom;
position = "{401, 0}";
},
{
name = top;
position = "{456, 705}";
}
);
background = {
anchors = (
{
name = bottom;
position = "{401, 0}";
},
{
name = top;
position = "{456, 705}";
}
);
paths = (
{
closed = 1;
nodes = (
"126 0 LINE",
"176 646 LINE",
"148 644 LINE",
"390 111 LINE",
"432 111 LINE",
"753 643 LINE",
"728 646 LINE",
"676 0 LINE",
"728 0 LINE",
"783 705 LINE",
"737 705 LINE",
"401 139 LINE",
"427 139 LINE",
"175 705 LINE",
"129 705 LINE",
"74 0 LINE"
);
}
);
};
layerId = "9E718F8A-2CEA-4931-B05D-987794BD97DA";
paths = (
{
closed = 1;
nodes = (
"126 0 LINE",
"177 646 LINE",
"150 644 LINE",
"390 111 LINE",
"432 111 LINE",
"754 643 LINE",
"727 646 LINE",
"676 0 LINE",
"728 0 LINE",
"783 705 LINE",
"737 705 LINE",
"400 139 LINE",
"426 139 LINE",
"176 705 LINE",
"129 705 LINE",
"74 0 LINE"
);
}
);
width = 840;
}
);
leftKerningGroup = H;
rightKerningGroup = H;
unicode = 004D;
userData = {
anchors = (
);
b = {
};
com.typemytype.robofont.layerData = {
b = {
anchors = (
);
components = (
);
contours = (
);
lib = {
};
name = M;
unicodes = (
);
width = 1899;
};
};
components = (
);
contours = (
);
lib = {
};
name = M;
unicodes = (
);
width = 1984;
};
},
{
glyphname = N;
lastChange = "2017-11-16 15:27:43 +0000";
layers = (
{
anchors = (
{
name = bottom;
position = "{348, 0}";
},
{
name = top;
position = "{403, 705}";
}
);
background = {
anchors = (
{
name = bottom;
position = "{348, 0}";
},
{
name = top;
position = "{403, 705}";
}
);
paths = (
{
closed = 1;
nodes = (
"125 0 LINE",
"176 644 LINE",
"154 643 LINE",
"579 0 LINE",
"622 0 LINE",
"677 705 LINE",
"626 705 LINE",
"576 61 LINE",
"599 62 LINE",
"173 705 LINE",
"129 705 LINE",
"74 0 LINE"
);
}
);
};
layerId = "9E718F8A-2CEA-4931-B05D-987794BD97DA";
paths = (
{
closed = 1;
nodes = (
"125 0 LINE",
"176 644 LINE",
"155 643 LINE",
"579 0 LINE",
"622 0 LINE",
"677 705 LINE",
"626 705 LINE",
"575 61 LINE",
"598 62 LINE",
"173 705 LINE",
"129 705 LINE",
"74 0 LINE"
);
}
);
width = 734;
}
);
leftKerningGroup = H;
rightKerningGroup = H;
unicode = 004E;
userData = {
anchors = (
);
b = {
};
com.typemytype.robofont.layerData = {
b = {
anchors = (
);
components = (
);
contours = (
);
lib = {
};
name = N;
unicodes = (
);
width = 1499;
};
};
components = (
);
contours = (
);
lib = {
};
name = N;
unicodes = (
);
width = 1557;
};
},
{
glyphname = Eng;
lastChange = "2017-11-16 15:27:43 +0000";
layers = (
{
background = {
paths = (
{
closed = 1;
nodes = (
"576 61 LINE",
"599 62 LINE",
"173 705 LINE",
"129 705 LINE",
"74 0 LINE",
"125 0 LINE",
"176 644 LINE",
"154 643 LINE",
"579 0 LINE",
"574 38 LINE",
"570 -13 LINE SMOOTH",
"564 -90 OFFCURVE",
"519 -129 OFFCURVE",
"442 -135 CURVE SMOOTH",
"389 -139 LINE",
"389 -186 LINE",
"445 -182 LINE SMOOTH",
"561 -174 OFFCURVE",
"614 -108 OFFCURVE",
"621 -9 CURVE SMOOTH",
"677 705 LINE",
"626 705 LINE"
);
}
);
};
layerId = "9E718F8A-2CEA-4931-B05D-987794BD97DA";
paths = (
{
closed = 1;
nodes = (
"575 61 LINE",
"598 62 LINE",
"173 705 LINE",
"129 705 LINE",
"74 0 LINE",
"125 0 LINE",
"176 644 LINE",
"155 643 LINE",
"579 0 LINE",
"574 38 LINE",
"570 -13 LINE SMOOTH",
"564 -90 OFFCURVE",
"519 -129 OFFCURVE",
"442 -135 CURVE SMOOTH",
"389 -139 LINE",
"389 -186 LINE",
"445 -182 LINE SMOOTH",
"561 -174 OFFCURVE",
"614 -108 OFFCURVE",
"621 -9 CURVE SMOOTH",
"677 705 LINE",
"626 705 LINE"
);
}
);
width = 734;
}
);
leftKerningGroup = H;
rightKerningGroup = H;
unicode = 014A;
userData = {
com.typemytype.robofont.layerData = {
b = {
anchors = (
);
components = (
);
contours = (
);
lib = {
};
name = Eng;
unicodes = (
);
width = 1495;
};
};
};
},
{
glyphname = O;
lastChange = "2017-11-16 15:27:43 +0000";
layers = (
{
anchors = (
{
name = bottom;
position = "{358, 0}";
},
{
name = center;
position = "{387, 353}";
},
{
name = ogonek;
position = "{464, 10}";
},
{
name = top;
position = "{413, 705}";
},
{
name = topleft;
position = "{62, 705}";
},
{
name = topright;
position = "{443, 705}";
}
);
background = {
anchors = (
{
name = bottom;
position = "{1158, 0}";
},
{
name = center;
position = "{1215, 353}";
},
{
name = ogonek;
position = "{1265, 10}";
},
{
name = top;
position = "{1268, 705}";
},
{
name = topleft;
position = "{917, 705}";
},
{
name = topright;
position = "{1298, 705}";
}
);
paths = (
{
closed = 1;
nodes = (
"567 -8 OFFCURVE",
"700 148 OFFCURVE",
"700 395 CURVE SMOOTH",
"700 593 OFFCURVE",
"591 713 OFFCURVE",
"411 713 CURVE SMOOTH",
"205 713 OFFCURVE",
"72 557 OFFCURVE",
"72 311 CURVE SMOOTH",
"72 112 OFFCURVE",
"181 -8 OFFCURVE",
"360 -8 CURVE SMOOTH"
);
},
{
closed = 1;
nodes = (
"214 42 OFFCURVE",
"129 142 OFFCURVE",
"129 315 CURVE SMOOTH",
"129 531 OFFCURVE",
"235 663 OFFCURVE",
"410 663 CURVE SMOOTH",
"558 663 OFFCURVE",
"643 563 OFFCURVE",
"643 390 CURVE SMOOTH",
"643 174 OFFCURVE",
"537 42 OFFCURVE",
"361 42 CURVE SMOOTH"
);
}
);
};
layerId = "9E718F8A-2CEA-4931-B05D-987794BD97DA";
paths = (
{
closed = 1;
nodes = (
"573 -8 OFFCURVE",
"699 145 OFFCURVE",
"699 383 CURVE SMOOTH",
"699 589 OFFCURVE",
"584 713 OFFCURVE",
"394 713 CURVE SMOOTH",
"199 713 OFFCURVE",
"73 560 OFFCURVE",
"73 321 CURVE SMOOTH",
"73 116 OFFCURVE",
"188 -8 OFFCURVE",
"377 -8 CURVE SMOOTH"
);
},
{
closed = 1;
nodes = (
"219 43 OFFCURVE",
"130 142 OFFCURVE",
"130 320 CURVE SMOOTH",
"130 534 OFFCURVE",
"230 662 OFFCURVE",
"394 662 CURVE SMOOTH",
"553 662 OFFCURVE",
"642 563 OFFCURVE",
"642 384 CURVE SMOOTH",
"642 171 OFFCURVE",
"542 43 OFFCURVE",
"378 43 CURVE SMOOTH"
);
}
);
width = 755;
}
);
leftKerningGroup = O;
rightKerningGroup = O;
unicode = 004F;
userData = {
anchors = (
);
b = {
};
com.typemytype.robofont.guides = (
);
com.typemytype.robofont.layerData = {
b = {
anchors = (
);
components = (
);
contours = (
);
lib = {
};
name = O;
unicodes = (
);
width = 1597;
};
};
components = (
);
contours = (
);
lib = {
};
name = O;
unicodes = (
);
width = 1604;
};
},
{
glyphname = Ohorn;
lastChange = "2017-11-16 15:27:43 +0000";
layers = (
{
anchors = (
{
name = bottom;
position = "{359, 0}";
},
{
name = top;
position = "{413, 705}";
}
);
background = {
anchors = (
{
name = bottom;
position = "{1059, 0}";
},
{
name = top;
position = "{1113, 705}";
}
);
paths = (
{
closed = 1;
nodes = (
"573 -9 OFFCURVE",
"699 145 OFFCURVE",
"699 383 CURVE SMOOTH",
"699 589 OFFCURVE",
"584 714 OFFCURVE",
"394 714 CURVE SMOOTH",
"199 714 OFFCURVE",
"73 560 OFFCURVE",
"73 321 CURVE SMOOTH",
"73 116 OFFCURVE",
"188 -9 OFFCURVE",
"377 -9 CURVE SMOOTH"
);
},
{
closed = 1;
nodes = (
"219 42 OFFCURVE",
"130 142 OFFCURVE",
"130 320 CURVE SMOOTH",
"130 534 OFFCURVE",
"230 663 OFFCURVE",
"394 663 CURVE SMOOTH",
"553 663 OFFCURVE",
"642 563 OFFCURVE",
"642 384 CURVE SMOOTH",
"642 171 OFFCURVE",
"542 42 OFFCURVE",
"378 42 CURVE SMOOTH"
);
}
);
};
guideLines = (
{
angle = 90;
position = "{668, 464}";
}
);
layerId = "9E718F8A-2CEA-4931-B05D-987794BD97DA";
paths = (
{
closed = 1;
nodes = (
"573 -8 OFFCURVE",
"699 145 OFFCURVE",
"699 383 CURVE SMOOTH",
"699 538 OFFCURVE",
"633 632 OFFCURVE",
"559 673 CURVE",
"563 663 LINE",
"676 663 OFFCURVE",
"727 717 OFFCURVE",
"735 809 CURVE SMOOTH",
"736 831 LINE",
"686 831 LINE",
"685 818 LINE SMOOTH",
"679 737 OFFCURVE",
"645 705 OFFCURVE",
"558 705 CURVE SMOOTH",
"498 705 OFFCURVE",
"452 713 OFFCURVE",
"404 713 CURVE SMOOTH",
"197 713 OFFCURVE",
"73 560 OFFCURVE",
"73 321 CURVE SMOOTH",
"73 116 OFFCURVE",
"188 -8 OFFCURVE",
"377 -8 CURVE SMOOTH"
);
},
{
closed = 1;
nodes = (
"219 43 OFFCURVE",
"130 142 OFFCURVE",
"130 320 CURVE SMOOTH",
"130 534 OFFCURVE",
"230 662 OFFCURVE",
"394 662 CURVE SMOOTH",
"553 662 OFFCURVE",
"642 563 OFFCURVE",
"642 384 CURVE SMOOTH",
"642 171 OFFCURVE",
"542 43 OFFCURVE",
"378 43 CURVE SMOOTH"
);
}
);
width = 755;
}
);
leftKerningGroup = O;
rightKerningGroup = O;
unicode = 01A0;
},
{
glyphname = Oogonek;
lastChange = "2017-11-16 15:27:43 +0000";
layers = (
{
anchors = (
{
name = top;
position = "{413, 705}";
}
);
background = {
anchors = (
{
name = top;
position = "{1213, 705}";
}
);
paths = (
{
closed = 1;
nodes = (
"452 -191 OFFCURVE",
"483 -180 OFFCURVE",
"501 -168 CURVE",
"488 -129 LINE",
"466 -142 OFFCURVE",
"443 -148 OFFCURVE",
"427 -148 CURVE SMOOTH",
"388 -148 OFFCURVE",
"365 -127 OFFCURVE",
"365 -86 CURVE SMOOTH",
"365 -41 OFFCURVE",
"394 -5 OFFCURVE",
"464 10 CURVE",
"454 41 LINE",
"365 26 OFFCURVE",
"314 -26 OFFCURVE",
"314 -95 CURVE SMOOTH",
"314 -152 OFFCURVE",
"355 -191 OFFCURVE",
"421 -191 CURVE SMOOTH"
);
}
);
};
layerId = "9E718F8A-2CEA-4931-B05D-987794BD97DA";
paths = (
{
closed = 1;
nodes = (
"594 33 OFFCURVE",
"699 161 OFFCURVE",
"699 383 CURVE SMOOTH",
"699 589 OFFCURVE",
"584 713 OFFCURVE",
"394 713 CURVE SMOOTH",
"199 713 OFFCURVE",
"73 560 OFFCURVE",
"73 321 CURVE SMOOTH",
"73 116 OFFCURVE",
"188 -7 OFFCURVE",
"370 -7 CURVE",
"378 10 LINE",
"339 -9 OFFCURVE",
"314 -46 OFFCURVE",
"314 -93 CURVE SMOOTH",
"314 -152 OFFCURVE",
"355 -191 OFFCURVE",
"421 -191 CURVE SMOOTH",
"452 -191 OFFCURVE",
"483 -180 OFFCURVE",
"501 -168 CURVE",
"488 -129 LINE",
"466 -142 OFFCURVE",
"443 -148 OFFCURVE",
"427 -148 CURVE SMOOTH",
"388 -148 OFFCURVE",
"365 -127 OFFCURVE",
"365 -86 CURVE SMOOTH",
"365 -44 OFFCURVE",
"392 -13 OFFCURVE",
"450 0 CURVE SMOOTH"
);
},
{
closed = 1;
nodes = (
"219 43 OFFCURVE",
"130 142 OFFCURVE",
"130 320 CURVE SMOOTH",
"130 534 OFFCURVE",
"230 662 OFFCURVE",
"394 662 CURVE SMOOTH",
"553 662 OFFCURVE",
"642 563 OFFCURVE",
"642 384 CURVE SMOOTH",
"642 171 OFFCURVE",
"542 43 OFFCURVE",
"378 43 CURVE SMOOTH"
);
}
);
width = 755;
}
);
leftKerningGroup = O;
rightKerningGroup = O;
unicode = 01EA;
},
{
glyphname = Oslash;
lastChange = "2017-11-16 15:27:43 +0000";
layers = (
{
anchors = (
{
name = bottom;
position = "{358, 0}";
},
{
name = top;
position = "{413, 705}";
}
);
background = {
anchors = (
{
name = bottom;
position = "{358, 0}";
},
{
name = top;
position = "{413, 705}";
}
);
paths = (
{
closed = 1;
nodes = (
"550 -8 OFFCURVE",
"681 130 OFFCURVE",
"699 353 CURVE SMOOTH",
"716 576 OFFCURVE",
"608 713 OFFCURVE",
"414 713 CURVE SMOOTH",
"220 713 OFFCURVE",
"91 576 OFFCURVE",
"74 352 CURVE SMOOTH",
"56 130 OFFCURVE",
"165 -8 OFFCURVE",
"357 -8 CURVE SMOOTH"
);
},
{
closed = 1;
nodes = (
"657 721 LINE",
"619 744 LINE",
"116 -16 LINE",
"154 -39 LINE"
);
},
{
closed = 1;
nodes = (
"200 42 OFFCURVE",
"115 156 OFFCURVE",
"131 353 CURVE SMOOTH",
"146 550 OFFCURVE",
"249 663 OFFCURVE",
"410 663 CURVE SMOOTH",
"573 663 OFFCURVE",
"657 551 OFFCURVE",
"642 353 CURVE SMOOTH",
"626 155 OFFCURVE",
"523 42 OFFCURVE",
"361 42 CURVE SMOOTH"
);
}
);
};
layerId = "9E718F8A-2CEA-4931-B05D-987794BD97DA";
paths = (
{
closed = 1;
nodes = (
"573 -8 OFFCURVE",
"699 145 OFFCURVE",
"699 383 CURVE SMOOTH",
"699 589 OFFCURVE",
"584 713 OFFCURVE",
"394 713 CURVE SMOOTH",
"199 713 OFFCURVE",
"73 560 OFFCURVE",
"73 321 CURVE SMOOTH",
"73 116 OFFCURVE",
"188 -8 OFFCURVE",
"377 -8 CURVE SMOOTH"
);
},
{
closed = 1;
nodes = (
"219 43 OFFCURVE",
"130 142 OFFCURVE",
"130 320 CURVE SMOOTH",
"130 534 OFFCURVE",
"230 662 OFFCURVE",
"394 662 CURVE SMOOTH",
"553 662 OFFCURVE",
"642 563 OFFCURVE",
"642 384 CURVE SMOOTH",
"642 171 OFFCURVE",
"542 43 OFFCURVE",
"378 43 CURVE SMOOTH"
);
},
{
closed = 1;
nodes = (
"658 718 LINE",
"619 744 LINE",
"115 -13 LINE",
"154 -39 LINE"
);
}
);
width = 755;
}
);
leftKerningGroup = O;
rightKerningGroup = O;
unicode = 00D8;
userData = {
com.typemytype.robofont.layerData = {
b = {
anchors = (
);
components = (
);
contours = (
);
lib = {
};
name = Oslash;
unicodes = (
);
width = 1597;
};
};
};
},
{
glyphname = OE;
lastChange = "2017-11-16 15:27:43 +0000";
layers = (
{
anchors = (
{
name = bottom;
position = "{513, 0}";
},
{
name = top;
position = "{567, 705}";
}
);
background = {
anchors = (
{
name = bottom;
position = "{1313, 0}";
},
{
name = top;
position = "{1367, 705}";
}
);
paths = (
{
closed = 1;
nodes = (
"423 705 LINE SMOOTH",
"198 705 OFFCURVE",
"73 560 OFFCURVE",
"73 322 CURVE SMOOTH",
"73 116 OFFCURVE",
"187 0 OFFCURVE",
"399 0 CURVE SMOOTH",
"617 0 LINE",
"672 705 LINE"
);
},
{
closed = 1;
nodes = (
"566 48 LINE",
"400 48 LINE SMOOTH",
"218 48 OFFCURVE",
"130 142 OFFCURVE",
"130 321 CURVE SMOOTH",
"130 534 OFFCURVE",
"229 657 OFFCURVE",
"424 657 CURVE SMOOTH",
"614 657 LINE"
);
}
);
};
layerId = "9E718F8A-2CEA-4931-B05D-987794BD97DA";
paths = (
{
closed = 1;
nodes = (
"609 334 LINE",
"979 334 LINE",
"983 382 LINE",
"613 382 LINE"
);
},
{
closed = 1;
nodes = (
"218 48 OFFCURVE",
"130 142 OFFCURVE",
"130 321 CURVE SMOOTH",
"130 534 OFFCURVE",
"229 657 OFFCURVE",
"424 657 CURVE SMOOTH",
"594 657 LINE",
"546 48 LINE",
"400 48 LINE SMOOTH"
);
},
{
closed = 1;
nodes = (
"647 657 LINE",
"1025 657 LINE",
"1028 705 LINE",
"423 705 LINE SMOOTH",
"198 705 OFFCURVE",
"73 560 OFFCURVE",
"73 322 CURVE SMOOTH",
"73 116 OFFCURVE",
"187 0 OFFCURVE",
"399 0 CURVE SMOOTH",
"973 0 LINE",
"977 48 LINE",
"599 48 LINE"
);
}
);
width = 1046;
}
);
leftKerningGroup = O;
rightKerningGroup = E;
unicode = 0152;
},
{
glyphname = P;
lastChange = "2017-11-16 15:27:43 +0000";
layers = (
{
anchors = (
{
name = bottom;
position = "{299, 0}";
},
{
name = top;
position = "{354, 705}";
}
);
background = {
anchors = (
{
name = bottom;
position = "{299, 0}";
},
{
name = top;
position = "{409, 705}";
}
);
paths = (
{
closed = 1;
nodes = (
"179 657 LINE",
"385 657 LINE SMOOTH",
"494 657 OFFCURVE",
"552 611 OFFCURVE",
"552 522 CURVE SMOOTH",
"552 406 OFFCURVE",
"488 347 OFFCURVE",
"360 347 CURVE SMOOTH",
"144 347 LINE",
"140 299 LINE",
"360 299 LINE SMOOTH",
"514 299 OFFCURVE",
"607 379 OFFCURVE",
"607 523 CURVE SMOOTH",
"607 641 OFFCURVE",
"526 705 OFFCURVE",
"386 705 CURVE SMOOTH",
"129 705 LINE",
"74 0 LINE",
"128 0 LINE"
);
}
);
};
layerId = "9E718F8A-2CEA-4931-B05D-987794BD97DA";
paths = (
{
closed = 1;
nodes = (
"179 657 LINE",
"385 657 LINE SMOOTH",
"500 657 OFFCURVE",
"552 603 OFFCURVE",
"552 514 CURVE SMOOTH",
"552 398 OFFCURVE",
"482 347 OFFCURVE",
"360 347 CURVE SMOOTH",
"144 347 LINE",
"140 299 LINE",
"360 299 LINE SMOOTH",
"510 299 OFFCURVE",
"607 369 OFFCURVE",
"607 515 CURVE SMOOTH",
"607 630 OFFCURVE",
"532 705 OFFCURVE",
"386 705 CURVE SMOOTH",
"129 705 LINE",
"74 0 LINE",
"128 0 LINE"
);
}
);
width = 636;
}
);
leftKerningGroup = H;
rightKerningGroup = P;
unicode = 0050;
userData = {
anchors = (
);
b = {
};
com.typemytype.robofont.layerData = {
b = {
anchors = (
);
components = (
);
contours = (
{
points = (
{
segmentType = curve;
smooth = 1;
x = 266;
y = 0;
},
{
segmentType = line;
smooth = 1;
x = 1035;
y = 0;
},
{
smooth = 0;
x = 1084;
y = 0;
},
{
smooth = 0;
x = 1108;
y = 34;
},
{
segmentType = curve;
smooth = 1;
x = 1108;
y = 71;
},
{
smooth = 0;
x = 1108;
y = 107;
},
{
smooth = 0;
x = 1084;
y = 141;
},
{
segmentType = curve;
smooth = 1;
x = 1035;
y = 141;
},
{
segmentType = line;
smooth = 0;
x = 356;
y = 141;
},
{
segmentType = line;
smooth = 0;
x = 356;
y = 665;
},
{
segmentType = line;
smooth = 1;
x = 975;
y = 665;
},
{
smooth = 0;
x = 1024;
y = 665;
},
{
smooth = 0;
x = 1049;
y = 698;
},
{
segmentType = curve;
smooth = 1;
x = 1049;
y = 734;
},
{
smooth = 0;
x = 1049;
y = 770;
},
{
smooth = 0;
x = 1026;
y = 803;
},
{
segmentType = curve;
smooth = 1;
x = 975;
y = 803;
},
{
segmentType = line;
smooth = 0;
x = 356;
y = 803;
},
{
segmentType = line;
smooth = 0;
x = 356;
y = 1285;
},
{
segmentType = line;
smooth = 1;
x = 1007;
y = 1285;
},
{
smooth = 0;
x = 1056;
y = 1285;
},
{
smooth = 0;
x = 1080;
y = 1319;
},
{
segmentType = curve;
smooth = 1;
x = 1080;
y = 1356;
},
{
smooth = 0;
x = 1080;
y = 1392;
},
{
smooth = 0;
x = 1056;
y = 1426;
},
{
segmentType = curve;
smooth = 1;
x = 1007;
y = 1426;
},
{
segmentType = line;
smooth = 1;
x = 261;
y = 1426;
},
{
smooth = 0;
x = 213;
y = 1426;
},
{
smooth = 0;
x = 178;
y = 1383;
},
{
segmentType = curve;
smooth = 1;
x = 178;
y = 1340;
},
{
segmentType = line;
smooth = 1;
x = 178;
y = 86;
},
{
smooth = 0;
x = 178;
y = 41;
},
{
smooth = 0;
x = 222;
y = 0;
}
);
}
);
lib = {
};
name = P;
unicodes = (
);
width = 1201;
};
};
components = (
);
contours = (
);
lib = {
};
name = P;
unicodes = (
);
width = 1319;
};
},
{
glyphname = Thorn;
lastChange = "2017-11-16 15:27:43 +0000";
layers = (
{
anchors = (
{
name = bottom;
position = "{299, 0}";
},
{
name = top;
position = "{354, 705}";
}
);
background = {
paths = (
{
closed = 1;
nodes = (
"362 172 LINE SMOOTH",
"514 172 OFFCURVE",
"595 249 OFFCURVE",
"595 379 CURVE SMOOTH",
"595 486 OFFCURVE",
"518 545 OFFCURVE",
"384 545 CURVE SMOOTH",
"160 545 LINE",
"156 497 LINE",
"382 497 LINE SMOOTH",
"484 497 OFFCURVE",
"540 459 OFFCURVE",
"540 378 CURVE SMOOTH",
"540 272 OFFCURVE",
"484 220 OFFCURVE",
"360 220 CURVE SMOOTH",
"134 220 LINE",
"131 172 LINE"
);
},
{
closed = 1;
nodes = (
"128 0 LINE",
"183 705 LINE",
"129 705 LINE",
"74 0 LINE"
);
}
);
};
layerId = "9E718F8A-2CEA-4931-B05D-987794BD97DA";
paths = (
{
closed = 1;
nodes = (
"362 172 LINE SMOOTH",
"516 172 OFFCURVE",
"595 248 OFFCURVE",
"595 369 CURVE SMOOTH",
"595 486 OFFCURVE",
"518 545 OFFCURVE",
"384 545 CURVE SMOOTH",
"160 545 LINE",
"156 497 LINE",
"382 497 LINE SMOOTH",
"484 497 OFFCURVE",
"540 459 OFFCURVE",
"540 368 CURVE SMOOTH",
"540 271 OFFCURVE",
"484 220 OFFCURVE",
"360 220 CURVE SMOOTH",
"134 220 LINE",
"131 172 LINE"
);
},
{
closed = 1;
nodes = (
"128 0 LINE",
"183 705 LINE",
"129 705 LINE",
"74 0 LINE"
);
}
);
width = 636;
}
);
leftKerningGroup = H;
rightKerningGroup = THORN;
unicode = 00DE;
},
{
glyphname = Q;
lastChange = "2017-11-16 15:27:43 +0000";
layers = (
{
anchors = (
{
name = bottom;
position = "{358, 0}";
},
{
name = top;
position = "{413, 705}";
}
);
background = {
anchors = (
{
name = bottom;
position = "{1158, 0}";
},
{
name = top;
position = "{1213, 705}";
}
);
paths = (
{
closed = 1;
nodes = (
"573 -9 OFFCURVE",
"699 145 OFFCURVE",
"699 383 CURVE SMOOTH",
"699 589 OFFCURVE",
"584 714 OFFCURVE",
"394 714 CURVE SMOOTH",
"199 714 OFFCURVE",
"73 560 OFFCURVE",
"73 321 CURVE SMOOTH",
"73 116 OFFCURVE",
"188 -9 OFFCURVE",
"377 -9 CURVE SMOOTH"
);
},
{
closed = 1;
nodes = (
"219 42 OFFCURVE",
"130 142 OFFCURVE",
"130 320 CURVE SMOOTH",
"130 534 OFFCURVE",
"230 663 OFFCURVE",
"394 663 CURVE SMOOTH",
"553 663 OFFCURVE",
"642 563 OFFCURVE",
"642 384 CURVE SMOOTH",
"642 171 OFFCURVE",
"542 42 OFFCURVE",
"378 42 CURVE SMOOTH"
);
}
);
};
layerId = "9E718F8A-2CEA-4931-B05D-987794BD97DA";
paths = (
{
closed = 1;
nodes = (
"586 -167 LINE",
"531 -64 LINE SMOOTH",
"498 -2 OFFCURVE",
"471 16 OFFCURVE",
"408 16 CURVE",
"445 1 LINE",
"612 33 OFFCURVE",
"699 184 OFFCURVE",
"699 383 CURVE SMOOTH",
"699 589 OFFCURVE",
"584 713 OFFCURVE",
"394 713 CURVE SMOOTH",
"199 713 OFFCURVE",
"73 560 OFFCURVE",
"73 321 CURVE SMOOTH",
"73 116 OFFCURVE",
"188 -1 OFFCURVE",
"357 -7 CURVE SMOOTH",
"412 -9 OFFCURVE",
"452 -30 OFFCURVE",
"474 -71 CURVE SMOOTH",
"540 -193 LINE"
);
},
{
closed = 1;
nodes = (
"219 43 OFFCURVE",
"130 142 OFFCURVE",
"130 320 CURVE SMOOTH",
"130 534 OFFCURVE",
"230 662 OFFCURVE",
"394 662 CURVE SMOOTH",
"553 662 OFFCURVE",
"642 563 OFFCURVE",
"642 384 CURVE SMOOTH",
"642 171 OFFCURVE",
"542 43 OFFCURVE",
"378 43 CURVE SMOOTH"
);
}
);
width = 755;
}
);
leftKerningGroup = O;
rightKerningGroup = O;
unicode = 0051;
userData = {
anchors = (
);
b = {
};
com.typemytype.robofont.layerData = {
b = {
anchors = (
);
components = (
);
contours = (
);
lib = {
};
name = Q;
unicodes = (
);
width = 1597;
};
};
components = (
);
contours = (
);
lib = {
};
name = Q;
unicodes = (
);
width = 1604;
};
},
{
glyphname = R;
lastChange = "2017-11-16 15:27:43 +0000";
layers = (
{
anchors = (
{
name = bottom;
position = "{317, 0}";
},
{
name = top;
position = "{372, 705}";
}
);
background = {
paths = (
{
closed = 1;
nodes = (
"180 657 LINE",
"402 657 LINE SMOOTH",
"511 657 OFFCURVE",
"568 614 OFFCURVE",
"568 526 CURVE SMOOTH",
"568 408 OFFCURVE",
"503 356 OFFCURVE",
"378 356 CURVE SMOOTH",
"144 356 LINE",
"140 308 LINE",
"305 308 LINE SMOOTH",
"379 308 OFFCURVE",
"418 291 OFFCURVE",
"447 226 CURVE SMOOTH",
"548 0 LINE",
"607 0 LINE",
"499 238 LINE SMOOTH",
"472 298 OFFCURVE",
"441 323 OFFCURVE",
"380 323 CURVE",
"383 314 LINE",
"538 314 OFFCURVE",
"623 392 OFFCURVE",
"623 529 CURVE SMOOTH",
"623 643 OFFCURVE",
"543 705 OFFCURVE",
"402 705 CURVE SMOOTH",
"129 705 LINE",
"74 0 LINE",
"128 0 LINE"
);
}
);
};
layerId = "9E718F8A-2CEA-4931-B05D-987794BD97DA";
paths = (
{
closed = 1;
nodes = (
"180 657 LINE",
"402 657 LINE SMOOTH",
"511 657 OFFCURVE",
"568 614 OFFCURVE",
"568 519 CURVE SMOOTH",
"568 408 OFFCURVE",
"506 356 OFFCURVE",
"378 356 CURVE SMOOTH",
"144 356 LINE",
"140 308 LINE",
"305 308 LINE SMOOTH",
"379 308 OFFCURVE",
"418 291 OFFCURVE",
"447 226 CURVE SMOOTH",
"548 0 LINE",
"607 0 LINE",
"499 238 LINE SMOOTH",
"472 298 OFFCURVE",
"441 323 OFFCURVE",
"380 323 CURVE",
"383 314 LINE",
"541 314 OFFCURVE",
"623 392 OFFCURVE",
"623 522 CURVE SMOOTH",
"623 643 OFFCURVE",
"543 705 OFFCURVE",
"402 705 CURVE SMOOTH",
"129 705 LINE",
"74 0 LINE",
"128 0 LINE"
);
}
);
width = 680;
}
);
leftKerningGroup = H;
rightKerningGroup = R;
unicode = 0052;
userData = {
anchors = (
);
b = {
};
com.typemytype.robofont.guides = (
);
com.typemytype.robofont.layerData = {
b = {
anchors = (
);
components = (
);
contours = (
{
points = (
{
segmentType = curve;
smooth = 1;
x = 267;
y = 0;
},
{
smooth = 0;
x = 311;
y = 0;
},
{
smooth = 0;
x = 356;
y = 27;
},
{
segmentType = curve;
smooth = 1;
x = 356;
y = 84;
},
{
segmentType = line;
smooth = 0;
x = 356;
y = 628;
},
{
segmentType = line;
smooth = 1;
x = 669;
y = 628;
},
{
smooth = 0;
x = 962;
y = 628;
},
{
smooth = 0;
x = 1182;
y = 722;
},
{
segmentType = curve;
smooth = 1;
x = 1182;
y = 1026;
},
{
smooth = 0;
x = 1182;
y = 1324;
},
{
smooth = 0;
x = 993;
y = 1426;
},
{
segmentType = curve;
smooth = 1;
x = 684;
y = 1426;
},
{
segmentType = line;
smooth = 1;
x = 268;
y = 1426;
},
{
smooth = 0;
x = 217;
y = 1426;
},
{
smooth = 0;
x = 178;
y = 1387;
},
{
segmentType = curve;
smooth = 1;
x = 178;
y = 1339;
},
{
segmentType = line;
smooth = 1;
x = 178;
y = 84;
},
{
smooth = 0;
x = 178;
y = 28;
},
{
smooth = 0;
x = 222;
y = 0;
}
);
},
{
points = (
{
segmentType = line;
smooth = 0;
x = 356;
y = 764;
},
{
segmentType = line;
smooth = 0;
x = 356;
y = 1285;
},
{
segmentType = line;
smooth = 1;
x = 684;
y = 1285;
},
{
smooth = 0;
x = 914;
y = 1285;
},
{
smooth = 0;
x = 1008;
y = 1210;
},
{
segmentType = curve;
smooth = 1;
x = 1008;
y = 1026;
},
{
smooth = 0;
x = 1008;
y = 838;
},
{
smooth = 0;
x = 901;
y = 764;
},
{
segmentType = curve;
smooth = 1;
x = 670;
y = 764;
}
);
}
);
lib = {
};
name = R;
unicodes = (
);
width = 1363;
};
};
components = (
);
contours = (
);
lib = {
};
name = R;
unicodes = (
);
width = 1408;
};
},
{
glyphname = S;
lastChange = "2017-11-16 15:27:43 +0000";
layers = (
{
anchors = (
{
name = bottom;
position = "{288, 0}";
},
{
name = top;
position = "{338, 705}";
}
);
background = {
anchors = (
{
name = bottom;
position = "{288, 0}";
},
{
name = top;
position = "{393, 705}";
}
);
paths = (
{
closed = 1;
nodes = (
"439 -14 OFFCURVE",
"542 58 OFFCURVE",
"551 173 CURVE SMOOTH",
"562 313 OFFCURVE",
"420 340 OFFCURVE",
"300 377 CURVE SMOOTH",
"210 405 OFFCURVE",
"132 437 OFFCURVE",
"139 526 CURVE SMOOTH",
"146 619 OFFCURVE",
"222 670 OFFCURVE",
"343 664 CURVE SMOOTH",
"426 660 OFFCURVE",
"489 630 OFFCURVE",
"550 565 CURVE",
"578 608 LINE",
"523 672 OFFCURVE",
"443 709 OFFCURVE",
"347 714 CURVE SMOOTH",
"196 722 OFFCURVE",
"94 648 OFFCURVE",
"85 529 CURVE SMOOTH",
"74 388 OFFCURVE",
"204 352 OFFCURVE",
"320 317 CURVE SMOOTH",
"416 288 OFFCURVE",
"503 262 OFFCURVE",
"496 177 CURVE SMOOTH",
"488 85 OFFCURVE",
"415 36 OFFCURVE",
"293 43 CURVE SMOOTH",
"194 49 OFFCURVE",
"132 74 OFFCURVE",
"66 142 CURVE",
"39 99 LINE",
"100 32 OFFCURVE",
"180 -2 OFFCURVE",
"289 -7 CURVE SMOOTH"
);
},
{
closed = 1;
nodes = (
"1051 -8 OFFCURVE",
"1153 77 OFFCURVE",
"1153 193 CURVE SMOOTH",
"1153 428 OFFCURVE",
"739 309 OFFCURVE",
"739 510 CURVE SMOOTH",
"739 603 OFFCURVE",
"815 663 OFFCURVE",
"939 663 CURVE SMOOTH",
"1021 663 OFFCURVE",
"1086 637 OFFCURVE",
"1151 576 CURVE",
"1179 620 LINE",
"1121 681 OFFCURVE",
"1039 713 OFFCURVE",
"939 713 CURVE SMOOTH",
"784 713 OFFCURVE",
"683 626 OFFCURVE",
"683 509 CURVE SMOOTH",
"683 256 OFFCURVE",
"1097 375 OFFCURVE",
"1097 191 CURVE SMOOTH",
"1097 103 OFFCURVE",
"1024 42 OFFCURVE",
"897 42 CURVE SMOOTH",
"799 42 OFFCURVE",
"735 66 OFFCURVE",
"665 129 CURVE",
"638 85 LINE",
"705 21 OFFCURVE",
"786 -8 OFFCURVE",
"897 -8 CURVE SMOOTH"
);
}
);
};
layerId = "9E718F8A-2CEA-4931-B05D-987794BD97DA";
paths = (
{
closed = 1;
nodes = (
"454 -8 OFFCURVE",
"552 66 OFFCURVE",
"552 183 CURVE SMOOTH",
"552 420 OFFCURVE",
"140 319 OFFCURVE",
"140 520 CURVE SMOOTH",
"140 609 OFFCURVE",
"207 664 OFFCURVE",
"335 664 CURVE SMOOTH",
"416 664 OFFCURVE",
"487 635 OFFCURVE",
"551 576 CURVE",
"579 620 LINE",
"518 680 OFFCURVE",
"432 713 OFFCURVE",
"335 713 CURVE SMOOTH",
"182 713 OFFCURVE",
"84 637 OFFCURVE",
"84 519 CURVE SMOOTH",
"84 266 OFFCURVE",
"496 365 OFFCURVE",
"496 181 CURVE SMOOTH",
"496 94 OFFCURVE",
"429 41 OFFCURVE",
"301 41 CURVE SMOOTH",
"207 41 OFFCURVE",
"138 66 OFFCURVE",
"65 129 CURVE",
"38 85 LINE",
"110 21 OFFCURVE",
"190 -8 OFFCURVE",
"301 -8 CURVE SMOOTH"
);
}
);
width = 604;
}
);
leftKerningGroup = S;
rightKerningGroup = S;
unicode = 0053;
userData = {
anchors = (
);
b = {
};
com.typemytype.robofont.layerData = {
b = {
anchors = (
);
components = (
);
contours = (
);
lib = {
};
name = S;
unicodes = (
);
width = 1274;
};
};
components = (
);
contours = (
);
lib = {
};
name = S;
unicodes = (
);
width = 1317;
};
},
{
glyphname = Germandbls;
lastChange = "2017-11-16 15:27:43 +0000";
layers = (
{
background = {
paths = (
{
closed = 1;
nodes = (
"127 0 LINE",
"163 455 LINE SMOOTH",
"174 597 OFFCURVE",
"242 662 OFFCURVE",
"378 662 CURVE SMOOTH",
"482 662 OFFCURVE",
"540 611 OFFCURVE",
"533 526 CURVE SMOOTH",
"526 434 OFFCURVE",
"460 382 OFFCURVE",
"353 382 CURVE SMOOTH",
"251 382 LINE",
"247 334 LINE",
"384 334 LINE SMOOTH",
"501 334 OFFCURVE",
"561 286 OFFCURVE",
"553 193 CURVE SMOOTH",
"546 101 OFFCURVE",
"481 45 OFFCURVE",
"378 43 CURVE SMOOTH",
"325 42 OFFCURVE",
"280 60 OFFCURVE",
"228 105 CURVE",
"202 59 LINE",
"246 16 OFFCURVE",
"310 -7 OFFCURVE",
"377 -7 CURVE SMOOTH",
"506 -7 OFFCURVE",
"599 73 OFFCURVE",
"608 192 CURVE SMOOTH",
"616 290 OFFCURVE",
"562 354 OFFCURVE",
"456 370 CURVE",
"446 359 LINE",
"530 378 OFFCURVE",
"582 440 OFFCURVE",
"588 527 CURVE SMOOTH",
"597 641 OFFCURVE",
"518 712 OFFCURVE",
"382 712 CURVE SMOOTH",
"213 712 OFFCURVE",
"123 629 OFFCURVE",
"109 462 CURVE SMOOTH",
"73 0 LINE"
);
}
);
};
layerId = "9E718F8A-2CEA-4931-B05D-987794BD97DA";
paths = (
{
closed = 1;
nodes = (
"127 0 LINE",
"163 455 LINE SMOOTH",
"174 597 OFFCURVE",
"236 662 OFFCURVE",
"377 662 CURVE SMOOTH",
"473 662 OFFCURVE",
"535 616 OFFCURVE",
"535 538 CURVE SMOOTH",
"535 439 OFFCURVE",
"469 382 OFFCURVE",
"355 382 CURVE SMOOTH",
"251 382 LINE",
"247 334 LINE",
"384 334 LINE SMOOTH",
"496 334 OFFCURVE",
"555 291 OFFCURVE",
"555 207 CURVE SMOOTH",
"555 103 OFFCURVE",
"488 43 OFFCURVE",
"378 43 CURVE SMOOTH",
"327 43 OFFCURVE",
"280 62 OFFCURVE",
"228 105 CURVE",
"202 59 LINE",
"249 17 OFFCURVE",
"312 -7 OFFCURVE",
"383 -7 CURVE SMOOTH",
"518 -7 OFFCURVE",
"610 79 OFFCURVE",
"610 206 CURVE SMOOTH",
"610 298 OFFCURVE",
"556 355 OFFCURVE",
"457 370 CURVE",
"447 359 LINE",
"537 378 OFFCURVE",
"590 445 OFFCURVE",
"590 540 CURVE SMOOTH",
"590 647 OFFCURVE",
"507 712 OFFCURVE",
"378 712 CURVE SMOOTH",
"213 712 OFFCURVE",
"123 631 OFFCURVE",
"110 466 CURVE SMOOTH",
"73 0 LINE"
);
}
);
width = 680;
}
);
leftKerningGroup = H;
rightKerningGroup = Germandbls;
unicode = 1E9E;
},
{
glyphname = Schwa;
lastChange = "2017-11-16 15:27:43 +0000";
layers = (
{
anchors = (
{
name = bottom;
position = "{347, 0}";
},
{
name = top;
position = "{402, 705}";
}
);
background = {
anchors = (
{
name = bottom;
position = "{1047, 0}";
},
{
name = top;
position = "{1102, 705}";
}
);
paths = (
{
closed = 1;
nodes = (
"271 713 OFFCURVE",
"189 681 OFFCURVE",
"124 620 CURVE",
"145 576 LINE",
"212 639 OFFCURVE",
"286 663 OFFCURVE",
"359 663 CURVE SMOOTH",
"516 663 OFFCURVE",
"605 563 OFFCURVE",
"605 385 CURVE SMOOTH",
"605 171 OFFCURVE",
"505 42 OFFCURVE",
"334 42 CURVE SMOOTH",
"237 42 OFFCURVE",
"174 67 OFFCURVE",
"110 128 CURVE",
"82 85 LINE",
"141 23 OFFCURVE",
"228 -8 OFFCURVE",
"332 -8 CURVE SMOOTH",
"536 -8 OFFCURVE",
"662 145 OFFCURVE",
"662 384 CURVE SMOOTH",
"662 589 OFFCURVE",
"547 713 OFFCURVE",
"372 713 CURVE SMOOTH"
);
}
);
};
layerId = "9E718F8A-2CEA-4931-B05D-987794BD97DA";
paths = (
{
closed = 1;
nodes = (
"551 -8 OFFCURVE",
"676 145 OFFCURVE",
"676 383 CURVE SMOOTH",
"676 589 OFFCURVE",
"562 713 OFFCURVE",
"381 713 CURVE SMOOTH",
"274 713 OFFCURVE",
"189 681 OFFCURVE",
"124 620 CURVE",
"145 576 LINE",
"212 639 OFFCURVE",
"289 663 OFFCURVE",
"371 663 CURVE SMOOTH",
"531 663 OFFCURVE",
"619 563 OFFCURVE",
"619 384 CURVE SMOOTH",
"619 171 OFFCURVE",
"520 43 OFFCURVE",
"353 42 CURVE SMOOTH",
"186 41 OFFCURVE",
"115 164 OFFCURVE",
"131 353 CURVE",
"114 333 LINE",
"648 333 LINE",
"652 383 LINE",
"77 383 LINE",
"74 350 LINE SMOOTH",
"55 144 OFFCURVE",
"150 -8 OFFCURVE",
"348 -8 CURVE SMOOTH"
);
}
);
width = 732;
}
);
leftKerningGroup = O;
rightKerningGroup = O;
unicode = 018F;
},
{
glyphname = T;
lastChange = "2017-11-16 17:26:49 +0000";
layers = (
{
anchors = (
{
name = bottom;
position = "{275, 0}";
},
{
name = center;
position = "{303, 353}";
},
{
name = top;
position = "{330, 705}";
}
);
background = {
anchors = (
{
name = bottom;
position = "{275, 0}";
},
{
name = center;
position = "{303, 353}";
},
{
name = top;
position = "{330, 705}";
}
);
paths = (
{
closed = 1;
nodes = (
"302 0 LINE",
"354 657 LINE",
"609 657 LINE",
"613 705 LINE",
"49 705 LINE",
"45 657 LINE",
"300 657 LINE",
"248 0 LINE"
);
}
);
};
layerId = "9E718F8A-2CEA-4931-B05D-987794BD97DA";
paths = (
{
closed = 1;
nodes = (
"302 0 LINE",
"354 657 LINE",
"609 657 LINE",
"613 705 LINE",
"49 705 LINE",
"45 657 LINE",
"300 657 LINE",
"248 0 LINE"
);
}
);
width = 588;
}
);
leftKerningGroup = T;
rightKerningGroup = T;
unicode = 0054;
userData = {
anchors = (
);
b = {
};
com.typemytype.robofont.layerData = {
b = {
anchors = (
);
components = (
);
contours = (
{
points = (
{
segmentType = curve;
smooth = 1;
x = 581;
y = 0;
},
{
segmentType = line;
smooth = 1;
x = 1350;
y = 0;
},
{
smooth = 0;
x = 1399;
y = 0;
},
{
smooth = 0;
x = 1423;
y = 34;
},
{
segmentType = curve;
smooth = 1;
x = 1423;
y = 71;
},
{
smooth = 0;
x = 1423;
y = 107;
},
{
smooth = 0;
x = 1399;
y = 141;
},
{
segmentType = curve;
smooth = 1;
x = 1350;
y = 141;
},
{
segmentType = line;
smooth = 0;
x = 671;
y = 141;
},
{
segmentType = line;
smooth = 0;
x = 671;
y = 665;
},
{
segmentType = line;
smooth = 1;
x = 1290;
y = 665;
},
{
smooth = 0;
x = 1339;
y = 665;
},
{
smooth = 0;
x = 1364;
y = 698;
},
{
segmentType = curve;
smooth = 1;
x = 1364;
y = 734;
},
{
smooth = 0;
x = 1364;
y = 770;
},
{
smooth = 0;
x = 1341;
y = 803;
},
{
segmentType = curve;
smooth = 1;
x = 1290;
y = 803;
},
{
segmentType = line;
smooth = 0;
x = 671;
y = 803;
},
{
segmentType = line;
smooth = 0;
x = 671;
y = 1285;
},
{
segmentType = line;
smooth = 1;
x = 1322;
y = 1285;
},
{
smooth = 0;
x = 1371;
y = 1285;
},
{
smooth = 0;
x = 1395;
y = 1319;
},
{
segmentType = curve;
smooth = 1;
x = 1395;
y = 1356;
},
{
smooth = 0;
x = 1395;
y = 1392;
},
{
smooth = 0;
x = 1371;
y = 1426;
},
{
segmentType = curve;
smooth = 1;
x = 1322;
y = 1426;
},
{
segmentType = line;
smooth = 1;
x = 576;
y = 1426;
},
{
smooth = 0;
x = 528;
y = 1426;
},
{
smooth = 0;
x = 493;
y = 1383;
},
{
segmentType = curve;
smooth = 1;
x = 493;
y = 1340;
},
{
segmentType = line;
smooth = 1;
x = 493;
y = 86;
},
{
smooth = 0;
x = 493;
y = 41;
},
{
smooth = 0;
x = 537;
y = 0;
}
);
}
);
lib = {
};
name = T;
unicodes = (
);
width = 1158;
};
};
components = (
);
contours = (
);
lib = {
};
name = T;
unicodes = (
);
width = 1199;
};
},
{
glyphname = Tbar;
lastChange = "2017-11-16 15:27:43 +0000";
layers = (
{
background = {
paths = (
{
closed = 1;
nodes = (
"473 335 LINE",
"477 381 LINE",
"133 381 LINE",
"129 335 LINE"
);
},
{
closed = 1;
nodes = (
"302 0 LINE",
"354 657 LINE",
"609 657 LINE",
"612 705 LINE",
"48 705 LINE",
"45 657 LINE",
"300 657 LINE",
"248 0 LINE"
);
}
);
};
layerId = "9E718F8A-2CEA-4931-B05D-987794BD97DA";
paths = (
{
closed = 1;
nodes = (
"473 335 LINE",
"477 381 LINE",
"133 381 LINE",
"129 335 LINE"
);
},
{
closed = 1;
nodes = (
"302 0 LINE",
"354 657 LINE",
"609 657 LINE",
"613 705 LINE",
"49 705 LINE",
"45 657 LINE",
"300 657 LINE",
"248 0 LINE"
);
}
);
width = 588;
}
);
leftKerningGroup = T;
rightKerningGroup = T;
unicode = 0166;
userData = {
com.typemytype.robofont.layerData = {
b = {
anchors = (
);
components = (
);
contours = (
);
lib = {
};
name = Tbar;
unicodes = (
);
width = 1158;
};
};
};
},
{
glyphname = U;
lastChange = "2017-11-16 15:27:43 +0000";
layers = (
{
anchors = (
{
name = bottom;
position = "{340, 0}";
},
{
name = ogonek;
position = "{453, 10}";
},
{
name = top;
position = "{395, 705}";
},
{
name = topright;
position = "{639, 705}";
}
);
background = {
anchors = (
{
name = bottom;
position = "{340, 0}";
},
{
name = ogonek;
position = "{453, 10}";
},
{
name = top;
position = "{395, 705}";
},
{
name = topright;
position = "{639, 705}";
}
);
paths = (
{
closed = 1;
nodes = (
"517 -8 OFFCURVE",
"618 87 OFFCURVE",
"632 270 CURVE SMOOTH",
"666 705 LINE",
"612 705 LINE",
"578 263 LINE SMOOTH",
"566 116 OFFCURVE",
"486 42 OFFCURVE",
"343 42 CURVE SMOOTH",
"199 42 OFFCURVE",
"132 116 OFFCURVE",
"144 263 CURVE SMOOTH",
"178 705 LINE",
"124 705 LINE",
"90 270 LINE SMOOTH",
"76 87 OFFCURVE",
"161 -8 OFFCURVE",
"339 -8 CURVE SMOOTH"
);
}
);
};
layerId = "9E718F8A-2CEA-4931-B05D-987794BD97DA";
paths = (
{
closed = 1;
nodes = (
"518 -8 OFFCURVE",
"617 83 OFFCURVE",
"632 270 CURVE SMOOTH",
"666 705 LINE",
"612 705 LINE",
"578 263 LINE SMOOTH",
"567 114 OFFCURVE",
"489 42 OFFCURVE",
"343 42 CURVE SMOOTH",
"199 42 OFFCURVE",
"132 119 OFFCURVE",
"144 273 CURVE SMOOTH",
"178 705 LINE",
"124 705 LINE",
"90 270 LINE SMOOTH",
"76 94 OFFCURVE",
"160 -8 OFFCURVE",
"343 -8 CURVE SMOOTH"
);
}
);
width = 718;
}
);
leftKerningGroup = U;
rightKerningGroup = U;
unicode = 0055;
userData = {
anchors = (
);
b = {
};
com.typemytype.robofont.layerData = {
b = {
anchors = (
);
components = (
);
contours = (
);
lib = {
};
name = U;
unicodes = (
);
width = 1490;
};
};
components = (
);
contours = (
);
lib = {
};
name = U;
unicodes = (
);
width = 1513;
};
},
{
glyphname = Uhorn;
lastChange = "2017-11-16 15:27:43 +0000";
layers = (
{
anchors = (
{
name = bottom;
position = "{340, 0}";
},
{
name = top;
position = "{395, 705}";
}
);
background = {
paths = (
{
closed = 1;
nodes = (
"518 -8 OFFCURVE",
"617 83 OFFCURVE",
"632 270 CURVE SMOOTH",
"666 705 LINE",
"612 705 LINE",
"578 263 LINE SMOOTH",
"567 114 OFFCURVE",
"489 42 OFFCURVE",
"343 42 CURVE SMOOTH",
"199 42 OFFCURVE",
"132 119 OFFCURVE",
"144 273 CURVE SMOOTH",
"178 705 LINE",
"124 705 LINE",
"90 270 LINE SMOOTH",
"76 94 OFFCURVE",
"160 -8 OFFCURVE",
"343 -8 CURVE SMOOTH"
);
}
);
};
layerId = "9E718F8A-2CEA-4931-B05D-987794BD97DA";
paths = (
{
closed = 1;
nodes = (
"744 818 LINE SMOOTH",
"738 738 OFFCURVE",
"705 706 OFFCURVE",
"628 705 CURVE SMOOTH",
"612 705 LINE",
"578 263 LINE SMOOTH",
"567 114 OFFCURVE",
"489 42 OFFCURVE",
"343 42 CURVE SMOOTH",
"199 42 OFFCURVE",
"132 119 OFFCURVE",
"144 273 CURVE SMOOTH",
"178 705 LINE",
"124 705 LINE",
"90 270 LINE SMOOTH",
"76 94 OFFCURVE",
"160 -8 OFFCURVE",
"343 -8 CURVE SMOOTH",
"518 -8 OFFCURVE",
"617 83 OFFCURVE",
"632 270 CURVE SMOOTH",
"665 691 LINE",
"627 663 LINE",
"726 664 OFFCURVE",
"786 716 OFFCURVE",
"794 809 CURVE SMOOTH",
"795 831 LINE",
"745 831 LINE"
);
}
);
width = 718;
}
);
leftKerningGroup = U;
rightKerningGroup = Uhorn;
unicode = 01AF;
},
{
glyphname = Uogonek;
lastChange = "2017-11-16 15:27:43 +0000";
layers = (
{
background = {
paths = (
{
closed = 1;
nodes = (
"441 -191 OFFCURVE",
"472 -180 OFFCURVE",
"490 -168 CURVE",
"477 -129 LINE",
"455 -142 OFFCURVE",
"432 -148 OFFCURVE",
"416 -148 CURVE SMOOTH",
"377 -148 OFFCURVE",
"354 -127 OFFCURVE",
"354 -86 CURVE SMOOTH",
"354 -41 OFFCURVE",
"383 -5 OFFCURVE",
"453 10 CURVE",
"443 41 LINE",
"354 26 OFFCURVE",
"303 -26 OFFCURVE",
"303 -95 CURVE SMOOTH",
"303 -152 OFFCURVE",
"344 -191 OFFCURVE",
"410 -191 CURVE SMOOTH"
);
}
);
};
layerId = "9E718F8A-2CEA-4931-B05D-987794BD97DA";
paths = (
{
closed = 1;
nodes = (
"578 263 LINE SMOOTH",
"567 114 OFFCURVE",
"489 42 OFFCURVE",
"343 42 CURVE SMOOTH",
"199 42 OFFCURVE",
"132 119 OFFCURVE",
"144 273 CURVE SMOOTH",
"178 705 LINE",
"124 705 LINE",
"90 270 LINE SMOOTH",
"76 94 OFFCURVE",
"160 -8 OFFCURVE",
"339 -8 CURVE SMOOTH",
"392 -8 LINE",
"382 11 LINE",
"333 -9 OFFCURVE",
"303 -39 OFFCURVE",
"303 -95 CURVE SMOOTH",
"303 -152 OFFCURVE",
"344 -191 OFFCURVE",
"410 -191 CURVE SMOOTH",
"441 -191 OFFCURVE",
"472 -180 OFFCURVE",
"490 -168 CURVE",
"477 -129 LINE",
"455 -142 OFFCURVE",
"432 -148 OFFCURVE",
"416 -148 CURVE SMOOTH",
"377 -148 OFFCURVE",
"354 -127 OFFCURVE",
"354 -86 CURVE SMOOTH",
"354 -40 OFFCURVE",
"385 -13 OFFCURVE",
"447 5 CURVE SMOOTH",
"557 36 OFFCURVE",
"621 125 OFFCURVE",
"632 270 CURVE SMOOTH",
"666 705 LINE",
"612 705 LINE"
);
}
);
width = 718;
}
);
leftKerningGroup = U;
rightKerningGroup = U;
unicode = 0172;
},
{
glyphname = V;
lastChange = "2017-11-16 15:27:43 +0000";
layers = (
{
anchors = (
{
name = bottom;
position = "{320, 0}";
},
{
name = top;
position = "{374, 705}";
}
);
background = {
anchors = (
{
name = bottom;
position = "{320, 0}";
},
{
name = top;
position = "{374, 705}";
}
);
paths = (
{
closed = 1;
nodes = (
"344 0 LINE",
"704 705 LINE",
"648 705 LINE",
"309 37 LINE",
"336 37 LINE",
"101 705 LINE",
"45 705 LINE",
"294 0 LINE"
);
}
);
};
layerId = "9E718F8A-2CEA-4931-B05D-987794BD97DA";
paths = (
{
closed = 1;
nodes = (
"344 0 LINE",
"704 705 LINE",
"647 705 LINE",
"308 37 LINE",
"335 37 LINE",
"101 705 LINE",
"45 705 LINE",
"294 0 LINE"
);
}
);
width = 676;
}
);
leftKerningGroup = V;
rightKerningGroup = V;
unicode = 0056;
userData = {
anchors = (
);
b = {
};
com.typemytype.robofont.guides = (
);
com.typemytype.robofont.layerData = {
b = {
anchors = (
);
components = (
);
contours = (
{
points = (
{
segmentType = curve;
smooth = 1;
x = 644;
y = "-5";
},
{
smooth = 0;
x = 712;
y = "-5";
},
{
smooth = 0;
x = 764;
y = 38;
},
{
segmentType = curve;
smooth = 1;
x = 793;
y = 117;
},
{
segmentType = line;
smooth = 1;
x = 1243;
y = 1324;
},
{
smooth = 0;
x = 1247;
y = 1335;
},
{
smooth = 0;
x = 1248;
y = 1342;
},
{
segmentType = curve;
smooth = 1;
x = 1248;
y = 1351;
},
{
smooth = 0;
x = 1248;
y = 1395;
},
{
smooth = 0;
x = 1203;
y = 1427;
},
{
segmentType = curve;
smooth = 1;
x = 1160;
y = 1427;
},
{
smooth = 0;
x = 1125;
y = 1427;
},
{
smooth = 0;
x = 1090;
y = 1408;
},
{
segmentType = curve;
smooth = 1;
x = 1076;
y = 1369;
},
{
segmentType = line;
smooth = 0;
x = 651;
y = 192;
},
{
segmentType = line;
smooth = 0;
x = 650;
y = 190;
},
{
segmentType = line;
smooth = 1;
x = 214;
y = 1370;
},
{
smooth = 0;
x = 200;
y = 1407;
},
{
smooth = 0;
x = 170;
y = 1427;
},
{
segmentType = curve;
smooth = 1;
x = 135;
y = 1427;
},
{
smooth = 0;
x = 90;
y = 1427;
},
{
smooth = 0;
x = 43;
y = 1392;
},
{
segmentType = curve;
smooth = 1;
x = 43;
y = 1344;
},
{
smooth = 0;
x = 43;
y = 1336;
},
{
smooth = 0;
x = 44;
y = 1326;
},
{
segmentType = curve;
smooth = 0;
x = 48;
y = 1318;
},
{
segmentType = line;
smooth = 1;
x = 501;
y = 117;
},
{
smooth = 0;
x = 532;
y = 35;
},
{
smooth = 0;
x = 581;
y = "-5";
}
);
}
);
lib = {
};
name = V;
unicodes = (
);
width = 1289;
};
};
components = (
);
contours = (
);
lib = {
};
name = V;
unicodes = (
);
width = 1365;
};
},
{
glyphname = W;
lastChange = "2017-11-16 15:27:43 +0000";
layers = (
{
anchors = (
{
name = bottom;
position = "{529, 0}";
},
{
name = top;
position = "{583, 705}";
}
);
background = {
anchors = (
{
name = bottom;
position = "{529, 0}";
},
{
name = top;
position = "{583, 705}";
}
);
paths = (
{
closed = 1;
nodes = (
"313 0 LINE",
"590 649 LINE",
"569 649 LINE",
"744 0 LINE",
"792 0 LINE",
"1092 705 LINE",
"1038 705 LINE",
"755 35 LINE",
"785 35 LINE",
"606 704 LINE",
"562 705 LINE",
"278 35 LINE",
"307 35 LINE",
"129 705 LINE",
"75 705 LINE",
"265 0 LINE"
);
}
);
};
layerId = "9E718F8A-2CEA-4931-B05D-987794BD97DA";
paths = (
{
closed = 1;
nodes = (
"313 0 LINE",
"590 649 LINE",
"569 649 LINE",
"744 0 LINE",
"792 0 LINE",
"1092 705 LINE",
"1038 705 LINE",
"754 35 LINE",
"784 35 LINE",
"606 704 LINE",
"562 705 LINE",
"277 35 LINE",
"306 35 LINE",
"129 705 LINE",
"75 705 LINE",
"265 0 LINE"
);
}
);
width = 1095;
}
);
leftKerningGroup = V;
rightKerningGroup = V;
unicode = 0057;
userData = {
anchors = (
);
b = {
};
com.typemytype.robofont.layerData = {
b = {
anchors = (
);
components = (
);
contours = (
);
lib = {
};
name = W;
unicodes = (
);
width = 2126;
};
};
components = (
);
contours = (
);
lib = {
};
name = W;
unicodes = (
);
width = 2070;
};
},
{
glyphname = X;
lastChange = "2017-11-16 17:32:42 +0000";
layers = (
{
anchors = (
{
name = bottom;
position = "{299, 0}";
},
{
name = top;
position = "{354, 705}";
}
);
background = {
anchors = (
{
name = bottom;
position = "{299, 0}";
},
{
name = top;
position = "{354, 705}";
}
);
paths = (
{
closed = 1;
nodes = (
"324 320 LINE",
"359 361 LINE",
"639 705 LINE",
"576 705 LINE",
"332 403 LINE",
"297 362 LINE",
"0 0 LINE",
"65 0 LINE"
);
},
{
closed = 1;
nodes = (
"597 0 LINE",
"359 361 LINE",
"332 403 LINE",
"135 705 LINE",
"71 705 LINE",
"297 362 LINE",
"324 320 LINE",
"533 0 LINE"
);
}
);
};
layerId = "9E718F8A-2CEA-4931-B05D-987794BD97DA";
paths = (
{
closed = 1;
nodes = (
"325 320 LINE",
"358 361 LINE",
"638 705 LINE",
"572 705 LINE",
"330 404 LINE",
"296 363 LINE",
"0 0 LINE",
"65 0 LINE"
);
},
{
closed = 1;
nodes = (
"597 0 LINE",
"358 361 LINE",
"330 404 LINE",
"134 705 LINE",
"70 705 LINE",
"296 363 LINE",
"325 320 LINE",
"533 0 LINE"
);
}
);
width = 635;
}
);
leftKerningGroup = X;
rightKerningGroup = X;
unicode = 0058;
userData = {
anchors = (
);
b = {
};
com.typemytype.robofont.layerData = {
b = {
anchors = (
);
components = (
);
contours = (
{
points = (
{
segmentType = curve;
smooth = 1;
x = 151;
y = 0;
},
{
smooth = 0;
x = 176;
y = 0;
},
{
smooth = 0;
x = 201;
y = 12;
},
{
segmentType = curve;
smooth = 1;
x = 222;
y = 41;
},
{
segmentType = line;
smooth = 0;
x = 641;
y = 616;
},
{
segmentType = line;
smooth = 0;
x = 746;
y = 734;
},
{
segmentType = line;
smooth = 1;
x = 1175;
y = 1310;
},
{
smooth = 0;
x = 1186;
y = 1325;
},
{
smooth = 0;
x = 1190;
y = 1338;
},
{
segmentType = curve;
smooth = 1;
x = 1190;
y = 1353;
},
{
smooth = 0;
x = 1190;
y = 1393;
},
{
smooth = 0;
x = 1153;
y = 1426;
},
{
segmentType = curve;
smooth = 1;
x = 1110;
y = 1426;
},
{
smooth = 0;
x = 1083;
y = 1426;
},
{
smooth = 0;
x = 1058;
y = 1414;
},
{
segmentType = curve;
smooth = 1;
x = 1037;
y = 1385;
},
{
segmentType = line;
smooth = 0;
x = 648;
y = 844;
},
{
segmentType = line;
smooth = 0;
x = 542;
y = 732;
},
{
segmentType = line;
smooth = 1;
x = 84;
y = 121;
},
{
smooth = 0;
x = 73;
y = 106;
},
{
smooth = 0;
x = 68;
y = 91;
},
{
segmentType = curve;
smooth = 1;
x = 68;
y = 76;
},
{
smooth = 0;
x = 68;
y = 35;
},
{
smooth = 0;
x = 108;
y = 0;
}
);
},
{
points = (
{
segmentType = curve;
smooth = 1;
x = 1104;
y = 0;
},
{
smooth = 0;
x = 1151;
y = 0;
},
{
smooth = 0;
x = 1200;
y = 40;
},
{
segmentType = curve;
smooth = 1;
x = 1200;
y = 85;
},
{
smooth = 0;
x = 1200;
y = 98;
},
{
smooth = 0;
x = 1195;
y = 113;
},
{
segmentType = curve;
smooth = 0;
x = 1186;
y = 126;
},
{
segmentType = line;
smooth = 0;
x = 272;
y = 1385;
},
{
smooth = 0;
x = 252;
y = 1414;
},
{
smooth = 0;
x = 225;
y = 1426;
},
{
segmentType = curve;
smooth = 1;
x = 197;
y = 1426;
},
{
smooth = 0;
x = 149;
y = 1426;
},
{
smooth = 0;
x = 100;
y = 1388;
},
{
segmentType = curve;
smooth = 1;
x = 100;
y = 1343;
},
{
smooth = 0;
x = 100;
y = 1328;
},
{
smooth = 0;
x = 105;
y = 1315;
},
{
segmentType = curve;
smooth = 0;
x = 114;
y = 1303;
},
{
segmentType = line;
smooth = 0;
x = 1033;
y = 40;
},
{
smooth = 0;
x = 1052;
y = 13;
},
{
smooth = 0;
x = 1076;
y = 0;
}
);
}
);
lib = {
};
name = X;
unicodes = (
);
width = 1274;
};
};
components = (
);
contours = (
);
lib = {
};
name = X;
unicodes = (
);
width = 1322;
};
},
{
glyphname = Y;
lastChange = "2017-11-16 15:27:43 +0000";
layers = (
{
anchors = (
{
name = bottom;
position = "{274, 0}";
},
{
name = top;
position = "{329, 705}";
},
{
name = topleft;
position = "{55, 705}";
}
);
background = {
anchors = (
{
name = bottom;
position = "{274, 0}";
},
{
name = top;
position = "{329, 705}";
},
{
name = topleft;
position = "{55, 705}";
}
);
paths = (
{
closed = 1;
nodes = (
"301 0 LINE",
"330 367 LINE",
"314 322 LINE",
"627 705 LINE",
"566 705 LINE",
"296 374 LINE",
"313 374 LINE",
"94 705 LINE",
"31 705 LINE",
"285 322 LINE",
"276 367 LINE",
"247 0 LINE"
);
}
);
};
layerId = "9E718F8A-2CEA-4931-B05D-987794BD97DA";
paths = (
{
closed = 1;
nodes = (
"301 0 LINE",
"330 367 LINE",
"314 322 LINE",
"627 705 LINE",
"564 705 LINE",
"294 374 LINE",
"311 374 LINE",
"92 705 LINE",
"31 705 LINE",
"285 322 LINE",
"276 367 LINE",
"247 0 LINE"
);
}
);
width = 587;
}
);
leftKerningGroup = Y;
rightKerningGroup = Y;
unicode = 0059;
userData = {
anchors = (
);
b = {
};
com.typemytype.robofont.guides = (
);
com.typemytype.robofont.layerData = {
b = {
anchors = (
);
components = (
);
contours = (
{
points = (
{
segmentType = curve;
smooth = 1;
x = 641;
y = 0;
},
{
smooth = 0;
x = 685;
y = 0;
},
{
smooth = 0;
x = 730;
y = 29;
},
{
segmentType = curve;
smooth = 1;
x = 730;
y = 85;
},
{
segmentType = line;
smooth = 0;
x = 730;
y = 1285;
},
{
segmentType = line;
smooth = 1;
x = 1115;
y = 1285;
},
{
smooth = 0;
x = 1164;
y = 1285;
},
{
smooth = 0;
x = 1190;
y = 1319;
},
{
segmentType = curve;
smooth = 1;
x = 1190;
y = 1355;
},
{
smooth = 0;
x = 1190;
y = 1392;
},
{
smooth = 0;
x = 1166;
y = 1426;
},
{
segmentType = curve;
smooth = 1;
x = 1115;
y = 1426;
},
{
segmentType = line;
smooth = 1;
x = 160;
y = 1426;
},
{
smooth = 0;
x = 111;
y = 1426;
},
{
smooth = 0;
x = 86;
y = 1392;
},
{
segmentType = curve;
smooth = 1;
x = 86;
y = 1355;
},
{
smooth = 0;
x = 86;
y = 1319;
},
{
smooth = 0;
x = 111;
y = 1285;
},
{
segmentType = curve;
smooth = 1;
x = 160;
y = 1285;
},
{
segmentType = line;
smooth = 0;
x = 552;
y = 1285;
},
{
segmentType = line;
smooth = 1;
x = 552;
y = 85;
},
{
smooth = 0;
x = 552;
y = 29;
},
{
smooth = 0;
x = 596;
y = 0;
}
);
}
);
lib = {
};
name = Y;
unicodes = (
);
width = 1278;
};
};
components = (
);
contours = (
);
lib = {
};
name = Y;
unicodes = (
);
width = 1321;
};
},
{
glyphname = Z;
lastChange = "2017-11-16 15:27:43 +0000";
layers = (
{
anchors = (
{
name = bottom;
position = "{279, 0}";
},
{
name = top;
position = "{326, 705}";
}
);
background = {
anchors = (
{
name = bottom;
position = "{279, 0}";
},
{
name = top;
position = "{326, 705}";
}
);
paths = (
{
closed = 1;
nodes = (
"568 665 LINE",
"571 705 LINE",
"79 705 LINE",
"76 657 LINE",
"530 657 LINE",
"535 698 LINE",
"27 40 LINE",
"24 0 LINE",
"526 0 LINE",
"530 48 LINE",
"66 48 LINE",
"61 7 LINE"
);
}
);
};
layerId = "9E718F8A-2CEA-4931-B05D-987794BD97DA";
paths = (
{
closed = 1;
nodes = (
"526 0 LINE",
"530 48 LINE",
"66 48 LINE",
"64 7 LINE",
"568 665 LINE",
"571 705 LINE",
"80 705 LINE",
"76 657 LINE",
"530 657 LINE",
"532 698 LINE",
"27 40 LINE",
"24 0 LINE"
);
}
);
width = 582;
}
);
leftKerningGroup = Z;
rightKerningGroup = Z;
unicode = 005A;
userData = {
anchors = (
);
b = {
};
com.typemytype.robofont.layerData = {
b = {
anchors = (
);
components = (
);
contours = (
{
points = (
{
segmentType = curve;
smooth = 1;
x = 266;
y = 0;
},
{
segmentType = line;
smooth = 1;
x = 1035;
y = 0;
},
{
smooth = 0;
x = 1084;
y = 0;
},
{
smooth = 0;
x = 1108;
y = 34;
},
{
segmentType = curve;
smooth = 1;
x = 1108;
y = 71;
},
{
smooth = 0;
x = 1108;
y = 107;
},
{
smooth = 0;
x = 1084;
y = 141;
},
{
segmentType = curve;
smooth = 1;
x = 1035;
y = 141;
},
{
segmentType = line;
smooth = 0;
x = 356;
y = 141;
},
{
segmentType = line;
smooth = 0;
x = 356;
y = 665;
},
{
segmentType = line;
smooth = 1;
x = 975;
y = 665;
},
{
smooth = 0;
x = 1024;
y = 665;
},
{
smooth = 0;
x = 1049;
y = 698;
},
{
segmentType = curve;
smooth = 1;
x = 1049;
y = 734;
},
{
smooth = 0;
x = 1049;
y = 770;
},
{
smooth = 0;
x = 1026;
y = 803;
},
{
segmentType = curve;
smooth = 1;
x = 975;
y = 803;
},
{
segmentType = line;
smooth = 0;
x = 356;
y = 803;
},
{
segmentType = line;
smooth = 0;
x = 356;
y = 1285;
},
{
segmentType = line;
smooth = 1;
x = 1007;
y = 1285;
},
{
smooth = 0;
x = 1056;
y = 1285;
},
{
smooth = 0;
x = 1080;
y = 1319;
},
{
segmentType = curve;
smooth = 1;
x = 1080;
y = 1356;
},
{
smooth = 0;
x = 1080;
y = 1392;
},
{
smooth = 0;
x = 1056;
y = 1426;
},
{
segmentType = curve;
smooth = 1;
x = 1007;
y = 1426;
},
{
segmentType = line;
smooth = 1;
x = 261;
y = 1426;
},
{
smooth = 0;
x = 213;
y = 1426;
},
{
smooth = 0;
x = 178;
y = 1383;
},
{
segmentType = curve;
smooth = 1;
x = 178;
y = 1340;
},
{
segmentType = line;
smooth = 1;
x = 178;
y = 86;
},
{
smooth = 0;
x = 178;
y = 41;
},
{
smooth = 0;
x = 222;
y = 0;
}
);
}
);
lib = {
};
name = Z;
unicodes = (
);
width = 1165;
};
};
components = (
);
contours = (
);
lib = {
};
name = Z;
unicodes = (
);
width = 1222;
};
},
{
color = 5;
glyphname = O.001;
lastChange = "2017-11-16 17:16:30 +0000";
layers = (
{
background = {
anchors = (
{
name = bottom;
position = "{1158, 0}";
},
{
name = center;
position = "{1215, 353}";
},
{
name = ogonek;
position = "{1265, 10}";
},
{
name = top;
position = "{1268, 705}";
},
{
name = topleft;
position = "{917, 705}";
},
{
name = topright;
position = "{1298, 705}";
}
);
components = (
{
name = O;
transform = "{1, 0, 0, 1, -8, 0}";
}
);
};
layerId = "9E718F8A-2CEA-4931-B05D-987794BD97DA";
paths = (
{
closed = 1;
nodes = (
"149 -9 OFFCURVE",
"366 -9 CURVE SMOOTH",
"541 -9 OFFCURVE",
"663 117 OFFCURVE",
"687 328 CURVE SMOOTH",
"713 554 OFFCURVE",
"606 714 OFFCURVE",
"386 714 CURVE SMOOTH",
"211 714 OFFCURVE",
"92 588 OFFCURVE",
"68 377 CURVE SMOOTH",
"42 153 OFFCURVE"
);
},
{
closed = 1;
nodes = (
"102 174 OFFCURVE",
"124 373 CURVE SMOOTH",
"145 559 OFFCURVE",
"242 664 OFFCURVE",
"386 664 CURVE SMOOTH",
"570 664 OFFCURVE",
"653 533 OFFCURVE",
"631 333 CURVE SMOOTH",
"609 146 OFFCURVE",
"513 41 OFFCURVE",
"367 41 CURVE SMOOTH",
"185 41 OFFCURVE"
);
}
);
width = 755;
},
{
associatedMasterId = "9E718F8A-2CEA-4931-B05D-987794BD97DA";
background = {
anchors = (
{
name = bottom;
position = "{1158, 0}";
},
{
name = center;
position = "{1215, 353}";
},
{
name = ogonek;
position = "{1265, 10}";
},
{
name = top;
position = "{1268, 705}";
},
{
name = topleft;
position = "{917, 705}";
},
{
name = topright;
position = "{1298, 705}";
}
);
paths = (
{
closed = 1;
nodes = (
"567 -8 OFFCURVE",
"700 148 OFFCURVE",
"700 395 CURVE SMOOTH",
"700 593 OFFCURVE",
"591 713 OFFCURVE",
"411 713 CURVE SMOOTH",
"205 713 OFFCURVE",
"72 557 OFFCURVE",
"72 311 CURVE SMOOTH",
"72 112 OFFCURVE",
"181 -8 OFFCURVE",
"360 -8 CURVE SMOOTH"
);
},
{
closed = 1;
nodes = (
"214 42 OFFCURVE",
"129 142 OFFCURVE",
"129 315 CURVE SMOOTH",
"129 531 OFFCURVE",
"235 663 OFFCURVE",
"410 663 CURVE SMOOTH",
"558 663 OFFCURVE",
"643 563 OFFCURVE",
"643 390 CURVE SMOOTH",
"643 174 OFFCURVE",
"537 42 OFFCURVE",
"361 42 CURVE SMOOTH"
);
}
);
};
layerId = "9744183C-E12A-4098-A06C-14C3711EF6B7";
name = "1";
paths = (
{
closed = 1;
nodes = (
"570 -8 OFFCURVE",
"690 130 OFFCURVE",
"690 353 CURVE SMOOTH",
"690 576 OFFCURVE",
"571 713 OFFCURVE",
"377 713 CURVE SMOOTH",
"183 713 OFFCURVE",
"65 576 OFFCURVE",
"65 352 CURVE SMOOTH",
"65 130 OFFCURVE",
"185 -8 OFFCURVE",
"377 -8 CURVE SMOOTH"
);
},
{
closed = 1;
nodes = (
"216 42 OFFCURVE",
"122 156 OFFCURVE",
"122 353 CURVE SMOOTH",
"122 550 OFFCURVE",
"216 663 OFFCURVE",
"377 663 CURVE SMOOTH",
"540 663 OFFCURVE",
"633 551 OFFCURVE",
"633 353 CURVE SMOOTH",
"633 155 OFFCURVE",
"539 42 OFFCURVE",
"377 42 CURVE SMOOTH"
);
}
);
width = 755;
},
{
associatedMasterId = "9E718F8A-2CEA-4931-B05D-987794BD97DA";
background = {
anchors = (
{
name = bottom;
position = "{1158, 0}";
},
{
name = center;
position = "{1215, 353}";
},
{
name = ogonek;
position = "{1265, 10}";
},
{
name = top;
position = "{1268, 705}";
},
{
name = topleft;
position = "{917, 705}";
},
{
name = topright;
position = "{1298, 705}";
}
);
paths = (
{
closed = 1;
nodes = (
"567 -8 OFFCURVE",
"700 148 OFFCURVE",
"700 395 CURVE SMOOTH",
"700 593 OFFCURVE",
"591 713 OFFCURVE",
"411 713 CURVE SMOOTH",
"205 713 OFFCURVE",
"72 557 OFFCURVE",
"72 311 CURVE SMOOTH",
"72 112 OFFCURVE",
"181 -8 OFFCURVE",
"360 -8 CURVE SMOOTH"
);
},
{
closed = 1;
nodes = (
"214 42 OFFCURVE",
"129 142 OFFCURVE",
"129 315 CURVE SMOOTH",
"129 531 OFFCURVE",
"235 663 OFFCURVE",
"410 663 CURVE SMOOTH",
"558 663 OFFCURVE",
"643 563 OFFCURVE",
"643 390 CURVE SMOOTH",
"643 174 OFFCURVE",
"537 42 OFFCURVE",
"361 42 CURVE SMOOTH"
);
}
);
};
layerId = "D2ECB123-EC30-4254-B906-A2D69B90675F";
name = "2";
paths = (
{
closed = 1;
nodes = (
"738 545 OFFCURVE",
"600 665 OFFCURVE",
"377 665 CURVE SMOOTH",
"154 665 OFFCURVE",
"17 546 OFFCURVE",
"17 352 CURVE SMOOTH",
"17 158 OFFCURVE",
"154 40 OFFCURVE",
"378 40 CURVE SMOOTH",
"600 40 OFFCURVE",
"738 160 OFFCURVE",
"738 352 CURVE SMOOTH"
);
},
{
closed = 1;
nodes = (
"688 191 OFFCURVE",
"574 97 OFFCURVE",
"377 97 CURVE SMOOTH",
"180 97 OFFCURVE",
"67 191 OFFCURVE",
"67 352 CURVE SMOOTH",
"67 515 OFFCURVE",
"179 608 OFFCURVE",
"377 608 CURVE SMOOTH",
"575 608 OFFCURVE",
"688 514 OFFCURVE",
"688 352 CURVE SMOOTH"
);
}
);
width = 755;
},
{
associatedMasterId = "9E718F8A-2CEA-4931-B05D-987794BD97DA";
background = {
anchors = (
{
name = bottom;
position = "{1158, 0}";
},
{
name = center;
position = "{1215, 353}";
},
{
name = ogonek;
position = "{1265, 10}";
},
{
name = top;
position = "{1268, 705}";
},
{
name = topleft;
position = "{917, 705}";
},
{
name = topright;
position = "{1298, 705}";
}
);
paths = (
{
closed = 1;
nodes = (
"567 -8 OFFCURVE",
"700 148 OFFCURVE",
"700 395 CURVE SMOOTH",
"700 593 OFFCURVE",
"591 713 OFFCURVE",
"411 713 CURVE SMOOTH",
"205 713 OFFCURVE",
"72 557 OFFCURVE",
"72 311 CURVE SMOOTH",
"72 112 OFFCURVE",
"181 -8 OFFCURVE",
"360 -8 CURVE SMOOTH"
);
},
{
closed = 1;
nodes = (
"214 42 OFFCURVE",
"129 142 OFFCURVE",
"129 315 CURVE SMOOTH",
"129 531 OFFCURVE",
"235 663 OFFCURVE",
"410 663 CURVE SMOOTH",
"558 663 OFFCURVE",
"643 563 OFFCURVE",
"643 390 CURVE SMOOTH",
"643 174 OFFCURVE",
"537 42 OFFCURVE",
"361 42 CURVE SMOOTH"
);
}
);
};
layerId = "443F33BB-7208-4495-81AB-CF8380C23866";
name = "3";
paths = (
{
closed = 1;
nodes = (
"753 545 OFFCURVE",
"625 665 OFFCURVE",
"402 665 CURVE SMOOTH",
"179 665 OFFCURVE",
"32 546 OFFCURVE",
"17 352 CURVE SMOOTH",
"2 158 OFFCURVE",
"129 40 OFFCURVE",
"353 40 CURVE SMOOTH",
"575 40 OFFCURVE",
"723 160 OFFCURVE",
"738 352 CURVE SMOOTH"
);
},
{
closed = 1;
nodes = (
"675 191 OFFCURVE",
"554 97 OFFCURVE",
"357 97 CURVE SMOOTH",
"160 97 OFFCURVE",
"54 191 OFFCURVE",
"67 352 CURVE SMOOTH",
"80 515 OFFCURVE",
"199 608 OFFCURVE",
"397 608 CURVE SMOOTH",
"595 608 OFFCURVE",
"701 514 OFFCURVE",
"688 352 CURVE SMOOTH"
);
}
);
width = 755;
},
{
associatedMasterId = "9E718F8A-2CEA-4931-B05D-987794BD97DA";
background = {
anchors = (
{
name = bottom;
position = "{1158, 0}";
},
{
name = center;
position = "{1215, 353}";
},
{
name = ogonek;
position = "{1265, 10}";
},
{
name = top;
position = "{1268, 705}";
},
{
name = topleft;
position = "{917, 705}";
},
{
name = topright;
position = "{1298, 705}";
}
);
paths = (
{
closed = 1;
nodes = (
"567 -8 OFFCURVE",
"700 148 OFFCURVE",
"700 395 CURVE SMOOTH",
"700 593 OFFCURVE",
"591 713 OFFCURVE",
"411 713 CURVE SMOOTH",
"205 713 OFFCURVE",
"72 557 OFFCURVE",
"72 311 CURVE SMOOTH",
"72 112 OFFCURVE",
"181 -8 OFFCURVE",
"360 -8 CURVE SMOOTH"
);
},
{
closed = 1;
nodes = (
"214 42 OFFCURVE",
"129 142 OFFCURVE",
"129 315 CURVE SMOOTH",
"129 531 OFFCURVE",
"235 663 OFFCURVE",
"410 663 CURVE SMOOTH",
"558 663 OFFCURVE",
"643 563 OFFCURVE",
"643 390 CURVE SMOOTH",
"643 174 OFFCURVE",
"537 42 OFFCURVE",
"361 42 CURVE SMOOTH"
);
}
);
};
layerId = "911EE7BF-5D3F-4827-B53D-FE47634592C9";
name = "4";
paths = (
{
closed = 1;
nodes = (
"570 -23 OFFCURVE",
"690 105 OFFCURVE",
"690 328 CURVE SMOOTH",
"690 551 OFFCURVE",
"571 698 OFFCURVE",
"377 713 CURVE SMOOTH",
"183 729 OFFCURVE",
"65 601 OFFCURVE",
"65 377 CURVE SMOOTH",
"65 155 OFFCURVE",
"185 7 OFFCURVE",
"377 -8 CURVE SMOOTH"
);
},
{
closed = 1;
nodes = (
"216 55 OFFCURVE",
"122 176 OFFCURVE",
"122 373 CURVE SMOOTH",
"122 570 OFFCURVE",
"216 676 OFFCURVE",
"377 663 CURVE SMOOTH",
"540 650 OFFCURVE",
"633 531 OFFCURVE",
"633 333 CURVE SMOOTH",
"633 135 OFFCURVE",
"539 29 OFFCURVE",
"377 42 CURVE SMOOTH"
);
}
);
width = 755;
},
{
associatedMasterId = "9E718F8A-2CEA-4931-B05D-987794BD97DA";
background = {
anchors = (
{
name = bottom;
position = "{1158, 0}";
},
{
name = center;
position = "{1215, 353}";
},
{
name = ogonek;
position = "{1265, 10}";
},
{
name = top;
position = "{1268, 705}";
},
{
name = topleft;
position = "{917, 705}";
},
{
name = topright;
position = "{1298, 705}";
}
);
paths = (
{
closed = 1;
nodes = (
"559 -8 OFFCURVE",
"692 148 OFFCURVE",
"692 395 CURVE SMOOTH",
"692 593 OFFCURVE",
"583 713 OFFCURVE",
"403 713 CURVE SMOOTH",
"197 713 OFFCURVE",
"64 557 OFFCURVE",
"64 311 CURVE SMOOTH",
"64 112 OFFCURVE",
"173 -8 OFFCURVE",
"352 -8 CURVE SMOOTH"
);
},
{
closed = 1;
nodes = (
"206 42 OFFCURVE",
"121 142 OFFCURVE",
"121 315 CURVE SMOOTH",
"121 531 OFFCURVE",
"227 663 OFFCURVE",
"402 663 CURVE SMOOTH",
"550 663 OFFCURVE",
"635 563 OFFCURVE",
"635 390 CURVE SMOOTH",
"635 174 OFFCURVE",
"529 42 OFFCURVE",
"353 42 CURVE SMOOTH"
);
}
);
};
layerId = "F8A7DEDC-0962-4C98-BB60-331603CCC9A9";
name = "5";
paths = (
{
closed = 1;
nodes = (
"540 -23 OFFCURVE",
"670 105 OFFCURVE",
"688 328 CURVE SMOOTH",
"706 551 OFFCURVE",
"598 698 OFFCURVE",
"405 713 CURVE SMOOTH",
"213 729 OFFCURVE",
"85 601 OFFCURVE",
"67 377 CURVE SMOOTH",
"49 155 OFFCURVE",
"157 7 OFFCURVE",
"348 -8 CURVE SMOOTH"
);
},
{
closed = 1;
nodes = (
"192 55 OFFCURVE",
"108 176 OFFCURVE",
"123 373 CURVE SMOOTH",
"139 570 OFFCURVE",
"242 676 OFFCURVE",
"402 663 CURVE SMOOTH",
"563 650 OFFCURVE",
"647 531 OFFCURVE",
"631 333 CURVE SMOOTH",
"616 135 OFFCURVE",
"513 29 OFFCURVE",
"352 42 CURVE SMOOTH"
);
}
);
width = 755;
},
{
associatedMasterId = "9E718F8A-2CEA-4931-B05D-987794BD97DA";
background = {
anchors = (
{
name = bottom;
position = "{1158, 0}";
},
{
name = center;
position = "{1215, 353}";
},
{
name = ogonek;
position = "{1265, 10}";
},
{
name = top;
position = "{1268, 705}";
},
{
name = topleft;
position = "{917, 705}";
},
{
name = topright;
position = "{1298, 705}";
}
);
paths = (
{
closed = 1;
nodes = (
"559 -8 OFFCURVE",
"692 148 OFFCURVE",
"692 395 CURVE SMOOTH",
"692 593 OFFCURVE",
"583 713 OFFCURVE",
"403 713 CURVE SMOOTH",
"197 713 OFFCURVE",
"64 557 OFFCURVE",
"64 311 CURVE SMOOTH",
"64 112 OFFCURVE",
"173 -8 OFFCURVE",
"352 -8 CURVE SMOOTH"
);
},
{
closed = 1;
nodes = (
"206 42 OFFCURVE",
"121 142 OFFCURVE",
"121 315 CURVE SMOOTH",
"121 531 OFFCURVE",
"227 663 OFFCURVE",
"402 663 CURVE SMOOTH",
"550 663 OFFCURVE",
"635 563 OFFCURVE",
"635 390 CURVE SMOOTH",
"635 174 OFFCURVE",
"529 42 OFFCURVE",
"353 42 CURVE SMOOTH"
);
}
);
};
layerId = "329E661C-3624-4690-A13B-F44D9B63553A";
name = "6";
paths = (
{
closed = 1;
nodes = (
"527 -23 OFFCURVE",
"661 105 OFFCURVE",
"687 328 CURVE SMOOTH",
"713 551 OFFCURVE",
"610 698 OFFCURVE",
"418 713 CURVE SMOOTH",
"226 729 OFFCURVE",
"94 601 OFFCURVE",
"68 377 CURVE SMOOTH",
"42 155 OFFCURVE",
"145 7 OFFCURVE",
"335 -8 CURVE SMOOTH"
);
},
{
closed = 1;
nodes = (
"182 55 OFFCURVE",
"102 176 OFFCURVE",
"124 373 CURVE SMOOTH",
"147 570 OFFCURVE",
"253 676 OFFCURVE",
"413 663 CURVE SMOOTH",
"573 650 OFFCURVE",
"653 531 OFFCURVE",
"630 333 CURVE SMOOTH",
"608 135 OFFCURVE",
"502 29 OFFCURVE",
"341 42 CURVE SMOOTH"
);
}
);
width = 755;
},
{
associatedMasterId = "9E718F8A-2CEA-4931-B05D-987794BD97DA";
background = {
anchors = (
{
name = bottom;
position = "{1158, 0}";
},
{
name = center;
position = "{1215, 353}";
},
{
name = ogonek;
position = "{1265, 10}";
},
{
name = top;
position = "{1268, 705}";
},
{
name = topleft;
position = "{917, 705}";
},
{
name = topright;
position = "{1298, 705}";
}
);
components = (
{
name = O;
transform = "{1, 0, 0, 1, -8, 0}";
}
);
};
layerId = "2498CBE5-FEA8-48FD-9454-8B151B348A1C";
name = "7";
paths = (
{
closed = 1;
nodes = (
"149 -9 OFFCURVE",
"366 -9 CURVE SMOOTH",
"541 -9 OFFCURVE",
"663 117 OFFCURVE",
"687 328 CURVE SMOOTH",
"713 554 OFFCURVE",
"606 714 OFFCURVE",
"386 714 CURVE SMOOTH",
"211 714 OFFCURVE",
"92 588 OFFCURVE",
"68 377 CURVE SMOOTH",
"42 153 OFFCURVE"
);
},
{
closed = 1;
nodes = (
"102 175 OFFCURVE",
"124 373 CURVE SMOOTH",
"146 559 OFFCURVE",
"242 664 OFFCURVE",
"386 664 CURVE SMOOTH",
"570 664 OFFCURVE",
"653 533 OFFCURVE",
"631 333 CURVE SMOOTH",
"609 146 OFFCURVE",
"513 41 OFFCURVE",
"367 41 CURVE SMOOTH",
"185 41 OFFCURVE"
);
}
);
width = 755;
}
);
leftKerningGroup = O;
rightKerningGroup = O;
userData = {
anchors = (
);
b = {
};
com.typemytype.robofont.guides = (
);
com.typemytype.robofont.layerData = {
b = {
anchors = (
);
components = (
);
contours = (
);
lib = {
};
name = O;
unicodes = (
);
width = 1597;
};
};
components = (
);
contours = (
);
lib = {
};
name = O;
unicodes = (
);
width = 1604;
};
},
{
glyphname = O.002;
lastChange = "2017-11-18 21:25:55 +0000";
layers = (
{
anchors = (
{
name = bottom;
position = "{358, 0}";
},
{
name = center;
position = "{387, 353}";
},
{
name = ogonek;
position = "{464, 10}";
},
{
name = top;
position = "{413, 705}";
},
{
name = topleft;
position = "{62, 705}";
},
{
name = topright;
position = "{443, 705}";
}
);
background = {
paths = (
{
closed = 1;
nodes = (
"550 -23 OFFCURVE",
"680 105 OFFCURVE",
"698 328 CURVE SMOOTH",
"716 551 OFFCURVE",
"608 698 OFFCURVE",
"416 713 CURVE SMOOTH",
"223 728 OFFCURVE",
"95 601 OFFCURVE",
"77 377 CURVE SMOOTH",
"59 155 OFFCURVE",
"168 7 OFFCURVE",
"358 -8 CURVE SMOOTH"
);
},
{
closed = 1;
nodes = (
"202 55 OFFCURVE",
"118 176 OFFCURVE",
"134 373 CURVE SMOOTH",
"150 570 OFFCURVE",
"252 676 OFFCURVE",
"412 663 CURVE SMOOTH",
"574 650 OFFCURVE",
"657 531 OFFCURVE",
"641 333 CURVE SMOOTH",
"625 135 OFFCURVE",
"523 29 OFFCURVE",
"362 42 CURVE SMOOTH"
);
}
);
};
layerId = "9E718F8A-2CEA-4931-B05D-987794BD97DA";
paths = (
{
closed = 1;
nodes = (
"573 -8 OFFCURVE",
"699 145 OFFCURVE",
"699 383 CURVE SMOOTH",
"699 589 OFFCURVE",
"584 713 OFFCURVE",
"394 713 CURVE SMOOTH",
"199 713 OFFCURVE",
"73 560 OFFCURVE",
"73 321 CURVE SMOOTH",
"73 116 OFFCURVE",
"188 -8 OFFCURVE",
"377 -8 CURVE SMOOTH"
);
},
{
closed = 1;
nodes = (
"219 43 OFFCURVE",
"130 142 OFFCURVE",
"130 320 CURVE SMOOTH",
"130 534 OFFCURVE",
"230 662 OFFCURVE",
"394 662 CURVE SMOOTH",
"553 662 OFFCURVE",
"642 563 OFFCURVE",
"642 384 CURVE SMOOTH",
"642 171 OFFCURVE",
"542 43 OFFCURVE",
"378 43 CURVE SMOOTH"
);
}
);
width = 755;
}
);
leftKerningGroup = O;
rightKerningGroup = O;
userData = {
anchors = (
);
b = {
};
com.typemytype.robofont.guides = (
);
com.typemytype.robofont.layerData = {
b = {
anchors = (
);
components = (
);
contours = (
);
lib = {
};
name = O;
unicodes = (
);
width = 1597;
};
};
components = (
);
contours = (
);
lib = {
};
name = O;
unicodes = (
);
width = 1604;
};
},
{
glyphname = a;
lastChange = "2017-11-16 15:27:43 +0000";
layers = (
{
anchors = (
{
name = bottom;
position = "{250, 0}";
},
{
name = ogonek;
position = "{422, 10}";
},
{
name = top;
position = "{292, 490}";
}
);
background = {
anchors = (
{
name = bottom;
position = "{250, 0}";
},
{
name = ogonek;
position = "{422, 10}";
},
{
name = top;
position = "{292, 490}";
}
);
paths = (
{
closed = 1;
nodes = (
"297 -7 OFFCURVE",
"365 39 OFFCURVE",
"393 123 CURVE",
"379 100 LINE",
"371 0 LINE",
"425 0 LINE",
"450 314 LINE SMOOTH",
"459 436 OFFCURVE",
"407 497 OFFCURVE",
"292 497 CURVE SMOOTH",
"227 497 OFFCURVE",
"153 474 OFFCURVE",
"101 438 CURVE",
"120 395 LINE",
"180 432 OFFCURVE",
"232 448 OFFCURVE",
"292 448 CURVE SMOOTH",
"371 448 OFFCURVE",
"403 408 OFFCURVE",
"396 318 CURVE SMOOTH",
"387 202 LINE SMOOTH",
"380 109 OFFCURVE",
"311 42 OFFCURVE",
"222 42 CURVE SMOOTH",
"157 42 OFFCURVE",
"112 84 OFFCURVE",
"116 142 CURVE SMOOTH",
"122 216 OFFCURVE",
"177 236 OFFCURVE",
"371 236 CURVE SMOOTH",
"401 236 LINE",
"404 279 LINE",
"372 279 LINE SMOOTH",
"141 279 OFFCURVE",
"65 245 OFFCURVE",
"58 137 CURVE SMOOTH",
"52 55 OFFCURVE",
"121 -7 OFFCURVE",
"215 -7 CURVE SMOOTH"
);
}
);
};
layerId = "9E718F8A-2CEA-4931-B05D-987794BD97DA";
paths = (
{
closed = 1;
nodes = (
"301 -7 OFFCURVE",
"367 35 OFFCURVE",
"393 123 CURVE",
"379 100 LINE",
"371 0 LINE",
"425 0 LINE",
"450 314 LINE SMOOTH",
"459 433 OFFCURVE",
"407 497 OFFCURVE",
"288 497 CURVE SMOOTH",
"224 497 OFFCURVE",
"149 474 OFFCURVE",
"101 439 CURVE",
"120 395 LINE",
"178 432 OFFCURVE",
"233 448 OFFCURVE",
"287 448 CURVE SMOOTH",
"370 448 OFFCURVE",
"403 406 OFFCURVE",
"396 315 CURVE SMOOTH",
"387 199 LINE SMOOTH",
"380 106 OFFCURVE",
"314 42 OFFCURVE",
"230 42 CURVE SMOOTH",
"159 42 OFFCURVE",
"116 79 OFFCURVE",
"116 135 CURVE SMOOTH",
"116 205 OFFCURVE",
"155 236 OFFCURVE",
"361 236 CURVE SMOOTH",
"401 236 LINE",
"404 279 LINE",
"358 279 LINE SMOOTH",
"137 279 OFFCURVE",
"58 238 OFFCURVE",
"58 132 CURVE SMOOTH",
"58 50 OFFCURVE",
"126 -7 OFFCURVE",
"223 -7 CURVE SMOOTH"
);
}
);
width = 524;
}
);
leftKerningGroup = a;
rightKerningGroup = n;
unicode = 0061;
userData = {
anchors = (
);
b = {
};
com.typemytype.robofont.layerData = {
b = {
anchors = (
);
components = (
);
contours = (
);
lib = {
};
name = a;
unicodes = (
);
width = 1040;
};
};
components = (
);
contours = (
);
lib = {
};
name = a;
unicodes = (
);
width = 1101;
};
},
{
glyphname = aogonek;
lastChange = "2017-11-16 15:27:43 +0000";
layers = (
{
background = {
paths = (
{
closed = 1;
nodes = (
"410 -191 OFFCURVE",
"441 -180 OFFCURVE",
"459 -168 CURVE",
"446 -129 LINE",
"424 -142 OFFCURVE",
"401 -148 OFFCURVE",
"385 -148 CURVE SMOOTH",
"346 -148 OFFCURVE",
"323 -127 OFFCURVE",
"323 -86 CURVE SMOOTH",
"323 -41 OFFCURVE",
"352 -5 OFFCURVE",
"422 10 CURVE",
"412 41 LINE",
"323 26 OFFCURVE",
"272 -26 OFFCURVE",
"272 -95 CURVE SMOOTH",
"272 -152 OFFCURVE",
"313 -191 OFFCURVE",
"379 -191 CURVE SMOOTH"
);
}
);
};
layerId = "9E718F8A-2CEA-4931-B05D-987794BD97DA";
paths = (
{
closed = 1;
nodes = (
"410 -191 OFFCURVE",
"441 -180 OFFCURVE",
"459 -168 CURVE",
"446 -129 LINE",
"424 -142 OFFCURVE",
"401 -148 OFFCURVE",
"385 -148 CURVE SMOOTH",
"346 -148 OFFCURVE",
"323 -127 OFFCURVE",
"323 -86 CURVE SMOOTH",
"323 -32 OFFCURVE",
"367 0 OFFCURVE",
"418 0 CURVE SMOOTH",
"425 0 LINE",
"450 314 LINE SMOOTH",
"459 433 OFFCURVE",
"407 497 OFFCURVE",
"288 497 CURVE SMOOTH",
"224 497 OFFCURVE",
"149 474 OFFCURVE",
"101 439 CURVE",
"120 395 LINE",
"178 432 OFFCURVE",
"233 448 OFFCURVE",
"287 448 CURVE SMOOTH",
"370 448 OFFCURVE",
"403 406 OFFCURVE",
"396 315 CURVE SMOOTH",
"387 199 LINE SMOOTH",
"380 106 OFFCURVE",
"314 42 OFFCURVE",
"230 42 CURVE SMOOTH",
"159 42 OFFCURVE",
"116 79 OFFCURVE",
"116 135 CURVE SMOOTH",
"116 205 OFFCURVE",
"155 236 OFFCURVE",
"361 236 CURVE SMOOTH",
"401 236 LINE",
"404 279 LINE",
"358 279 LINE SMOOTH",
"137 279 OFFCURVE",
"58 238 OFFCURVE",
"58 132 CURVE SMOOTH",
"58 50 OFFCURVE",
"126 -7 OFFCURVE",
"223 -7 CURVE SMOOTH",
"301 -7 OFFCURVE",
"367 35 OFFCURVE",
"393 123 CURVE",
"379 100 LINE",
"371 0 LINE",
"388 0 LINE",
"412 36 LINE",
"323 25 OFFCURVE",
"272 -27 OFFCURVE",
"272 -95 CURVE SMOOTH",
"272 -152 OFFCURVE",
"313 -191 OFFCURVE",
"379 -191 CURVE SMOOTH"
);
}
);
width = 524;
}
);
leftKerningGroup = a;
rightKerningGroup = n;
unicode = 0105;
userData = {
com.typemytype.robofont.layerData = {
b = {
anchors = (
);
components = (
);
contours = (
);
lib = {
};
name = aogonek;
unicodes = (
);
width = 1040;
};
};
};
},
{
glyphname = aringacute;
lastChange = "2017-11-16 15:27:43 +0000";
layers = (
{
background = {
paths = (
{
closed = 1;
nodes = (
"297 -7 OFFCURVE",
"365 39 OFFCURVE",
"393 123 CURVE",
"379 100 LINE",
"371 0 LINE",
"425 0 LINE",
"450 314 LINE SMOOTH",
"459 436 OFFCURVE",
"407 497 OFFCURVE",
"292 497 CURVE SMOOTH",
"227 497 OFFCURVE",
"153 474 OFFCURVE",
"101 438 CURVE",
"120 395 LINE",
"180 432 OFFCURVE",
"232 448 OFFCURVE",
"292 448 CURVE SMOOTH",
"371 448 OFFCURVE",
"403 408 OFFCURVE",
"396 318 CURVE SMOOTH",
"387 202 LINE SMOOTH",
"380 109 OFFCURVE",
"311 42 OFFCURVE",
"222 42 CURVE SMOOTH",
"157 42 OFFCURVE",
"112 84 OFFCURVE",
"116 142 CURVE SMOOTH",
"122 216 OFFCURVE",
"177 236 OFFCURVE",
"371 236 CURVE SMOOTH",
"401 236 LINE",
"404 279 LINE",
"372 279 LINE SMOOTH",
"141 279 OFFCURVE",
"65 245 OFFCURVE",
"58 137 CURVE SMOOTH",
"52 55 OFFCURVE",
"121 -7 OFFCURVE",
"215 -7 CURVE SMOOTH"
);
},
{
closed = 1;
nodes = (
"351 555 OFFCURVE",
"398 597 OFFCURVE",
"402 651 CURVE SMOOTH",
"406 705 OFFCURVE",
"366 747 OFFCURVE",
"312 747 CURVE SMOOTH",
"258 747 OFFCURVE",
"210 705 OFFCURVE",
"206 651 CURVE SMOOTH",
"202 597 OFFCURVE",
"243 555 OFFCURVE",
"297 555 CURVE SMOOTH"
);
},
{
closed = 1;
nodes = (
"271 599 OFFCURVE",
"252 622 OFFCURVE",
"254 651 CURVE SMOOTH",
"257 680 OFFCURVE",
"279 703 OFFCURVE",
"308 703 CURVE SMOOTH",
"337 703 OFFCURVE",
"357 680 OFFCURVE",
"354 651 CURVE SMOOTH",
"352 622 OFFCURVE",
"329 599 OFFCURVE",
"300 599 CURVE SMOOTH"
);
},
{
closed = 1;
nodes = (
"384 698 LINE",
"523 848 LINE",
"454 848 LINE",
"342 698 LINE"
);
}
);
};
layerId = "9E718F8A-2CEA-4931-B05D-987794BD97DA";
paths = (
{
closed = 1;
nodes = (
"301 -7 OFFCURVE",
"367 35 OFFCURVE",
"393 123 CURVE",
"379 100 LINE",
"371 0 LINE",
"425 0 LINE",
"450 314 LINE SMOOTH",
"459 433 OFFCURVE",
"407 497 OFFCURVE",
"288 497 CURVE SMOOTH",
"224 497 OFFCURVE",
"149 474 OFFCURVE",
"101 439 CURVE",
"120 395 LINE",
"178 432 OFFCURVE",
"233 448 OFFCURVE",
"287 448 CURVE SMOOTH",
"370 448 OFFCURVE",
"403 406 OFFCURVE",
"396 315 CURVE SMOOTH",
"387 199 LINE SMOOTH",
"380 106 OFFCURVE",
"314 42 OFFCURVE",
"230 42 CURVE SMOOTH",
"159 42 OFFCURVE",
"116 79 OFFCURVE",
"116 135 CURVE SMOOTH",
"116 205 OFFCURVE",
"155 236 OFFCURVE",
"361 236 CURVE SMOOTH",
"401 236 LINE",
"404 279 LINE",
"358 279 LINE SMOOTH",
"137 279 OFFCURVE",
"58 238 OFFCURVE",
"58 132 CURVE SMOOTH",
"58 50 OFFCURVE",
"126 -7 OFFCURVE",
"223 -7 CURVE SMOOTH"
);
},
{
closed = 1;
nodes = (
"358 555 OFFCURVE",
"402 597 OFFCURVE",
"402 651 CURVE SMOOTH",
"402 705 OFFCURVE",
"358 747 OFFCURVE",
"304 747 CURVE SMOOTH",
"250 747 OFFCURVE",
"206 705 OFFCURVE",
"206 651 CURVE SMOOTH",
"206 597 OFFCURVE",
"250 555 OFFCURVE",
"304 555 CURVE SMOOTH"
);
},
{
closed = 1;
nodes = (
"275 599 OFFCURVE",
"254 622 OFFCURVE",
"254 651 CURVE SMOOTH",
"254 680 OFFCURVE",
"275 703 OFFCURVE",
"304 703 CURVE SMOOTH",
"333 703 OFFCURVE",
"354 680 OFFCURVE",
"354 651 CURVE SMOOTH",
"354 622 OFFCURVE",
"333 599 OFFCURVE",
"304 599 CURVE SMOOTH"
);
},
{
closed = 1;
nodes = (
"384 698 LINE",
"525 848 LINE",
"451 848 LINE",
"342 698 LINE"
);
}
);
width = 524;
}
);
leftKerningGroup = a;
rightKerningGroup = n;
unicode = 01FB;
},
{
glyphname = ae;
lastChange = "2017-11-16 15:27:43 +0000";
layers = (
{
anchors = (
{
name = bottom;
position = "{403, 0}";
},
{
name = top;
position = "{442, 490}";
}
);
background = {
anchors = (
{
name = bottom;
position = "{1303, 0}";
},
{
name = top;
position = "{1342, 490}";
}
);
paths = (
{
closed = 1;
nodes = (
"771 101 LINE",
"722 60 OFFCURVE",
"663 42 OFFCURVE",
"606 42 CURVE SMOOTH",
"497 42 OFFCURVE",
"440 112 OFFCURVE",
"440 224 CURVE SMOOTH",
"440 365 OFFCURVE",
"504 451 OFFCURVE",
"623 451 CURVE SMOOTH",
"717 451 OFFCURVE",
"776 387 OFFCURVE",
"762 256 CURVE",
"784 279 LINE",
"434 279 LINE",
"432 236 LINE",
"812 236 LINE",
"830 413 OFFCURVE",
"750 497 OFFCURVE",
"620 497 CURVE SMOOTH",
"474 497 OFFCURVE",
"383 388 OFFCURVE",
"383 227 CURVE SMOOTH",
"383 85 OFFCURVE",
"467 -7 OFFCURVE",
"605 -7 CURVE SMOOTH",
"673 -7 OFFCURVE",
"750 18 OFFCURVE",
"790 58 CURVE"
);
}
);
};
layerId = "9E718F8A-2CEA-4931-B05D-987794BD97DA";
paths = (
{
closed = 1;
nodes = (
"326 -7 OFFCURVE",
"405 62 OFFCURVE",
"425 171 CURVE",
"441 171 LINE",
"454 314 LINE",
"463 433 OFFCURVE",
"411 497 OFFCURVE",
"290 497 CURVE SMOOTH",
"224 497 OFFCURVE",
"149 474 OFFCURVE",
"101 439 CURVE",
"120 395 LINE",
"178 432 OFFCURVE",
"233 448 OFFCURVE",
"290 448 CURVE SMOOTH",
"374 448 OFFCURVE",
"408 406 OFFCURVE",
"400 315 CURVE SMOOTH",
"391 208 LINE SMOOTH",
"383 110 OFFCURVE",
"315 42 OFFCURVE",
"227 42 CURVE SMOOTH",
"159 42 OFFCURVE",
"116 79 OFFCURVE",
"116 135 CURVE SMOOTH",
"116 205 OFFCURVE",
"155 236 OFFCURVE",
"361 236 CURVE SMOOTH",
"405 236 LINE",
"408 279 LINE",
"358 279 LINE SMOOTH",
"137 279 OFFCURVE",
"58 238 OFFCURVE",
"58 132 CURVE SMOOTH",
"58 50 OFFCURVE",
"126 -7 OFFCURVE",
"222 -7 CURVE SMOOTH"
);
},
{
closed = 1;
nodes = (
"674 -7 OFFCURVE",
"751 18 OFFCURVE",
"791 58 CURVE",
"772 101 LINE",
"723 60 OFFCURVE",
"664 42 OFFCURVE",
"615 42 CURVE SMOOTH",
"505 42 OFFCURVE",
"448 112 OFFCURVE",
"448 224 CURVE SMOOTH",
"448 365 OFFCURVE",
"512 451 OFFCURVE",
"628 451 CURVE SMOOTH",
"718 451 OFFCURVE",
"777 387 OFFCURVE",
"763 256 CURVE",
"785 279 LINE",
"432 279 LINE",
"430 236 LINE",
"813 236 LINE",
"831 413 OFFCURVE",
"751 497 OFFCURVE",
"625 497 CURVE SMOOTH",
"482 497 OFFCURVE",
"400 388 OFFCURVE",
"400 227 CURVE SMOOTH",
"400 85 OFFCURVE",
"475 -7 OFFCURVE",
"615 -7 CURVE SMOOTH"
);
}
);
width = 859;
}
);
leftKerningGroup = a;
rightKerningGroup = e;
unicode = 00E6;
userData = {
com.typemytype.robofont.layerData = {
b = {
anchors = (
);
components = (
);
contours = (
);
lib = {
};
name = ae;
unicodes = (
);
width = 1734;
};
};
};
},
{
glyphname = b;
lastChange = "2017-11-16 15:27:43 +0000";
layers = (
{
anchors = (
{
name = bottom;
position = "{282, 0}";
},
{
name = top;
position = "{324, 490}";
}
);
background = {
anchors = (
{
name = bottom;
position = "{282, 0}";
},
{
name = top;
position = "{324, 490}";
}
);
paths = (
{
closed = 1;
nodes = (
"717 0 LINE",
"728 135 LINE",
"716 127 LINE",
"731 41 OFFCURVE",
"792 -7 OFFCURVE",
"884 -7 CURVE SMOOTH",
"1013 -7 OFFCURVE",
"1108 94 OFFCURVE",
"1120 247 CURVE SMOOTH",
"1132 399 OFFCURVE",
"1054 497 OFFCURVE",
"924 497 CURVE SMOOTH",
"832 497 OFFCURVE",
"763 449 OFFCURVE",
"735 363 CURVE",
"745 355 LINE",
"772 705 LINE",
"718 705 LINE",
"663 0 LINE"
);
},
{
closed = 1;
nodes = (
"778 42 OFFCURVE",
"726 116 OFFCURVE",
"736 245 CURVE SMOOTH",
"746 374 OFFCURVE",
"810 448 OFFCURVE",
"914 448 CURVE SMOOTH",
"1018 448 OFFCURVE",
"1074 375 OFFCURVE",
"1063 247 CURVE SMOOTH",
"1052 118 OFFCURVE",
"986 42 OFFCURVE",
"883 42 CURVE SMOOTH"
);
},
{
closed = 1;
nodes = (
"429 -7 OFFCURVE",
"521 100 OFFCURVE",
"521 262 CURVE SMOOTH",
"521 405 OFFCURVE",
"437 497 OFFCURVE",
"306 497 CURVE SMOOTH",
"169 497 OFFCURVE",
"78 389 OFFCURVE",
"78 227 CURVE SMOOTH",
"78 85 OFFCURVE",
"162 -7 OFFCURVE",
"292 -7 CURVE SMOOTH"
);
},
{
closed = 1;
nodes = (
"192 42 OFFCURVE",
"135 106 OFFCURVE",
"135 224 CURVE SMOOTH",
"135 363 OFFCURVE",
"199 448 OFFCURVE",
"305 448 CURVE SMOOTH",
"405 448 OFFCURVE",
"464 381 OFFCURVE",
"464 265 CURVE SMOOTH",
"464 126 OFFCURVE",
"400 42 OFFCURVE",
"295 42 CURVE SMOOTH"
);
}
);
};
layerId = "9E718F8A-2CEA-4931-B05D-987794BD97DA";
paths = (
{
closed = 1;
nodes = (
"429 -7 OFFCURVE",
"521 100 OFFCURVE",
"521 262 CURVE SMOOTH",
"521 405 OFFCURVE",
"437 497 OFFCURVE",
"314 497 CURVE SMOOTH",
"233 497 OFFCURVE",
"158 450 OFFCURVE",
"135 373 CURVE",
"145 355 LINE",
"173 705 LINE",
"119 705 LINE",
"63 0 LINE",
"117 0 LINE",
"128 135 LINE",
"114 127 LINE",
"133 43 OFFCURVE",
"202 -7 OFFCURVE",
"294 -7 CURVE SMOOTH"
);
},
{
closed = 1;
nodes = (
"192 42 OFFCURVE",
"135 106 OFFCURVE",
"135 224 CURVE SMOOTH",
"135 363 OFFCURVE",
"199 448 OFFCURVE",
"305 448 CURVE SMOOTH",
"405 448 OFFCURVE",
"464 381 OFFCURVE",
"464 265 CURVE SMOOTH",
"464 126 OFFCURVE",
"400 42 OFFCURVE",
"295 42 CURVE SMOOTH"
);
}
);
width = 570;
}
);
leftKerningGroup = h;
rightKerningGroup = o;
unicode = 0062;
userData = {
anchors = (
);
b = {
};
com.typemytype.robofont.layerData = {
b = {
anchors = (
);
components = (
);
contours = (
{
points = (
{
segmentType = curve;
smooth = 1;
x = 238;
y = 1425;
},
{
smooth = 0;
x = 198;
y = 1425;
},
{
smooth = 0;
x = 158;
y = 1400;
},
{
segmentType = curve;
smooth = 1;
x = 158;
y = 1351;
},
{
segmentType = line;
smooth = 1;
x = 158;
y = 76;
},
{
smooth = 0;
x = 158;
y = 27;
},
{
smooth = 0;
x = 197;
y = 3;
},
{
segmentType = curve;
smooth = 1;
x = 237;
y = 3;
},
{
smooth = 0;
x = 297;
y = 3;
},
{
smooth = 0;
x = 318;
y = 38;
},
{
segmentType = curve;
smooth = 1;
x = 318;
y = 76;
},
{
segmentType = line;
smooth = 0;
x = 318;
y = 183;
},
{
smooth = 0;
x = 384;
y = 46;
},
{
smooth = 0;
x = 516;
y = "-20";
},
{
segmentType = curve;
smooth = 1;
x = 666;
y = "-20";
},
{
smooth = 0;
x = 957;
y = "-20";
},
{
smooth = 0;
x = 1095;
y = 225;
},
{
segmentType = curve;
smooth = 1;
x = 1095;
y = 502;
},
{
smooth = 0;
x = 1095;
y = 777;
},
{
smooth = 0;
x = 939;
y = 1013;
},
{
segmentType = curve;
smooth = 1;
x = 650;
y = 1013;
},
{
smooth = 0;
x = 503;
y = 1013;
},
{
smooth = 0;
x = 376;
y = 942;
},
{
segmentType = curve;
smooth = 0;
x = 318;
y = 814;
},
{
segmentType = line;
smooth = 1;
x = 318;
y = 1351;
},
{
smooth = 0;
x = 318;
y = 1400;
},
{
smooth = 0;
x = 278;
y = 1425;
}
);
},
{
points = (
{
segmentType = curve;
smooth = 1;
x = 632;
y = 903;
},
{
smooth = 0;
x = 859;
y = 903;
},
{
smooth = 0;
x = 935;
y = 685;
},
{
segmentType = curve;
smooth = 1;
x = 935;
y = 496;
},
{
smooth = 0;
x = 935;
y = 316;
},
{
smooth = 0;
x = 869;
y = 93;
},
{
segmentType = curve;
smooth = 0;
x = 645;
y = 90;
},
{
smooth = 0;
x = 395;
y = 90;
},
{
smooth = 0;
x = 319;
y = 279;
},
{
segmentType = curve;
smooth = 1;
x = 319;
y = 501;
},
{
smooth = 0;
x = 319;
y = 701;
},
{
smooth = 0;
x = 407;
y = 903;
}
);
}
);
lib = {
};
name = b;
unicodes = (
);
width = 1181;
};
};
components = (
);
contours = (
);
lib = {
};
name = b;
unicodes = (
);
width = 1203;
};
},
{
glyphname = c;
lastChange = "2017-11-16 15:27:43 +0000";
layers = (
{
anchors = (
{
name = bottom;
position = "{254, 0}";
},
{
name = top;
position = "{295, 490}";
}
);
background = {
anchors = (
{
name = bottom;
position = "{254, 0}";
},
{
name = top;
position = "{334, 490}";
}
);
paths = (
{
closed = 1;
nodes = (
"401 -7 OFFCURVE",
"493 100 OFFCURVE",
"493 262 CURVE SMOOTH",
"493 405 OFFCURVE",
"409 497 OFFCURVE",
"278 497 CURVE SMOOTH",
"141 497 OFFCURVE",
"50 389 OFFCURVE",
"50 227 CURVE SMOOTH",
"50 85 OFFCURVE",
"134 -7 OFFCURVE",
"264 -7 CURVE SMOOTH"
);
},
{
closed = 1;
nodes = (
"164 42 OFFCURVE",
"107 106 OFFCURVE",
"107 224 CURVE SMOOTH",
"107 363 OFFCURVE",
"171 448 OFFCURVE",
"277 448 CURVE SMOOTH",
"377 448 OFFCURVE",
"436 381 OFFCURVE",
"436 265 CURVE SMOOTH",
"436 126 OFFCURVE",
"372 42 OFFCURVE",
"267 42 CURVE SMOOTH"
);
}
);
};
layerId = "9E718F8A-2CEA-4931-B05D-987794BD97DA";
paths = (
{
closed = 1;
nodes = (
"330 -7 OFFCURVE",
"391 18 OFFCURVE",
"431 58 CURVE",
"412 101 LINE",
"363 60 OFFCURVE",
"323 42 OFFCURVE",
"270 42 CURVE SMOOTH",
"164 42 OFFCURVE",
"107 112 OFFCURVE",
"107 224 CURVE SMOOTH",
"107 363 OFFCURVE",
"171 448 OFFCURVE",
"286 448 CURVE SMOOTH",
"341 448 OFFCURVE",
"384 430 OFFCURVE",
"435 389 CURVE",
"460 432 LINE",
"418 472 OFFCURVE",
"357 497 OFFCURVE",
"288 497 CURVE SMOOTH",
"141 497 OFFCURVE",
"50 389 OFFCURVE",
"50 227 CURVE SMOOTH",
"50 85 OFFCURVE",
"134 -7 OFFCURVE",
"264 -7 CURVE SMOOTH"
);
}
);
width = 473;
}
);
leftKerningGroup = o;
rightKerningGroup = c;
unicode = 0063;
userData = {
anchors = (
);
b = {
};
com.typemytype.robofont.layerData = {
b = {
anchors = (
);
components = (
);
contours = (
);
lib = {
};
name = c;
unicodes = (
);
width = 956.14099;
};
};
components = (
);
contours = (
);
lib = {
};
name = c;
unicodes = (
);
width = 992;
};
},
{
glyphname = d;
lastChange = "2017-11-16 15:27:43 +0000";
layers = (
{
anchors = (
{
name = bottom;
position = "{268, 0}";
},
{
name = center;
position = "{287, 245}";
},
{
name = top;
position = "{307, 490}";
},
{
name = topright;
position = "{564, 705}";
}
);
background = {
anchors = (
{
name = bottom;
position = "{268, 0}";
},
{
name = center;
position = "{287, 245}";
},
{
name = top;
position = "{307, 490}";
},
{
name = topright;
position = "{564, 705}";
}
);
paths = (
{
closed = 1;
nodes = (
"1124 705 LINE",
"1070 705 LINE",
"1043 355 LINE",
"1055 363 LINE",
"1039 449 OFFCURVE",
"978 497 OFFCURVE",
"886 497 CURVE SMOOTH",
"756 497 OFFCURVE",
"662 399 OFFCURVE",
"650 247 CURVE SMOOTH",
"638 94 OFFCURVE",
"717 -7 OFFCURVE",
"846 -7 CURVE SMOOTH",
"938 -7 OFFCURVE",
"1007 41 OFFCURVE",
"1036 127 CURVE",
"1026 135 LINE",
"1015 0 LINE",
"1069 0 LINE"
);
},
{
closed = 1;
nodes = (
"752 42 OFFCURVE",
"697 118 OFFCURVE",
"707 247 CURVE SMOOTH",
"717 375 OFFCURVE",
"784 448 OFFCURVE",
"888 448 CURVE SMOOTH",
"992 448 OFFCURVE",
"1044 374 OFFCURVE",
"1034 245 CURVE SMOOTH",
"1024 116 OFFCURVE",
"960 42 OFFCURVE",
"855 42 CURVE SMOOTH"
);
},
{
closed = 1;
nodes = (
"454 490 LINE",
"443 355 LINE",
"457 363 LINE",
"438 447 OFFCURVE",
"369 497 OFFCURVE",
"277 497 CURVE SMOOTH",
"142 497 OFFCURVE",
"50 390 OFFCURVE",
"50 228 CURVE SMOOTH",
"50 85 OFFCURVE",
"134 -7 OFFCURVE",
"257 -7 CURVE SMOOTH",
"338 -7 OFFCURVE",
"413 40 OFFCURVE",
"436 117 CURVE",
"426 135 LINE",
"399 -215 LINE",
"453 -215 LINE",
"508 490 LINE"
);
},
{
closed = 1;
nodes = (
"379 448 OFFCURVE",
"436 384 OFFCURVE",
"436 266 CURVE SMOOTH",
"436 127 OFFCURVE",
"372 42 OFFCURVE",
"266 42 CURVE SMOOTH",
"166 42 OFFCURVE",
"107 109 OFFCURVE",
"107 225 CURVE SMOOTH",
"107 364 OFFCURVE",
"171 448 OFFCURVE",
"276 448 CURVE SMOOTH"
);
}
);
};
layerId = "9E718F8A-2CEA-4931-B05D-987794BD97DA";
paths = (
{
closed = 1;
nodes = (
"338 -7 OFFCURVE",
"413 40 OFFCURVE",
"436 117 CURVE",
"426 135 LINE",
"415 0 LINE",
"469 0 LINE",
"524 705 LINE",
"470 705 LINE",
"443 355 LINE",
"457 363 LINE",
"438 447 OFFCURVE",
"369 497 OFFCURVE",
"277 497 CURVE SMOOTH",
"142 497 OFFCURVE",
"50 390 OFFCURVE",
"50 227 CURVE SMOOTH",
"50 85 OFFCURVE",
"134 -7 OFFCURVE",
"257 -7 CURVE SMOOTH"
);
},
{
closed = 1;
nodes = (
"166 42 OFFCURVE",
"107 109 OFFCURVE",
"107 227 CURVE SMOOTH",
"107 364 OFFCURVE",
"171 448 OFFCURVE",
"276 448 CURVE SMOOTH",
"379 448 OFFCURVE",
"436 384 OFFCURVE",
"436 266 CURVE SMOOTH",
"436 127 OFFCURVE",
"372 42 OFFCURVE",
"266 42 CURVE SMOOTH"
);
}
);
width = 570;
}
);
leftKerningGroup = o;
rightKerningGroup = l;
unicode = 0064;
userData = {
anchors = (
);
b = {
};
com.typemytype.robofont.layerData = {
b = {
anchors = (
);
components = (
);
contours = (
);
lib = {
};
name = d;
unicodes = (
);
width = 1181;
};
};
components = (
);
contours = (
);
lib = {
};
name = d;
unicodes = (
);
width = 1207;
};
},
{
glyphname = eth;
lastChange = "2017-11-16 15:27:43 +0000";
layers = (
{
background = {
paths = (
{
closed = 1;
nodes = (
"994 -7 OFFCURVE",
"1079 92 OFFCURVE",
"1094 284 CURVE SMOOTH",
"1111 502 OFFCURVE",
"1013 648 OFFCURVE",
"808 711 CURVE",
"790 668 LINE",
"970 613 OFFCURVE",
"1059 481 OFFCURVE",
"1042 291 CURVE",
"1068 289 LINE",
"1054 397 OFFCURVE",
"991 455 OFFCURVE",
"884 455 CURVE SMOOTH",
"751 455 OFFCURVE",
"656 364 OFFCURVE",
"645 224 CURVE SMOOTH",
"634 84 OFFCURVE",
"713 -7 OFFCURVE",
"846 -7 CURVE SMOOTH"
);
},
{
closed = 1;
nodes = (
"746 42 OFFCURVE",
"692 107 OFFCURVE",
"702 224 CURVE SMOOTH",
"712 339 OFFCURVE",
"777 406 OFFCURVE",
"880 406 CURVE SMOOTH",
"983 406 OFFCURVE",
"1039 339 OFFCURVE",
"1030 224 CURVE SMOOTH",
"1021 110 OFFCURVE",
"953 42 OFFCURVE",
"850 42 CURVE SMOOTH"
);
},
{
closed = 1;
nodes = (
"1120 631 LINE",
"1108 672 LINE",
"787 548 LINE",
"799 507 LINE"
);
},
{
closed = 1;
nodes = (
"399 -7 OFFCURVE",
"491 91 OFFCURVE",
"491 240 CURVE SMOOTH",
"491 371 OFFCURVE",
"407 455 OFFCURVE",
"276 455 CURVE SMOOTH",
"139 455 OFFCURVE",
"48 356 OFFCURVE",
"48 208 CURVE SMOOTH",
"48 77 OFFCURVE",
"132 -7 OFFCURVE",
"262 -7 CURVE SMOOTH"
);
},
{
closed = 1;
nodes = (
"162 42 OFFCURVE",
"105 99 OFFCURVE",
"105 205 CURVE SMOOTH",
"105 330 OFFCURVE",
"169 406 OFFCURVE",
"275 406 CURVE SMOOTH",
"375 406 OFFCURVE",
"434 346 OFFCURVE",
"434 242 CURVE SMOOTH",
"434 117 OFFCURVE",
"370 42 OFFCURVE",
"265 42 CURVE SMOOTH"
);
}
);
};
guideLines = (
{
angle = 90;
position = "{150, 496}";
},
{
angle = 90;
position = "{478, 496}";
}
);
layerId = "9E718F8A-2CEA-4931-B05D-987794BD97DA";
paths = (
{
closed = 1;
nodes = (
"402 -7 OFFCURVE",
"500 91 OFFCURVE",
"500 322 CURVE SMOOTH",
"500 521 OFFCURVE",
"401 653 OFFCURVE",
"212 711 CURVE",
"194 670 LINE",
"381 612 OFFCURVE",
"465 472 OFFCURVE",
"448 291 CURVE",
"462 309 LINE",
"455 392 OFFCURVE",
"384 455 OFFCURVE",
"276 455 CURVE SMOOTH",
"139 455 OFFCURVE",
"48 356 OFFCURVE",
"48 208 CURVE SMOOTH",
"48 77 OFFCURVE",
"132 -7 OFFCURVE",
"262 -7 CURVE SMOOTH"
);
},
{
closed = 1;
nodes = (
"162 42 OFFCURVE",
"105 99 OFFCURVE",
"105 205 CURVE SMOOTH",
"105 330 OFFCURVE",
"169 406 OFFCURVE",
"275 406 CURVE SMOOTH",
"375 406 OFFCURVE",
"435 346 OFFCURVE",
"435 246 CURVE SMOOTH",
"435 117 OFFCURVE",
"370 42 OFFCURVE",
"265 42 CURVE SMOOTH"
);
},
{
closed = 1;
nodes = (
"524 631 LINE",
"512 672 LINE",
"191 548 LINE",
"203 507 LINE"
);
}
);
width = 545;
}
);
leftKerningGroup = o;
rightKerningGroup = o;
unicode = 00F0;
userData = {
com.typemytype.robofont.layerData = {
b = {
anchors = (
);
components = (
);
contours = (
);
lib = {
};
name = eth;
unicodes = (
);
width = 1230;
};
};
};
},
{
glyphname = dcaron;
lastChange = "2017-11-16 15:27:43 +0000";
layers = (
{
background = {
components = (
{
name = d;
}
);
paths = (
{
closed = 1;
nodes = (
"619 705 LINE",
"560 705 LINE",
"546 516 LINE",
"579 516 LINE"
);
}
);
};
components = (
{
name = d;
}
);
layerId = "9E718F8A-2CEA-4931-B05D-987794BD97DA";
paths = (
{
closed = 1;
nodes = (
"619 705 LINE",
"560 705 LINE",
"546 516 LINE",
"579 516 LINE"
);
}
);
width = 570;
}
);
leftKerningGroup = o;
rightKerningGroup = lcaron;
unicode = 010F;
},
{
glyphname = dcroat;
lastChange = "2017-11-16 15:27:43 +0000";
layers = (
{
background = {
paths = (
{
closed = 1;
nodes = (
"608 563 LINE",
"612 608 LINE",
"268 608 LINE",
"264 563 LINE"
);
},
{
closed = 1;
nodes = (
"524 705 LINE",
"470 705 LINE",
"443 355 LINE",
"455 363 LINE",
"439 449 OFFCURVE",
"378 497 OFFCURVE",
"286 497 CURVE SMOOTH",
"156 497 OFFCURVE",
"62 399 OFFCURVE",
"50 247 CURVE SMOOTH",
"38 94 OFFCURVE",
"117 -7 OFFCURVE",
"246 -7 CURVE SMOOTH",
"338 -7 OFFCURVE",
"407 41 OFFCURVE",
"436 127 CURVE",
"426 135 LINE",
"415 0 LINE",
"469 0 LINE"
);
},
{
closed = 1;
nodes = (
"152 42 OFFCURVE",
"97 118 OFFCURVE",
"107 247 CURVE SMOOTH",
"118 375 OFFCURVE",
"184 448 OFFCURVE",
"288 448 CURVE SMOOTH",
"392 448 OFFCURVE",
"444 374 OFFCURVE",
"434 245 CURVE SMOOTH",
"424 116 OFFCURVE",
"360 42 OFFCURVE",
"255 42 CURVE SMOOTH"
);
}
);
};
layerId = "9E718F8A-2CEA-4931-B05D-987794BD97DA";
paths = (
{
closed = 1;
nodes = (
"338 -7 OFFCURVE",
"413 40 OFFCURVE",
"436 117 CURVE",
"426 135 LINE",
"415 0 LINE",
"469 0 LINE",
"524 705 LINE",
"470 705 LINE",
"443 355 LINE",
"457 363 LINE",
"438 447 OFFCURVE",
"369 497 OFFCURVE",
"277 497 CURVE SMOOTH",
"142 497 OFFCURVE",
"50 390 OFFCURVE",
"50 228 CURVE SMOOTH",
"50 85 OFFCURVE",
"134 -7 OFFCURVE",
"257 -7 CURVE SMOOTH"
);
},
{
closed = 1;
nodes = (
"166 42 OFFCURVE",
"107 109 OFFCURVE",
"107 225 CURVE SMOOTH",
"107 364 OFFCURVE",
"171 448 OFFCURVE",
"276 448 CURVE SMOOTH",
"379 448 OFFCURVE",
"436 384 OFFCURVE",
"436 266 CURVE SMOOTH",
"436 127 OFFCURVE",
"372 42 OFFCURVE",
"266 42 CURVE SMOOTH"
);
},
{
closed = 1;
nodes = (
"608 563 LINE",
"612 608 LINE",
"268 608 LINE",
"264 563 LINE"
);
}
);
width = 570;
}
);
leftKerningGroup = o;
rightKerningGroup = l;
unicode = 0111;
userData = {
com.typemytype.robofont.layerData = {
b = {
anchors = (
);
components = (
);
contours = (
);
lib = {
};
name = dcroat;
unicodes = (
);
width = 1181;
};
};
};
},
{
glyphname = e;
lastChange = "2017-11-16 15:27:43 +0000";
layers = (
{
anchors = (
{
name = bottom;
position = "{268, 0}";
},
{
name = ogonek;
position = "{359, 10}";
},
{
name = top;
position = "{296, 490}";
}
);
background = {
anchors = (
{
name = bottom;
position = "{268, 0}";
},
{
name = ogonek;
position = "{359, 10}";
},
{
name = top;
position = "{296, 490}";
}
);
paths = (
{
closed = 1;
nodes = (
"1036 103 LINE",
"982 61 OFFCURVE",
"929 42 OFFCURVE",
"870 42 CURVE SMOOTH",
"754 42 OFFCURVE",
"697 114 OFFCURVE",
"707 246 CURVE SMOOTH",
"717 374 OFFCURVE",
"787 451 OFFCURVE",
"892 451 CURVE SMOOTH",
"993 451 OFFCURVE",
"1042 381 OFFCURVE",
"1028 256 CURVE",
"1050 279 LINE",
"700 279 LINE",
"698 236 LINE",
"1077 236 LINE",
"1079 263 LINE SMOOTH",
"1090 410 OFFCURVE",
"1022 497 OFFCURVE",
"896 497 CURVE SMOOTH",
"762 497 OFFCURVE",
"662 395 OFFCURVE",
"650 244 CURVE SMOOTH",
"638 87 OFFCURVE",
"720 -7 OFFCURVE",
"867 -7 CURVE SMOOTH",
"936 -7 OFFCURVE",
"1009 19 OFFCURVE",
"1055 60 CURVE"
);
},
{
closed = 1;
nodes = (
"330 -7 OFFCURVE",
"391 18 OFFCURVE",
"431 58 CURVE",
"412 101 LINE",
"363 60 OFFCURVE",
"323 42 OFFCURVE",
"270 42 CURVE SMOOTH",
"164 42 OFFCURVE",
"107 112 OFFCURVE",
"107 224 CURVE SMOOTH",
"107 363 OFFCURVE",
"171 448 OFFCURVE",
"286 448 CURVE SMOOTH",
"341 448 OFFCURVE",
"384 430 OFFCURVE",
"435 389 CURVE",
"460 432 LINE",
"418 472 OFFCURVE",
"357 497 OFFCURVE",
"288 497 CURVE SMOOTH",
"141 497 OFFCURVE",
"50 389 OFFCURVE",
"50 227 CURVE SMOOTH",
"50 85 OFFCURVE",
"134 -7 OFFCURVE",
"264 -7 CURVE SMOOTH"
);
}
);
};
guideLines = (
{
angle = 90;
position = "{411, 186}";
}
);
layerId = "9E718F8A-2CEA-4931-B05D-987794BD97DA";
paths = (
{
closed = 1;
nodes = (
"438 101 LINE",
"389 60 OFFCURVE",
"330 42 OFFCURVE",
"273 42 CURVE SMOOTH",
"164 42 OFFCURVE",
"107 112 OFFCURVE",
"107 224 CURVE SMOOTH",
"107 365 OFFCURVE",
"171 451 OFFCURVE",
"290 451 CURVE SMOOTH",
"384 451 OFFCURVE",
"443 387 OFFCURVE",
"429 256 CURVE",
"451 279 LINE",
"101 279 LINE",
"99 236 LINE",
"479 236 LINE",
"497 413 OFFCURVE",
"417 497 OFFCURVE",
"287 497 CURVE SMOOTH",
"141 497 OFFCURVE",
"50 388 OFFCURVE",
"50 227 CURVE SMOOTH",
"50 85 OFFCURVE",
"134 -7 OFFCURVE",
"272 -7 CURVE SMOOTH",
"340 -7 OFFCURVE",
"417 18 OFFCURVE",
"457 58 CURVE"
);
}
);
width = 525;
}
);
leftKerningGroup = o;
rightKerningGroup = e;
unicode = 0065;
userData = {
anchors = (
);
b = {
};
com.typemytype.robofont.layerData = {
b = {
anchors = (
);
components = (
);
contours = (
);
lib = {
};
name = e;
unicodes = (
);
width = 1132;
};
};
components = (
);
contours = (
);
lib = {
};
name = e;
unicodes = (
);
width = 1132;
};
},
{
glyphname = eogonek;
lastChange = "2017-11-16 15:27:43 +0000";
layers = (
{
anchors = (
{
name = top;
position = "{296, 490}";
}
);
background = {
anchors = (
{
name = top;
position = "{296, 490}";
}
);
paths = (
{
closed = 1;
nodes = (
"438 101 LINE",
"389 60 OFFCURVE",
"330 42 OFFCURVE",
"273 42 CURVE SMOOTH",
"164 42 OFFCURVE",
"107 112 OFFCURVE",
"107 224 CURVE SMOOTH",
"107 365 OFFCURVE",
"171 451 OFFCURVE",
"290 451 CURVE SMOOTH",
"384 451 OFFCURVE",
"443 387 OFFCURVE",
"429 256 CURVE",
"451 279 LINE",
"101 279 LINE",
"99 236 LINE",
"479 236 LINE",
"497 413 OFFCURVE",
"417 497 OFFCURVE",
"287 497 CURVE SMOOTH",
"141 497 OFFCURVE",
"50 388 OFFCURVE",
"50 227 CURVE SMOOTH",
"50 85 OFFCURVE",
"134 -7 OFFCURVE",
"272 -7 CURVE SMOOTH",
"340 -7 OFFCURVE",
"417 18 OFFCURVE",
"457 58 CURVE"
);
},
{
closed = 1;
nodes = (
"389 -191 OFFCURVE",
"420 -180 OFFCURVE",
"438 -168 CURVE",
"425 -129 LINE",
"403 -142 OFFCURVE",
"380 -148 OFFCURVE",
"364 -148 CURVE SMOOTH",
"325 -148 OFFCURVE",
"302 -127 OFFCURVE",
"302 -86 CURVE SMOOTH",
"302 -41 OFFCURVE",
"331 -5 OFFCURVE",
"401 10 CURVE",
"391 41 LINE",
"302 26 OFFCURVE",
"251 -26 OFFCURVE",
"251 -95 CURVE SMOOTH",
"251 -152 OFFCURVE",
"292 -191 OFFCURVE",
"358 -191 CURVE SMOOTH"
);
}
);
};
layerId = "9E718F8A-2CEA-4931-B05D-987794BD97DA";
paths = (
{
closed = 1;
nodes = (
"389 -191 OFFCURVE",
"420 -180 OFFCURVE",
"438 -168 CURVE",
"425 -129 LINE",
"403 -142 OFFCURVE",
"380 -148 OFFCURVE",
"364 -148 CURVE SMOOTH",
"325 -148 OFFCURVE",
"302 -127 OFFCURVE",
"302 -86 CURVE SMOOTH",
"302 -52 OFFCURVE",
"318 -14 OFFCURVE",
"401 21 CURVE SMOOTH",
"427 32 OFFCURVE",
"447 47 OFFCURVE",
"457 58 CURVE",
"438 101 LINE",
"389 60 OFFCURVE",
"332 42 OFFCURVE",
"273 42 CURVE SMOOTH",
"164 42 OFFCURVE",
"107 112 OFFCURVE",
"107 224 CURVE SMOOTH",
"107 386 OFFCURVE",
"188 451 OFFCURVE",
"290 451 CURVE SMOOTH",
"384 451 OFFCURVE",
"443 387 OFFCURVE",
"429 256 CURVE",
"451 279 LINE",
"101 279 LINE",
"99 236 LINE",
"479 236 LINE",
"497 413 OFFCURVE",
"415 497 OFFCURVE",
"287 497 CURVE SMOOTH",
"141 497 OFFCURVE",
"50 388 OFFCURVE",
"50 227 CURVE SMOOTH",
"50 85 OFFCURVE",
"134 -7 OFFCURVE",
"272 -7 CURVE SMOOTH",
"292 -7 OFFCURVE",
"307 -4 OFFCURVE",
"333 5 CURVE",
"321 13 LINE",
"280 -6 OFFCURVE",
"251 -43 OFFCURVE",
"251 -95 CURVE SMOOTH",
"251 -152 OFFCURVE",
"292 -191 OFFCURVE",
"358 -191 CURVE SMOOTH"
);
}
);
width = 525;
}
);
leftKerningGroup = o;
rightKerningGroup = e;
unicode = 0119;
},
{
glyphname = schwa;
lastChange = "2017-11-16 15:27:43 +0000";
layers = (
{
background = {
paths = (
{
closed = 1;
nodes = (
"689 387 LINE",
"750 429 OFFCURVE",
"803 448 OFFCURVE",
"859 448 CURVE SMOOTH",
"971 448 OFFCURVE",
"1030 375 OFFCURVE",
"1019 244 CURVE SMOOTH",
"1008 114 OFFCURVE",
"943 39 OFFCURVE",
"839 39 CURVE SMOOTH",
"737 39 OFFCURVE",
"687 109 OFFCURVE",
"700 234 CURVE",
"676 211 LINE",
"1026 211 LINE",
"1028 254 LINE",
"649 254 LINE",
"647 229 LINE SMOOTH",
"635 80 OFFCURVE",
"705 -7 OFFCURVE",
"835 -7 CURVE SMOOTH",
"969 -7 OFFCURVE",
"1063 91 OFFCURVE",
"1075 246 CURVE SMOOTH",
"1087 402 OFFCURVE",
"1006 497 OFFCURVE",
"862 497 CURVE SMOOTH",
"796 497 OFFCURVE",
"721 471 OFFCURVE",
"671 430 CURVE"
);
},
{
closed = 1;
nodes = (
"88 389 LINE",
"137 430 OFFCURVE",
"196 448 OFFCURVE",
"253 448 CURVE SMOOTH",
"362 448 OFFCURVE",
"419 378 OFFCURVE",
"419 266 CURVE SMOOTH",
"419 125 OFFCURVE",
"355 39 OFFCURVE",
"236 39 CURVE SMOOTH",
"142 39 OFFCURVE",
"83 103 OFFCURVE",
"97 234 CURVE",
"75 211 LINE",
"425 211 LINE",
"427 254 LINE",
"47 254 LINE",
"29 77 OFFCURVE",
"109 -7 OFFCURVE",
"239 -7 CURVE SMOOTH",
"385 -7 OFFCURVE",
"476 102 OFFCURVE",
"476 263 CURVE SMOOTH",
"476 405 OFFCURVE",
"392 497 OFFCURVE",
"254 497 CURVE SMOOTH",
"186 497 OFFCURVE",
"109 472 OFFCURVE",
"69 432 CURVE"
);
}
);
};
layerId = "9E718F8A-2CEA-4931-B05D-987794BD97DA";
paths = (
{
closed = 1;
nodes = (
"88 389 LINE",
"137 430 OFFCURVE",
"196 448 OFFCURVE",
"253 448 CURVE SMOOTH",
"359 448 OFFCURVE",
"419 381 OFFCURVE",
"419 266 CURVE SMOOTH",
"419 125 OFFCURVE",
"355 39 OFFCURVE",
"246 39 CURVE SMOOTH",
"142 39 OFFCURVE",
"82 103 OFFCURVE",
"96 234 CURVE",
"73 211 LINE",
"426 211 LINE",
"428 254 LINE",
"46 254 LINE",
"28 77 OFFCURVE",
"109 -7 OFFCURVE",
"249 -7 CURVE SMOOTH",
"388 -7 OFFCURVE",
"476 102 OFFCURVE",
"476 263 CURVE SMOOTH",
"476 405 OFFCURVE",
"392 497 OFFCURVE",
"254 497 CURVE SMOOTH",
"186 497 OFFCURVE",
"109 472 OFFCURVE",
"69 432 CURVE"
);
}
);
width = 525;
}
);
leftKerningGroup = o;
rightKerningGroup = o;
unicode = 0259;
},
{
glyphname = f;
lastChange = "2017-11-16 15:27:43 +0000";
layers = (
{
anchors = (
{
name = bottom;
position = "{112, 0}";
},
{
name = top;
position = "{151, 490}";
}
);
background = {
anchors = (
{
name = bottom;
position = "{112, 0}";
},
{
name = top;
position = "{151, 490}";
}
);
paths = (
{
closed = 1;
nodes = (
"139 0 LINE",
"180 515 LINE SMOOTH",
"187 607 OFFCURVE",
"228 654 OFFCURVE",
"312 659 CURVE SMOOTH",
"358 662 LINE",
"357 707 LINE",
"322 705 LINE SMOOTH",
"199 698 OFFCURVE",
"135 635 OFFCURVE",
"125 511 CURVE SMOOTH",
"85 0 LINE"
);
},
{
closed = 1;
nodes = (
"318 440 LINE",
"321 485 LINE",
"27 485 LINE",
"24 440 LINE"
);
}
);
};
layerId = "9E718F8A-2CEA-4931-B05D-987794BD97DA";
paths = (
{
closed = 1;
nodes = (
"139 0 LINE",
"180 518 LINE SMOOTH",
"187 610 OFFCURVE",
"226 653 OFFCURVE",
"312 659 CURVE SMOOTH",
"358 662 LINE",
"357 707 LINE",
"322 705 LINE SMOOTH",
"196 698 OFFCURVE",
"135 640 OFFCURVE",
"125 511 CURVE SMOOTH",
"85 0 LINE"
);
},
{
closed = 1;
nodes = (
"318 440 LINE",
"321 485 LINE",
"27 485 LINE",
"24 440 LINE"
);
}
);
width = 310;
}
);
leftKerningGroup = f;
rightKerningGroup = f;
unicode = 0066;
userData = {
anchors = (
);
b = {
};
com.typemytype.robofont.layerData = {
b = {
anchors = (
);
components = (
);
contours = (
);
lib = {
};
name = f;
unicodes = (
);
width = 696;
};
};
components = (
);
contours = (
);
lib = {
};
name = f;
unicodes = (
);
width = 723;
};
},
{
glyphname = g;
lastChange = "2017-11-16 15:27:43 +0000";
layers = (
{
anchors = (
{
name = bottom;
position = "{270, 0}";
},
{
name = top;
position = "{309, 490}";
}
);
background = {
anchors = (
{
name = bottom;
position = "{270, 0}";
},
{
name = top;
position = "{309, 490}";
}
);
paths = (
{
closed = 1;
nodes = (
"989 -187 OFFCURVE",
"1064 -115 OFFCURVE",
"1075 26 CURVE SMOOTH",
"1111 485 LINE",
"1057 485 LINE",
"1049 380 LINE",
"1059 363 LINE",
"1043 449 OFFCURVE",
"982 497 OFFCURVE",
"888 497 CURVE SMOOTH",
"758 497 OFFCURVE",
"662 400 OFFCURVE",
"651 256 CURVE SMOOTH",
"640 112 OFFCURVE",
"720 15 OFFCURVE",
"850 15 CURVE SMOOTH",
"944 15 OFFCURVE",
"1013 63 OFFCURVE",
"1042 149 CURVE",
"1030 130 LINE",
"1022 20 LINE SMOOTH",
"1015 -83 OFFCURVE",
"958 -138 OFFCURVE",
"860 -138 CURVE SMOOTH",
"786 -138 OFFCURVE",
"740 -122 OFFCURVE",
"678 -76 CURVE",
"653 -119 LINE",
"706 -164 OFFCURVE",
"774 -187 OFFCURVE",
"855 -187 CURVE SMOOTH"
);
},
{
closed = 1;
nodes = (
"756 64 OFFCURVE",
"699 136 OFFCURVE",
"708 256 CURVE SMOOTH",
"717 376 OFFCURVE",
"786 448 OFFCURVE",
"889 448 CURVE SMOOTH",
"993 448 OFFCURVE",
"1049 375 OFFCURVE",
"1039 256 CURVE SMOOTH",
"1029 137 OFFCURVE",
"963 64 OFFCURVE",
"859 64 CURVE SMOOTH"
);
},
{
closed = 1;
nodes = (
"401 15 OFFCURVE",
"493 117 OFFCURVE",
"493 272 CURVE SMOOTH",
"493 409 OFFCURVE",
"409 497 OFFCURVE",
"278 497 CURVE SMOOTH",
"141 497 OFFCURVE",
"50 394 OFFCURVE",
"50 239 CURVE SMOOTH",
"50 103 OFFCURVE",
"134 15 OFFCURVE",
"264 15 CURVE SMOOTH"
);
},
{
closed = 1;
nodes = (
"165 64 OFFCURVE",
"107 125 OFFCURVE",
"107 236 CURVE SMOOTH",
"107 368 OFFCURVE",
"172 448 OFFCURVE",
"279 448 CURVE SMOOTH",
"381 448 OFFCURVE",
"440 385 OFFCURVE",
"440 275 CURVE SMOOTH",
"440 143 OFFCURVE",
"376 64 OFFCURVE",
"269 64 CURVE SMOOTH"
);
}
);
};
layerId = "9E718F8A-2CEA-4931-B05D-987794BD97DA";
paths = (
{
closed = 1;
nodes = (
"392 -187 OFFCURVE",
"464 -116 OFFCURVE",
"475 26 CURVE SMOOTH",
"511 485 LINE",
"457 485 LINE",
"449 380 LINE",
"461 363 LINE",
"442 447 OFFCURVE",
"373 497 OFFCURVE",
"279 497 CURVE SMOOTH",
"141 497 OFFCURVE",
"51 394 OFFCURVE",
"51 239 CURVE SMOOTH",
"51 103 OFFCURVE",
"134 15 OFFCURVE",
"262 15 CURVE SMOOTH",
"345 15 OFFCURVE",
"420 62 OFFCURVE",
"442 143 CURVE",
"431 135 LINE",
"422 24 LINE SMOOTH",
"414 -81 OFFCURVE",
"362 -138 OFFCURVE",
"260 -138 CURVE SMOOTH",
"190 -138 OFFCURVE",
"144 -122 OFFCURVE",
"78 -76 CURVE",
"53 -119 LINE",
"113 -165 OFFCURVE",
"180 -187 OFFCURVE",
"260 -187 CURVE SMOOTH"
);
},
{
closed = 1;
nodes = (
"165 64 OFFCURVE",
"108 125 OFFCURVE",
"108 236 CURVE SMOOTH",
"108 368 OFFCURVE",
"172 448 OFFCURVE",
"279 448 CURVE SMOOTH",
"381 448 OFFCURVE",
"440 385 OFFCURVE",
"440 275 CURVE SMOOTH",
"440 143 OFFCURVE",
"376 64 OFFCURVE",
"269 64 CURVE SMOOTH"
);
}
);
width = 574;
}
);
leftKerningGroup = o;
rightKerningGroup = u;
unicode = 0067;
userData = {
anchors = (
);
b = {
};
com.typemytype.robofont.layerData = {
b = {
anchors = (
);
components = (
);
contours = (
);
lib = {
};
name = g;
unicodes = (
);
width = 1167;
};
};
components = (
);
contours = (
);
lib = {
};
name = g;
unicodes = (
);
width = 1207;
};
},
{
glyphname = h;
lastChange = "2017-11-16 15:27:43 +0000";
layers = (
{
anchors = (
{
name = bottom;
position = "{260, 0}";
},
{
name = center;
position = "{279, 245}";
},
{
name = top;
position = "{145, 705}";
}
);
background = {
anchors = (
{
name = bottom;
position = "{260, 0}";
},
{
name = center;
position = "{279, 245}";
},
{
name = top;
position = "{145, 705}";
}
);
paths = (
{
closed = 1;
nodes = (
"117 0 LINE",
"139 281 LINE SMOOTH",
"147 383 OFFCURVE",
"216 448 OFFCURVE",
"315 448 CURVE SMOOTH",
"402 448 OFFCURVE",
"437 404 OFFCURVE",
"429 306 CURVE SMOOTH",
"405 0 LINE",
"459 0 LINE",
"483 310 LINE SMOOTH",
"493 434 OFFCURVE",
"439 497 OFFCURVE",
"322 497 CURVE SMOOTH",
"238 497 OFFCURVE",
"166 454 OFFCURVE",
"134 373 CURVE",
"147 387 LINE",
"172 705 LINE",
"118 705 LINE",
"63 0 LINE"
);
}
);
};
layerId = "9E718F8A-2CEA-4931-B05D-987794BD97DA";
paths = (
{
closed = 1;
nodes = (
"117 0 LINE",
"139 281 LINE SMOOTH",
"147 385 OFFCURVE",
"209 448 OFFCURVE",
"311 448 CURVE SMOOTH",
"397 448 OFFCURVE",
"437 402 OFFCURVE",
"429 304 CURVE SMOOTH",
"405 0 LINE",
"459 0 LINE",
"483 308 LINE SMOOTH",
"493 433 OFFCURVE",
"433 497 OFFCURVE",
"316 497 CURVE SMOOTH",
"230 497 OFFCURVE",
"161 452 OFFCURVE",
"134 373 CURVE",
"147 387 LINE",
"173 705 LINE",
"119 705 LINE",
"63 0 LINE"
);
}
);
width = 558;
}
);
leftKerningGroup = h;
rightKerningGroup = n;
unicode = 0068;
userData = {
anchors = (
);
b = {
};
com.typemytype.robofont.layerData = {
b = {
anchors = (
);
components = (
);
contours = (
);
lib = {
};
name = h;
unicodes = (
);
width = 1148;
};
};
components = (
);
contours = {
};
lib = {
};
name = h;
points = {
};
segmentType = curve;
unicodes = (
);
width = 1195;
x = 137;
y = 113;
};
},
{
glyphname = hbar;
lastChange = "2017-11-16 15:27:43 +0000";
layers = (
{
background = {
paths = (
{
closed = 1;
nodes = (
"117 0 LINE",
"139 281 LINE SMOOTH",
"147 383 OFFCURVE",
"216 448 OFFCURVE",
"315 448 CURVE SMOOTH",
"402 448 OFFCURVE",
"437 404 OFFCURVE",
"429 306 CURVE SMOOTH",
"405 0 LINE",
"459 0 LINE",
"483 310 LINE SMOOTH",
"493 434 OFFCURVE",
"439 497 OFFCURVE",
"322 497 CURVE SMOOTH",
"238 497 OFFCURVE",
"166 454 OFFCURVE",
"134 373 CURVE",
"147 387 LINE",
"172 705 LINE",
"118 705 LINE",
"63 0 LINE"
);
},
{
closed = 1;
nodes = (
"356 563 LINE",
"360 608 LINE",
"16 608 LINE",
"12 563 LINE"
);
}
);
};
layerId = "9E718F8A-2CEA-4931-B05D-987794BD97DA";
paths = (
{
closed = 1;
nodes = (
"117 0 LINE",
"139 281 LINE SMOOTH",
"147 385 OFFCURVE",
"209 448 OFFCURVE",
"311 448 CURVE SMOOTH",
"397 448 OFFCURVE",
"437 402 OFFCURVE",
"429 304 CURVE SMOOTH",
"405 0 LINE",
"459 0 LINE",
"483 308 LINE SMOOTH",
"493 433 OFFCURVE",
"433 497 OFFCURVE",
"316 497 CURVE SMOOTH",
"230 497 OFFCURVE",
"161 452 OFFCURVE",
"134 373 CURVE",
"147 387 LINE",
"172 705 LINE",
"118 705 LINE",
"63 0 LINE"
);
},
{
closed = 1;
nodes = (
"356 563 LINE",
"360 608 LINE",
"16 608 LINE",
"12 563 LINE"
);
}
);
width = 558;
}
);
leftKerningGroup = h;
rightKerningGroup = n;
unicode = 0127;
},
{
glyphname = idotless;
lastChange = "2017-11-16 15:27:43 +0000";
layers = (
{
anchors = (
{
name = bottom;
position = "{90, 0}";
},
{
name = ogonek;
position = "{115, 10}";
},
{
name = top;
position = "{129, 490}";
}
);
background = {
anchors = (
{
name = bottom;
position = "{90, 0}";
},
{
name = ogonek;
position = "{115, 10}";
},
{
name = top;
position = "{129, 490}";
}
);
paths = (
{
closed = 1;
nodes = (
"117 0 LINE",
"155 485 LINE",
"101 485 LINE",
"63 0 LINE"
);
}
);
};
layerId = "9E718F8A-2CEA-4931-B05D-987794BD97DA";
paths = (
{
closed = 1;
nodes = (
"117 0 LINE",
"155 485 LINE",
"101 485 LINE",
"63 0 LINE"
);
}
);
width = 218;
}
);
leftKerningGroup = n;
rightKerningGroup = u;
unicode = 0131;
},
{
glyphname = iogonek;
lastChange = "2017-11-16 15:27:43 +0000";
layers = (
{
background = {
paths = (
{
closed = 1;
nodes = (
"102 -191 OFFCURVE",
"131 -181 OFFCURVE",
"151 -168 CURVE",
"138 -130 LINE",
"116 -142 OFFCURVE",
"93 -148 OFFCURVE",
"77 -148 CURVE SMOOTH",
"37 -148 OFFCURVE",
"11 -125 OFFCURVE",
"15 -82 CURVE SMOOTH",
"18 -38 OFFCURVE",
"54 0 OFFCURVE",
"113 0 CURVE SMOOTH",
"117 0 LINE",
"155 485 LINE",
"101 485 LINE",
"63 0 LINE",
"80 0 LINE",
"103 38 LINE",
"18 24 OFFCURVE",
"-31 -27 OFFCURVE",
"-36 -88 CURVE SMOOTH",
"-41 -148 OFFCURVE",
"1 -191 OFFCURVE",
"69 -191 CURVE SMOOTH"
);
},
{
closed = 1;
nodes = (
"162 610 OFFCURVE",
"181 626 OFFCURVE",
"183 651 CURVE SMOOTH",
"185 676 OFFCURVE",
"168 692 OFFCURVE",
"144 692 CURVE SMOOTH",
"120 692 OFFCURVE",
"101 676 OFFCURVE",
"99 651 CURVE SMOOTH",
"97 626 OFFCURVE",
"114 610 OFFCURVE",
"138 610 CURVE SMOOTH"
);
}
);
};
layerId = "9E718F8A-2CEA-4931-B05D-987794BD97DA";
paths = (
{
closed = 1;
nodes = (
"102 -191 OFFCURVE",
"133 -180 OFFCURVE",
"151 -168 CURVE",
"138 -129 LINE",
"116 -142 OFFCURVE",
"93 -148 OFFCURVE",
"77 -148 CURVE SMOOTH",
"38 -148 OFFCURVE",
"15 -127 OFFCURVE",
"15 -84 CURVE SMOOTH",
"15 -41 OFFCURVE",
"41 0 OFFCURVE",
"113 0 CURVE SMOOTH",
"117 0 LINE",
"155 485 LINE",
"101 485 LINE",
"63 0 LINE",
"80 0 LINE",
"104 41 LINE",
"10 30 OFFCURVE",
"-36 -24 OFFCURVE",
"-36 -92 CURVE SMOOTH",
"-36 -152 OFFCURVE",
"5 -191 OFFCURVE",
"71 -191 CURVE SMOOTH"
);
},
{
closed = 1;
nodes = (
"101 615 LINE",
"175 615 LINE",
"181 687 LINE",
"107 687 LINE"
);
}
);
width = 218;
}
);
leftKerningGroup = h;
rightKerningGroup = l;
unicode = 012F;
},
{
glyphname = jdotless;
lastChange = "2017-11-16 15:27:43 +0000";
layers = (
{
anchors = (
{
name = bottom;
position = "{90, 0}";
},
{
name = top;
position = "{129, 490}";
}
);
background = {
anchors = (
{
name = bottom;
position = "{90, 0}";
},
{
name = top;
position = "{129, 490}";
}
);
paths = (
{
closed = 1;
nodes = (
"101 485 LINE",
"62 -10 LINE SMOOTH",
"56 -87 OFFCURVE",
"14 -130 OFFCURVE",
"-63 -135 CURVE SMOOTH",
"-106 -138 LINE",
"-104 -183 LINE",
"-60 -180 LINE SMOOTH",
"47 -173 OFFCURVE",
"108 -114 OFFCURVE",
"117 -6 CURVE SMOOTH",
"155 485 LINE"
);
}
);
};
layerId = "9E718F8A-2CEA-4931-B05D-987794BD97DA";
paths = (
{
closed = 1;
nodes = (
"101 485 LINE",
"62 -8 LINE SMOOTH",
"56 -91 OFFCURVE",
"17 -129 OFFCURVE",
"-63 -135 CURVE SMOOTH",
"-106 -138 LINE",
"-104 -183 LINE",
"-60 -180 LINE SMOOTH",
"50 -173 OFFCURVE",
"108 -118 OFFCURVE",
"117 -1 CURVE SMOOTH",
"155 485 LINE"
);
}
);
width = 218;
}
);
leftKerningGroup = n;
rightKerningGroup = l;
unicode = 0237;
},
{
glyphname = k;
lastChange = "2017-11-16 15:27:43 +0000";
layers = (
{
anchors = (
{
name = bottom;
position = "{220, 0}";
},
{
name = top;
position = "{259, 490}";
}
);
background = {
anchors = (
{
name = bottom;
position = "{220, 0}";
},
{
name = top;
position = "{259, 490}";
}
);
paths = (
{
closed = 1;
nodes = (
"462 0 LINE",
"175 272 LINE",
"171 229 LINE",
"472 485 LINE",
"400 485 LINE",
"124 248 LINE",
"388 0 LINE"
);
},
{
closed = 1;
nodes = (
"117 0 LINE",
"172 705 LINE",
"118 705 LINE",
"63 0 LINE"
);
}
);
};
guideLines = (
{
position = "{113, 240}";
}
);
layerId = "9E718F8A-2CEA-4931-B05D-987794BD97DA";
paths = (
{
closed = 1;
nodes = (
"462 0 LINE",
"177 272 LINE",
"173 229 LINE",
"472 485 LINE",
"398 485 LINE",
"127 250 LINE",
"391 0 LINE"
);
},
{
closed = 1;
nodes = (
"117 0 LINE",
"173 705 LINE",
"119 705 LINE",
"63 0 LINE"
);
}
);
width = 478;
}
);
leftKerningGroup = h;
rightKerningGroup = k;
unicode = 006B;
userData = {
com.typemytype.robofont.layerData = {
b = {
anchors = (
);
components = (
);
contours = (
{
points = (
{
segmentType = line;
smooth = 0;
x = 318;
y = 536;
},
{
segmentType = line;
smooth = 1;
x = 793;
y = 27;
},
{
smooth = 0;
x = 809;
y = 9;
},
{
smooth = 0;
x = 828;
y = 1;
},
{
segmentType = curve;
smooth = 1;
x = 845;
y = 1;
},
{
smooth = 0;
x = 883;
y = 1;
},
{
smooth = 0;
x = 922;
y = 33;
},
{
segmentType = curve;
smooth = 1;
x = 922;
y = 71;
},
{
smooth = 0;
x = 922;
y = 84;
},
{
smooth = 0;
x = 918;
y = 99;
},
{
segmentType = curve;
smooth = 1;
x = 906;
y = 112;
},
{
segmentType = line;
smooth = 0;
x = 492;
y = 554;
},
{
segmentType = line;
smooth = 1;
x = 873;
y = 889;
},
{
smooth = 0;
x = 888;
y = 902;
},
{
smooth = 0;
x = 894;
y = 918;
},
{
segmentType = curve;
smooth = 1;
x = 894;
y = 933;
},
{
smooth = 0;
x = 894;
y = 968;
},
{
smooth = 0;
x = 858;
y = 1002;
},
{
segmentType = curve;
smooth = 1;
x = 821;
y = 1002;
},
{
smooth = 0;
x = 802;
y = 1002;
},
{
smooth = 0;
x = 785;
y = 994;
},
{
segmentType = curve;
smooth = 0;
x = 770;
y = 979;
},
{
segmentType = line;
smooth = 0;
x = 318;
y = 574;
}
);
}
);
lib = {
};
name = k;
unicodes = (
);
width = 984;
};
};
};
},
{
glyphname = kgreenlandic;
lastChange = "2017-11-16 15:27:43 +0000";
layers = (
{
anchors = (
{
name = bottom;
position = "{220, 0}";
},
{
name = top;
position = "{259, 490}";
}
);
background = {
anchors = (
{
name = bottom;
position = "{220, 0}";
},
{
name = top;
position = "{259, 490}";
}
);
paths = (
{
closed = 1;
nodes = (
"462 0 LINE",
"175 272 LINE",
"171 229 LINE",
"472 485 LINE",
"400 485 LINE",
"124 248 LINE",
"388 0 LINE"
);
},
{
closed = 1;
nodes = (
"117 0 LINE",
"155 485 LINE",
"101 485 LINE",
"63 0 LINE"
);
}
);
};
layerId = "9E718F8A-2CEA-4931-B05D-987794BD97DA";
paths = (
{
closed = 1;
nodes = (
"117 0 LINE",
"155 485 LINE",
"101 485 LINE",
"63 0 LINE"
);
},
{
closed = 1;
nodes = (
"462 0 LINE",
"177 272 LINE",
"173 229 LINE",
"472 485 LINE",
"398 485 LINE",
"127 250 LINE",
"391 0 LINE"
);
}
);
width = 478;
}
);
leftKerningGroup = n;
rightKerningGroup = k;
unicode = 0138;
userData = {
com.typemytype.robofont.layerData = {
b = {
anchors = (
);
components = (
);
contours = (
);
lib = {
};
name = kgreenlandic;
unicodes = (
);
width = 1047;
};
};
};
},
{
glyphname = l;
lastChange = "2017-11-16 15:27:43 +0000";
layers = (
{
anchors = (
{
name = bottom;
position = "{90, 0}";
},
{
name = center;
position = "{109, 245}";
},
{
name = top;
position = "{145, 705}";
},
{
name = topright;
position = "{212, 705}";
}
);
background = {
anchors = (
{
name = bottom;
position = "{90, 0}";
},
{
name = center;
position = "{109, 245}";
},
{
name = top;
position = "{145, 705}";
},
{
name = topright;
position = "{212, 705}";
}
);
paths = (
{
closed = 1;
nodes = (
"117 0 LINE",
"172 705 LINE",
"118 705 LINE",
"63 0 LINE"
);
}
);
};
layerId = "9E718F8A-2CEA-4931-B05D-987794BD97DA";
paths = (
{
closed = 1;
nodes = (
"117 0 LINE",
"173 705 LINE",
"119 705 LINE",
"63 0 LINE"
);
}
);
width = 218;
}
);
leftKerningGroup = h;
rightKerningGroup = l;
unicode = 006C;
userData = {
com.typemytype.robofont.layerData = {
b = {
anchors = (
);
components = (
);
contours = (
);
lib = {
};
name = l;
unicodes = (
);
width = 511;
};
};
};
},
{
glyphname = lcaron;
lastChange = "2017-11-16 15:27:43 +0000";
layers = (
{
background = {
components = (
{
name = l;
}
);
paths = (
{
closed = 1;
nodes = (
"270 705 LINE",
"211 705 LINE",
"197 516 LINE",
"230 516 LINE"
);
}
);
};
components = (
{
name = l;
}
);
layerId = "9E718F8A-2CEA-4931-B05D-987794BD97DA";
paths = (
{
closed = 1;
nodes = (
"270 705 LINE",
"211 705 LINE",
"197 516 LINE",
"230 516 LINE"
);
}
);
width = 218;
}
);
leftKerningGroup = h;
rightKerningGroup = lcaron;
unicode = 013E;
},
{
glyphname = lslash;
lastChange = "2017-11-16 15:27:43 +0000";
layers = (
{
background = {
paths = (
{
closed = 1;
nodes = (
"273 406 LINE",
"252 447 LINE",
"1 308 LINE",
"22 267 LINE"
);
},
{
closed = 1;
nodes = (
"136 0 LINE",
"191 705 LINE",
"137 705 LINE",
"82 0 LINE"
);
}
);
};
layerId = "9E718F8A-2CEA-4931-B05D-987794BD97DA";
paths = (
{
closed = 1;
nodes = (
"273 406 LINE",
"252 447 LINE",
"1 308 LINE",
"22 267 LINE"
);
},
{
closed = 1;
nodes = (
"136 0 LINE",
"191 705 LINE",
"137 705 LINE",
"82 0 LINE"
);
}
);
width = 256;
}
);
leftKerningGroup = l;
rightKerningGroup = l;
unicode = 0142;
},
{
glyphname = m;
lastChange = "2017-11-16 15:27:43 +0000";
layers = (
{
anchors = (
{
name = bottom;
position = "{402, 0}";
},
{
name = top;
position = "{441, 490}";
}
);
background = {
anchors = (
{
name = bottom;
position = "{402, 0}";
},
{
name = top;
position = "{441, 490}";
}
);
paths = (
{
closed = 1;
nodes = (
"117 0 LINE",
"139 281 LINE SMOOTH",
"147 383 OFFCURVE",
"208 448 OFFCURVE",
"298 448 CURVE SMOOTH",
"376 448 OFFCURVE",
"407 405 OFFCURVE",
"399 306 CURVE SMOOTH",
"375 0 LINE",
"429 0 LINE",
"451 281 LINE SMOOTH",
"459 383 OFFCURVE",
"520 448 OFFCURVE",
"610 448 CURVE SMOOTH",
"688 448 OFFCURVE",
"719 405 OFFCURVE",
"711 306 CURVE SMOOTH",
"687 0 LINE",
"741 0 LINE",
"765 310 LINE SMOOTH",
"775 435 OFFCURVE",
"726 497 OFFCURVE",
"619 497 CURVE SMOOTH",
"530 497 OFFCURVE",
"457 444 OFFCURVE",
"434 363 CURVE",
"456 354 LINE",
"450 450 OFFCURVE",
"402 497 OFFCURVE",
"307 497 CURVE SMOOTH",
"227 497 OFFCURVE",
"163 453 OFFCURVE",
"134 373 CURVE",
"146 382 LINE",
"154 485 LINE",
"101 485 LINE",
"63 0 LINE"
);
}
);
};
layerId = "9E718F8A-2CEA-4931-B05D-987794BD97DA";
paths = (
{
closed = 1;
nodes = (
"117 0 LINE",
"139 281 LINE SMOOTH",
"147 387 OFFCURVE",
"203 448 OFFCURVE",
"294 448 CURVE SMOOTH",
"374 448 OFFCURVE",
"407 403 OFFCURVE",
"399 304 CURVE SMOOTH",
"375 0 LINE",
"429 0 LINE",
"451 281 LINE SMOOTH",
"459 387 OFFCURVE",
"515 448 OFFCURVE",
"606 448 CURVE SMOOTH",
"686 448 OFFCURVE",
"719 403 OFFCURVE",
"711 304 CURVE SMOOTH",
"687 0 LINE",
"741 0 LINE",
"765 308 LINE SMOOTH",
"775 432 OFFCURVE",
"723 497 OFFCURVE",
"614 497 CURVE SMOOTH",
"524 497 OFFCURVE",
"455 446 OFFCURVE",
"432 363 CURVE",
"456 354 LINE",
"450 449 OFFCURVE",
"398 497 OFFCURVE",
"302 497 CURVE SMOOTH",
"219 497 OFFCURVE",
"161 454 OFFCURVE",
"134 373 CURVE",
"146 382 LINE",
"154 485 LINE",
"101 485 LINE",
"63 0 LINE"
);
}
);
width = 840;
}
);
leftKerningGroup = n;
rightKerningGroup = n;
unicode = 006D;
userData = {
anchors = (
);
b = {
};
com.typemytype.robofont.layerData = {
b = {
anchors = (
);
components = (
);
contours = (
);
lib = {
};
name = m;
unicodes = (
);
width = 1838;
};
};
components = (
);
contours = (
);
lib = {
};
name = m;
unicodes = (
);
width = 1877;
};
},
{
glyphname = n;
lastChange = "2017-11-16 15:27:43 +0000";
layers = (
{
anchors = (
{
name = bottom;
position = "{260, 0}";
},
{
name = top;
position = "{299, 490}";
}
);
background = {
anchors = (
{
name = bottom;
position = "{260, 0}";
},
{
name = top;
position = "{299, 490}";
}
);
paths = (
{
closed = 1;
nodes = (
"117 0 LINE",
"139 281 LINE SMOOTH",
"147 385 OFFCURVE",
"209 448 OFFCURVE",
"311 448 CURVE SMOOTH",
"397 448 OFFCURVE",
"437 402 OFFCURVE",
"429 304 CURVE SMOOTH",
"405 0 LINE",
"459 0 LINE",
"483 308 LINE SMOOTH",
"493 433 OFFCURVE",
"433 497 OFFCURVE",
"316 497 CURVE SMOOTH",
"230 497 OFFCURVE",
"161 452 OFFCURVE",
"134 373 CURVE",
"147 387 LINE",
"172 705 LINE",
"118 705 LINE",
"63 0 LINE"
);
}
);
};
layerId = "9E718F8A-2CEA-4931-B05D-987794BD97DA";
paths = (
{
closed = 1;
nodes = (
"117 0 LINE",
"139 281 LINE SMOOTH",
"147 385 OFFCURVE",
"209 448 OFFCURVE",
"311 448 CURVE SMOOTH",
"397 448 OFFCURVE",
"437 402 OFFCURVE",
"429 304 CURVE SMOOTH",
"405 0 LINE",
"459 0 LINE",
"483 308 LINE SMOOTH",
"493 433 OFFCURVE",
"433 497 OFFCURVE",
"316 497 CURVE SMOOTH",
"230 497 OFFCURVE",
"161 452 OFFCURVE",
"134 373 CURVE",
"146 385 LINE",
"154 485 LINE",
"101 485 LINE",
"63 0 LINE"
);
}
);
width = 558;
}
);
leftKerningGroup = n;
rightKerningGroup = n;
unicode = 006E;
userData = {
anchors = (
);
b = {
};
com.typemytype.robofont.layerData = {
b = {
anchors = (
);
components = (
);
contours = (
);
lib = {
};
name = n;
unicodes = (
);
width = 1152;
};
};
components = (
);
contours = {
};
lib = {
};
name = n;
points = {
};
segmentType = curve;
unicodes = (
);
width = 1195;
x = 137;
y = 113;
};
},
{
glyphname = eng;
lastChange = "2017-11-16 15:27:43 +0000";
layers = (
{
background = {
paths = (
{
closed = 1;
nodes = (
"737 497 OFFCURVE",
"666 454 OFFCURVE",
"634 373 CURVE",
"646 385 LINE",
"654 485 LINE",
"601 485 LINE",
"563 0 LINE",
"617 0 LINE",
"639 281 LINE SMOOTH",
"648 390 OFFCURVE",
"723 448 OFFCURVE",
"815 448 CURVE SMOOTH",
"894 448 OFFCURVE",
"937 413 OFFCURVE",
"929 306 CURVE SMOOTH",
"904 -10 LINE SMOOTH",
"898 -87 OFFCURVE",
"856 -130 OFFCURVE",
"779 -135 CURVE SMOOTH",
"736 -138 LINE",
"738 -183 LINE",
"782 -180 LINE SMOOTH",
"898 -172 OFFCURVE",
"951 -105 OFFCURVE",
"959 -6 CURVE SMOOTH",
"983 310 LINE SMOOTH",
"993 445 OFFCURVE",
"928 497 OFFCURVE",
"822 497 CURVE SMOOTH"
);
},
{
closed = 1;
nodes = (
"117 0 LINE",
"139 281 LINE SMOOTH",
"147 385 OFFCURVE",
"209 448 OFFCURVE",
"311 448 CURVE SMOOTH",
"397 448 OFFCURVE",
"437 402 OFFCURVE",
"429 304 CURVE SMOOTH",
"405 0 LINE",
"459 0 LINE",
"483 308 LINE SMOOTH",
"493 433 OFFCURVE",
"433 497 OFFCURVE",
"316 497 CURVE SMOOTH",
"230 497 OFFCURVE",
"161 452 OFFCURVE",
"134 373 CURVE",
"146 385 LINE",
"154 485 LINE",
"101 485 LINE",
"63 0 LINE"
);
}
);
};
layerId = "9E718F8A-2CEA-4931-B05D-987794BD97DA";
paths = (
{
closed = 1;
nodes = (
"229 497 OFFCURVE",
"161 451 OFFCURVE",
"134 373 CURVE",
"146 385 LINE",
"154 485 LINE",
"101 485 LINE",
"63 0 LINE",
"117 0 LINE",
"139 281 LINE SMOOTH",
"147 387 OFFCURVE",
"210 448 OFFCURVE",
"311 448 CURVE SMOOTH",
"398 448 OFFCURVE",
"437 401 OFFCURVE",
"429 304 CURVE SMOOTH",
"405 -5 LINE SMOOTH",
"399 -86 OFFCURVE",
"357 -130 OFFCURVE",
"279 -135 CURVE SMOOTH",
"236 -138 LINE",
"238 -183 LINE",
"282 -180 LINE SMOOTH",
"391 -172 OFFCURVE",
"450 -112 OFFCURVE",
"459 -1 CURVE SMOOTH",
"483 308 LINE SMOOTH",
"493 431 OFFCURVE",
"435 497 OFFCURVE",
"316 497 CURVE SMOOTH"
);
}
);
width = 558;
}
);
leftKerningGroup = n;
rightKerningGroup = n;
unicode = 014B;
},
{
glyphname = o;
lastChange = "2017-11-18 21:26:13 +0000";
layers = (
{
anchors = (
{
name = bottom;
position = "{252, 0}";
},
{
name = center;
position = "{271, 245}";
},
{
name = ogonek;
position = "{336, 10}";
},
{
name = top;
position = "{291, 490}";
},
{
name = topright;
position = "{340, 490}";
}
);
background = {
paths = (
{
closed = 1;
nodes = (
"384 -18 OFFCURVE",
"479 74 OFFCURVE",
"492 227 CURVE SMOOTH",
"505 380 OFFCURVE",
"424 486 OFFCURVE",
"292 497 CURVE SMOOTH",
"160 508 OFFCURVE",
"65 416 OFFCURVE",
"52 263 CURVE SMOOTH",
"39 110 OFFCURVE",
"120 4 OFFCURVE",
"252 -7 CURVE SMOOTH"
);
},
{
closed = 1;
nodes = (
"152 50 OFFCURVE",
"99 127 OFFCURVE",
"109 258 CURVE SMOOTH",
"119 386 OFFCURVE",
"186 456 OFFCURVE",
"288 448 CURVE SMOOTH",
"390 440 OFFCURVE",
"445 360 OFFCURVE",
"435 232 CURVE SMOOTH",
"425 101 OFFCURVE",
"360 34 OFFCURVE",
"255 42 CURVE SMOOTH"
);
}
);
};
layerId = "9E718F8A-2CEA-4931-B05D-987794BD97DA";
paths = (
{
closed = 1;
nodes = (
"401 -7 OFFCURVE",
"493 100 OFFCURVE",
"493 262 CURVE SMOOTH",
"493 405 OFFCURVE",
"409 497 OFFCURVE",
"278 497 CURVE SMOOTH",
"141 497 OFFCURVE",
"50 389 OFFCURVE",
"50 227 CURVE SMOOTH",
"50 85 OFFCURVE",
"134 -7 OFFCURVE",
"264 -7 CURVE SMOOTH"
);
},
{
closed = 1;
nodes = (
"164 42 OFFCURVE",
"107 106 OFFCURVE",
"107 224 CURVE SMOOTH",
"107 363 OFFCURVE",
"171 448 OFFCURVE",
"277 448 CURVE SMOOTH",
"377 448 OFFCURVE",
"436 381 OFFCURVE",
"436 265 CURVE SMOOTH",
"436 126 OFFCURVE",
"372 42 OFFCURVE",
"267 42 CURVE SMOOTH"
);
}
);
width = 542;
}
);
leftKerningGroup = o;
rightKerningGroup = o;
unicode = 006F;
userData = {
anchors = (
);
b = {
};
com.typemytype.robofont.guides = (
);
com.typemytype.robofont.layerData = {
b = {
anchors = (
);
components = (
);
contours = (
);
lib = {
};
name = o;
unicodes = (
);
width = 1144;
};
};
components = (
);
contours = (
);
lib = {
};
name = o;
unicodes = (
);
width = 1199;
};
},
{
glyphname = ohorn;
lastChange = "2017-11-16 15:27:43 +0000";
layers = (
{
anchors = (
{
name = bottom;
position = "{252, 0}";
},
{
name = top;
position = "{291, 490}";
}
);
background = {
anchors = (
{
name = bottom;
position = "{252, 0}";
},
{
name = top;
position = "{291, 490}";
}
);
paths = (
{
closed = 1;
nodes = (
"401 -7 OFFCURVE",
"492 100 OFFCURVE",
"492 262 CURVE SMOOTH",
"492 405 OFFCURVE",
"409 497 OFFCURVE",
"278 497 CURVE SMOOTH",
"141 497 OFFCURVE",
"50 389 OFFCURVE",
"50 227 CURVE SMOOTH",
"50 85 OFFCURVE",
"134 -7 OFFCURVE",
"264 -7 CURVE SMOOTH"
);
},
{
closed = 1;
nodes = (
"164 42 OFFCURVE",
"107 106 OFFCURVE",
"107 224 CURVE SMOOTH",
"107 363 OFFCURVE",
"171 448 OFFCURVE",
"277 448 CURVE SMOOTH",
"377 448 OFFCURVE",
"436 381 OFFCURVE",
"436 265 CURVE SMOOTH",
"436 126 OFFCURVE",
"372 42 OFFCURVE",
"267 42 CURVE SMOOTH"
);
}
);
};
layerId = "9E718F8A-2CEA-4931-B05D-987794BD97DA";
paths = (
{
closed = 1;
nodes = (
"401 -7 OFFCURVE",
"493 100 OFFCURVE",
"493 262 CURVE SMOOTH",
"493 349 OFFCURVE",
"458 433 OFFCURVE",
"384 472 CURVE",
"358 448 LINE",
"457 451 OFFCURVE",
"508 505 OFFCURVE",
"515 594 CURVE SMOOTH",
"516 616 LINE",
"466 616 LINE",
"465 603 LINE SMOOTH",
"459 524 OFFCURVE",
"428 491 OFFCURVE",
"359 491 CURVE SMOOTH",
"343 491 OFFCURVE",
"318 497 OFFCURVE",
"279 497 CURVE SMOOTH",
"141 497 OFFCURVE",
"50 389 OFFCURVE",
"50 227 CURVE SMOOTH",
"50 85 OFFCURVE",
"134 -7 OFFCURVE",
"264 -7 CURVE SMOOTH"
);
},
{
closed = 1;
nodes = (
"164 42 OFFCURVE",
"107 106 OFFCURVE",
"107 224 CURVE SMOOTH",
"107 363 OFFCURVE",
"171 448 OFFCURVE",
"277 448 CURVE SMOOTH",
"377 448 OFFCURVE",
"436 381 OFFCURVE",
"436 265 CURVE SMOOTH",
"436 126 OFFCURVE",
"372 42 OFFCURVE",
"267 42 CURVE SMOOTH"
);
}
);
width = 542;
}
);
leftKerningGroup = o;
rightKerningGroup = o;
unicode = 01A1;
},
{
glyphname = oogonek;
lastChange = "2017-11-16 15:27:43 +0000";
layers = (
{
anchors = (
{
name = top;
position = "{291, 490}";
}
);
background = {
anchors = (
{
name = top;
position = "{291, 490}";
}
);
paths = (
{
closed = 1;
nodes = (
"324 -191 OFFCURVE",
"355 -180 OFFCURVE",
"373 -168 CURVE",
"360 -129 LINE",
"338 -142 OFFCURVE",
"315 -148 OFFCURVE",
"299 -148 CURVE SMOOTH",
"260 -148 OFFCURVE",
"237 -127 OFFCURVE",
"237 -86 CURVE SMOOTH",
"237 -41 OFFCURVE",
"266 -5 OFFCURVE",
"336 10 CURVE",
"326 41 LINE",
"237 26 OFFCURVE",
"186 -26 OFFCURVE",
"186 -95 CURVE SMOOTH",
"186 -152 OFFCURVE",
"227 -191 OFFCURVE",
"293 -191 CURVE SMOOTH"
);
}
);
};
layerId = "9E718F8A-2CEA-4931-B05D-987794BD97DA";
paths = (
{
closed = 1;
nodes = (
"324 -191 OFFCURVE",
"355 -180 OFFCURVE",
"373 -168 CURVE",
"360 -129 LINE",
"338 -142 OFFCURVE",
"315 -148 OFFCURVE",
"299 -148 CURVE SMOOTH",
"260 -148 OFFCURVE",
"237 -127 OFFCURVE",
"237 -86 CURVE SMOOTH",
"237 -42 OFFCURVE",
"266 -17 OFFCURVE",
"333 4 CURVE SMOOTH",
"417 30 OFFCURVE",
"493 110 OFFCURVE",
"493 262 CURVE SMOOTH",
"493 405 OFFCURVE",
"409 497 OFFCURVE",
"278 497 CURVE SMOOTH",
"141 497 OFFCURVE",
"50 389 OFFCURVE",
"50 227 CURVE SMOOTH",
"50 85 OFFCURVE",
"134 -5 OFFCURVE",
"256 -7 CURVE",
"256 13 LINE",
"214 -7 OFFCURVE",
"186 -42 OFFCURVE",
"186 -95 CURVE SMOOTH",
"186 -152 OFFCURVE",
"227 -191 OFFCURVE",
"293 -191 CURVE SMOOTH"
);
},
{
closed = 1;
nodes = (
"164 42 OFFCURVE",
"107 106 OFFCURVE",
"107 224 CURVE SMOOTH",
"107 363 OFFCURVE",
"171 448 OFFCURVE",
"277 448 CURVE SMOOTH",
"377 448 OFFCURVE",
"436 381 OFFCURVE",
"436 265 CURVE SMOOTH",
"436 126 OFFCURVE",
"372 42 OFFCURVE",
"267 42 CURVE SMOOTH"
);
}
);
width = 542;
}
);
leftKerningGroup = o;
rightKerningGroup = o;
unicode = 01EB;
},
{
glyphname = oslash;
lastChange = "2017-11-16 15:27:43 +0000";
layers = (
{
anchors = (
{
name = top;
position = "{291, 490}";
}
);
background = {
anchors = (
{
name = top;
position = "{291, 490}";
}
);
paths = (
{
closed = 1;
nodes = (
"384 -7 OFFCURVE",
"480 92 OFFCURVE",
"492 245 CURVE SMOOTH",
"504 398 OFFCURVE",
"424 497 OFFCURVE",
"291 497 CURVE SMOOTH",
"158 497 OFFCURVE",
"62 398 OFFCURVE",
"50 245 CURVE SMOOTH",
"38 92 OFFCURVE",
"118 -7 OFFCURVE",
"251 -7 CURVE SMOOTH"
);
},
{
closed = 1;
nodes = (
"470 506 LINE",
"432 529 LINE",
"73 -16 LINE",
"111 -39 LINE"
);
},
{
closed = 1;
nodes = (
"150 42 OFFCURVE",
"97 114 OFFCURVE",
"107 245 CURVE SMOOTH",
"117 373 OFFCURVE",
"184 448 OFFCURVE",
"287 448 CURVE SMOOTH",
"390 448 OFFCURVE",
"445 373 OFFCURVE",
"435 245 CURVE SMOOTH",
"425 114 OFFCURVE",
"360 42 OFFCURVE",
"254 42 CURVE SMOOTH"
);
}
);
};
layerId = "9E718F8A-2CEA-4931-B05D-987794BD97DA";
paths = (
{
closed = 1;
nodes = (
"470 506 LINE",
"432 529 LINE",
"73 -16 LINE",
"111 -39 LINE"
);
},
{
closed = 1;
nodes = (
"401 -7 OFFCURVE",
"493 100 OFFCURVE",
"493 262 CURVE SMOOTH",
"493 405 OFFCURVE",
"409 497 OFFCURVE",
"278 497 CURVE SMOOTH",
"141 497 OFFCURVE",
"50 389 OFFCURVE",
"50 227 CURVE SMOOTH",
"50 85 OFFCURVE",
"134 -7 OFFCURVE",
"264 -7 CURVE SMOOTH"
);
},
{
closed = 1;
nodes = (
"164 42 OFFCURVE",
"107 106 OFFCURVE",
"107 224 CURVE SMOOTH",
"107 363 OFFCURVE",
"171 448 OFFCURVE",
"277 448 CURVE SMOOTH",
"377 448 OFFCURVE",
"436 381 OFFCURVE",
"436 265 CURVE SMOOTH",
"436 126 OFFCURVE",
"372 42 OFFCURVE",
"267 42 CURVE SMOOTH"
);
}
);
width = 542;
}
);
leftKerningGroup = o;
rightKerningGroup = o;
unicode = 00F8;
},
{
glyphname = oe;
lastChange = "2017-11-16 15:27:43 +0000";
layers = (
{
anchors = (
{
name = bottom;
position = "{445, 0}";
},
{
name = top;
position = "{484, 490}";
}
);
background = {
paths = (
{
closed = 1;
nodes = (
"401 -7 OFFCURVE",
"484 106 OFFCURVE",
"484 245 CURVE SMOOTH",
"484 413 OFFCURVE",
"409 497 OFFCURVE",
"279 497 CURVE SMOOTH",
"141 497 OFFCURVE",
"50 389 OFFCURVE",
"50 227 CURVE SMOOTH",
"50 85 OFFCURVE",
"134 -7 OFFCURVE",
"264 -7 CURVE SMOOTH"
);
},
{
closed = 1;
nodes = (
"164 42 OFFCURVE",
"107 106 OFFCURVE",
"107 224 CURVE SMOOTH",
"107 363 OFFCURVE",
"171 448 OFFCURVE",
"277 448 CURVE SMOOTH",
"377 448 OFFCURVE",
"436 381 OFFCURVE",
"436 265 CURVE SMOOTH",
"436 126 OFFCURVE",
"372 42 OFFCURVE",
"267 42 CURVE SMOOTH"
);
},
{
closed = 1;
nodes = (
"720 -7 OFFCURVE",
"791 18 OFFCURVE",
"836 60 CURVE",
"817 103 LINE",
"768 62 OFFCURVE",
"710 42 OFFCURVE",
"654 42 CURVE SMOOTH",
"551 42 OFFCURVE",
"491 106 OFFCURVE",
"491 221 CURVE SMOOTH",
"491 383 OFFCURVE",
"572 451 OFFCURVE",
"676 451 CURVE SMOOTH",
"764 451 OFFCURVE",
"825 387 OFFCURVE",
"809 256 CURVE",
"831 279 LINE",
"475 279 LINE",
"473 236 LINE",
"859 236 LINE",
"877 413 OFFCURVE",
"798 497 OFFCURVE",
"679 497 CURVE SMOOTH",
"530 497 OFFCURVE",
"443 392 OFFCURVE",
"443 221 CURVE SMOOTH",
"443 77 OFFCURVE",
"518 -7 OFFCURVE",
"654 -7 CURVE SMOOTH"
);
}
);
};
layerId = "9E718F8A-2CEA-4931-B05D-987794BD97DA";
paths = (
{
closed = 1;
nodes = (
"401 -7 OFFCURVE",
"484 106 OFFCURVE",
"484 245 CURVE SMOOTH",
"484 413 OFFCURVE",
"409 497 OFFCURVE",
"279 497 CURVE SMOOTH",
"141 497 OFFCURVE",
"50 389 OFFCURVE",
"50 227 CURVE SMOOTH",
"50 85 OFFCURVE",
"134 -7 OFFCURVE",
"264 -7 CURVE SMOOTH"
);
},
{
closed = 1;
nodes = (
"164 42 OFFCURVE",
"107 106 OFFCURVE",
"107 224 CURVE SMOOTH",
"107 363 OFFCURVE",
"171 448 OFFCURVE",
"277 448 CURVE SMOOTH",
"377 448 OFFCURVE",
"436 381 OFFCURVE",
"436 265 CURVE SMOOTH",
"436 126 OFFCURVE",
"372 42 OFFCURVE",
"267 42 CURVE SMOOTH"
);
},
{
closed = 1;
nodes = (
"721 -7 OFFCURVE",
"798 18 OFFCURVE",
"838 58 CURVE",
"819 101 LINE",
"770 60 OFFCURVE",
"711 42 OFFCURVE",
"661 42 CURVE SMOOTH",
"548 42 OFFCURVE",
"491 112 OFFCURVE",
"491 224 CURVE SMOOTH",
"491 365 OFFCURVE",
"555 451 OFFCURVE",
"674 451 CURVE SMOOTH",
"765 451 OFFCURVE",
"824 387 OFFCURVE",
"810 256 CURVE",
"832 279 LINE",
"475 279 LINE",
"473 236 LINE",
"860 236 LINE",
"878 413 OFFCURVE",
"798 497 OFFCURVE",
"671 497 CURVE SMOOTH",
"525 497 OFFCURVE",
"443 388 OFFCURVE",
"443 227 CURVE SMOOTH",
"443 85 OFFCURVE",
"518 -7 OFFCURVE",
"661 -7 CURVE SMOOTH"
);
}
);
width = 906;
}
);
leftKerningGroup = o;
rightKerningGroup = e;
unicode = 0153;
},
{
glyphname = p;
lastChange = "2017-11-16 15:27:43 +0000";
layers = (
{
anchors = (
{
name = bottom;
position = "{265, 0}";
},
{
name = top;
position = "{304, 490}";
}
);
background = {
anchors = (
{
name = bottom;
position = "{265, 0}";
},
{
name = top;
position = "{304, 490}";
}
);
paths = (
{
closed = 1;
nodes = (
"47 -215 LINE",
"101 -215 LINE",
"128 135 LINE",
"114 127 LINE",
"133 43 OFFCURVE",
"202 -7 OFFCURVE",
"294 -7 CURVE SMOOTH",
"429 -7 OFFCURVE",
"521 100 OFFCURVE",
"521 262 CURVE SMOOTH",
"521 405 OFFCURVE",
"437 497 OFFCURVE",
"314 497 CURVE SMOOTH",
"233 497 OFFCURVE",
"158 450 OFFCURVE",
"135 373 CURVE",
"145 355 LINE",
"156 490 LINE",
"102 490 LINE"
);
},
{
closed = 1;
nodes = (
"192 42 OFFCURVE",
"135 106 OFFCURVE",
"135 224 CURVE SMOOTH",
"135 363 OFFCURVE",
"199 448 OFFCURVE",
"305 448 CURVE SMOOTH",
"405 448 OFFCURVE",
"464 381 OFFCURVE",
"464 265 CURVE SMOOTH",
"464 126 OFFCURVE",
"400 42 OFFCURVE",
"295 42 CURVE SMOOTH"
);
}
);
};
layerId = "9E718F8A-2CEA-4931-B05D-987794BD97DA";
paths = (
{
closed = 1;
nodes = (
"103 -180 LINE",
"128 135 LINE",
"114 127 LINE",
"133 43 OFFCURVE",
"202 -7 OFFCURVE",
"294 -7 CURVE SMOOTH",
"429 -7 OFFCURVE",
"521 100 OFFCURVE",
"521 262 CURVE SMOOTH",
"521 405 OFFCURVE",
"437 497 OFFCURVE",
"314 497 CURVE SMOOTH",
"233 497 OFFCURVE",
"158 450 OFFCURVE",
"135 373 CURVE",
"145 355 LINE",
"155 485 LINE",
"101 485 LINE",
"49 -180 LINE"
);
},
{
closed = 1;
nodes = (
"192 42 OFFCURVE",
"135 106 OFFCURVE",
"135 224 CURVE SMOOTH",
"135 363 OFFCURVE",
"199 448 OFFCURVE",
"305 448 CURVE SMOOTH",
"405 448 OFFCURVE",
"464 381 OFFCURVE",
"464 265 CURVE SMOOTH",
"464 126 OFFCURVE",
"400 42 OFFCURVE",
"295 42 CURVE SMOOTH"
);
}
);
width = 570;
}
);
leftKerningGroup = n;
rightKerningGroup = o;
unicode = 0070;
userData = {
anchors = (
);
b = {
};
com.typemytype.robofont.layerData = {
b = {
anchors = (
);
components = (
);
contours = (
);
lib = {
};
name = p;
unicodes = (
);
width = 1181;
};
};
components = (
);
contours = (
);
lib = {
};
name = p;
unicodes = (
);
width = 1207;
};
},
{
glyphname = thorn;
lastChange = "2017-11-16 15:27:43 +0000";
layers = (
{
anchors = (
{
name = bottom;
position = "{265, 0}";
},
{
name = top;
position = "{304, 490}";
}
);
background = {
anchors = (
{
name = bottom;
position = "{265, 0}";
},
{
name = top;
position = "{304, 490}";
}
);
paths = (
{
closed = 1;
nodes = (
"103 -180 LINE",
"128 135 LINE",
"116 127 LINE",
"131 41 OFFCURVE",
"192 -7 OFFCURVE",
"284 -7 CURVE SMOOTH",
"408 -7 OFFCURVE",
"508 84 OFFCURVE",
"520 243 CURVE SMOOTH",
"533 402 OFFCURVE",
"448 497 OFFCURVE",
"324 497 CURVE SMOOTH",
"232 497 OFFCURVE",
"163 449 OFFCURVE",
"135 364 CURVE",
"145 355 LINE",
"172 705 LINE",
"118 705 LINE",
"49 -180 LINE"
);
},
{
closed = 1;
nodes = (
"178 42 OFFCURVE",
"126 116 OFFCURVE",
"136 245 CURVE SMOOTH",
"147 375 OFFCURVE",
"210 448 OFFCURVE",
"315 448 CURVE SMOOTH",
"421 448 OFFCURVE",
"473 368 OFFCURVE",
"463 243 CURVE SMOOTH",
"453 118 OFFCURVE",
"389 42 OFFCURVE",
"282 42 CURVE SMOOTH"
);
}
);
};
layerId = "9E718F8A-2CEA-4931-B05D-987794BD97DA";
paths = (
{
closed = 1;
nodes = (
"103 -180 LINE",
"128 135 LINE",
"114 127 LINE",
"133 43 OFFCURVE",
"202 -7 OFFCURVE",
"294 -7 CURVE SMOOTH",
"429 -7 OFFCURVE",
"521 100 OFFCURVE",
"521 262 CURVE SMOOTH",
"521 405 OFFCURVE",
"437 497 OFFCURVE",
"314 497 CURVE SMOOTH",
"233 497 OFFCURVE",
"158 450 OFFCURVE",
"135 373 CURVE",
"145 355 LINE",
"173 705 LINE",
"119 705 LINE",
"49 -180 LINE"
);
},
{
closed = 1;
nodes = (
"192 42 OFFCURVE",
"135 106 OFFCURVE",
"135 224 CURVE SMOOTH",
"135 363 OFFCURVE",
"199 448 OFFCURVE",
"305 448 CURVE SMOOTH",
"405 448 OFFCURVE",
"464 381 OFFCURVE",
"464 265 CURVE SMOOTH",
"464 126 OFFCURVE",
"400 42 OFFCURVE",
"295 42 CURVE SMOOTH"
);
}
);
width = 570;
}
);
leftKerningGroup = h;
rightKerningGroup = o;
unicode = 00FE;
},
{
glyphname = q;
lastChange = "2017-11-16 15:27:43 +0000";
layers = (
{
anchors = (
{
name = bottom;
position = "{264, 0}";
},
{
name = top;
position = "{303, 490}";
}
);
background = {
anchors = (
{
name = bottom;
position = "{264, 0}";
},
{
name = top;
position = "{303, 490}";
}
);
paths = (
{
closed = 1;
nodes = (
"453 490 LINE",
"442 355 LINE",
"456 363 LINE",
"437 447 OFFCURVE",
"368 497 OFFCURVE",
"276 497 CURVE SMOOTH",
"141 497 OFFCURVE",
"49 390 OFFCURVE",
"49 228 CURVE SMOOTH",
"49 85 OFFCURVE",
"133 -7 OFFCURVE",
"256 -7 CURVE SMOOTH",
"337 -7 OFFCURVE",
"412 40 OFFCURVE",
"435 117 CURVE",
"425 135 LINE",
"398 -215 LINE",
"452 -215 LINE",
"507 490 LINE"
);
},
{
closed = 1;
nodes = (
"378 448 OFFCURVE",
"435 384 OFFCURVE",
"435 266 CURVE SMOOTH",
"435 127 OFFCURVE",
"371 42 OFFCURVE",
"265 42 CURVE SMOOTH",
"165 42 OFFCURVE",
"106 109 OFFCURVE",
"106 225 CURVE SMOOTH",
"106 364 OFFCURVE",
"170 448 OFFCURVE",
"275 448 CURVE SMOOTH"
);
}
);
};
layerId = "9E718F8A-2CEA-4931-B05D-987794BD97DA";
paths = (
{
closed = 1;
nodes = (
"454 -180 LINE",
"507 485 LINE",
"453 485 LINE",
"443 355 LINE",
"456 363 LINE",
"437 447 OFFCURVE",
"368 497 OFFCURVE",
"276 497 CURVE SMOOTH",
"141 497 OFFCURVE",
"49 390 OFFCURVE",
"49 228 CURVE SMOOTH",
"49 85 OFFCURVE",
"133 -7 OFFCURVE",
"256 -7 CURVE SMOOTH",
"337 -7 OFFCURVE",
"412 40 OFFCURVE",
"435 117 CURVE",
"425 135 LINE",
"400 -180 LINE"
);
},
{
closed = 1;
nodes = (
"165 42 OFFCURVE",
"106 109 OFFCURVE",
"106 225 CURVE SMOOTH",
"106 364 OFFCURVE",
"170 448 OFFCURVE",
"275 448 CURVE SMOOTH",
"378 448 OFFCURVE",
"435 384 OFFCURVE",
"435 266 CURVE SMOOTH",
"435 127 OFFCURVE",
"371 42 OFFCURVE",
"265 42 CURVE SMOOTH"
);
}
);
width = 570;
}
);
leftKerningGroup = o;
rightKerningGroup = q;
unicode = 0071;
userData = {
anchors = (
);
b = {
};
com.typemytype.robofont.layerData = {
b = {
anchors = (
);
components = (
);
contours = (
);
lib = {
};
name = p;
unicodes = (
);
width = 1181;
};
};
components = (
);
contours = (
);
lib = {
};
name = p;
unicodes = (
);
width = 1207;
};
},
{
glyphname = r;
lastChange = "2017-11-16 15:27:43 +0000";
layers = (
{
anchors = (
{
name = bottom;
position = "{90, 0}";
},
{
name = top;
position = "{227, 490}";
}
);
background = {
anchors = (
{
name = bottom;
position = "{90, 0}";
},
{
name = top;
position = "{227, 490}";
}
);
paths = (
{
closed = 1;
nodes = (
"117 0 LINE",
"140 286 LINE SMOOTH",
"145 361 OFFCURVE",
"189 434 OFFCURVE",
"304 445 CURVE SMOOTH",
"344 449 LINE",
"343 497 LINE",
"319 495 LINE SMOOTH",
"230 488 OFFCURVE",
"169 454 OFFCURVE",
"134 373 CURVE",
"144 353 LINE",
"154 485 LINE",
"101 485 LINE",
"63 0 LINE"
);
}
);
};
layerId = "9E718F8A-2CEA-4931-B05D-987794BD97DA";
paths = (
{
closed = 1;
nodes = (
"117 0 LINE",
"140 286 LINE SMOOTH",
"148 381 OFFCURVE",
"200 435 OFFCURVE",
"304 445 CURVE SMOOTH",
"344 449 LINE",
"343 497 LINE",
"319 495 LINE SMOOTH",
"222 487 OFFCURVE",
"166 453 OFFCURVE",
"134 373 CURVE",
"144 353 LINE",
"154 485 LINE",
"101 485 LINE",
"63 0 LINE"
);
}
);
width = 334;
}
);
leftKerningGroup = n;
rightKerningGroup = r;
unicode = 0072;
userData = {
anchors = (
);
b = {
};
com.typemytype.robofont.layerData = {
b = {
anchors = (
);
components = (
);
contours = (
);
lib = {
};
name = r;
unicodes = (
);
width = 715;
};
};
components = (
);
contours = (
);
lib = {
};
name = r;
unicodes = (
);
width = 763;
};
},
{
glyphname = s;
lastChange = "2017-11-16 15:27:43 +0000";
layers = (
{
anchors = (
{
name = bottom;
position = "{218, 0}";
},
{
name = top;
position = "{267, 490}";
}
);
background = {
anchors = (
{
name = bottom;
position = "{218, 0}";
},
{
name = top;
position = "{306, 490}";
}
);
paths = (
{
closed = 1;
nodes = (
"332 -11 OFFCURVE",
"406 38 OFFCURVE",
"413 119 CURVE SMOOTH",
"419 185 OFFCURVE",
"379 230 OFFCURVE",
"293 255 CURVE SMOOTH",
"211 279 LINE SMOOTH",
"157 295 OFFCURVE",
"133 323 OFFCURVE",
"136 368 CURVE SMOOTH",
"140 421 OFFCURVE",
"187 452 OFFCURVE",
"264 448 CURVE SMOOTH",
"319 445 OFFCURVE",
"363 424 OFFCURVE",
"404 381 CURVE",
"429 423 LINE",
"394 467 OFFCURVE",
"334 493 OFFCURVE",
"268 497 CURVE SMOOTH",
"159 504 OFFCURVE",
"86 449 OFFCURVE",
"79 366 CURVE SMOOTH",
"74 304 OFFCURVE",
"117 254 OFFCURVE",
"194 231 CURVE SMOOTH",
"274 207 LINE SMOOTH",
"335 189 OFFCURVE",
"360 163 OFFCURVE",
"357 119 CURVE SMOOTH",
"353 66 OFFCURVE",
"306 38 OFFCURVE",
"225 42 CURVE SMOOTH",
"157 45 OFFCURVE",
"113 64 OFFCURVE",
"64 110 CURVE",
"39 68 LINE",
"82 23 OFFCURVE",
"143 -3 OFFCURVE",
"218 -6 CURVE SMOOTH"
);
},
{
closed = 1;
nodes = (
"1231 -7 OFFCURVE",
"1307 47 OFFCURVE",
"1313 128 CURVE SMOOTH",
"1318 194 OFFCURVE",
"1279 236 OFFCURVE",
"1192 257 CURVE SMOOTH",
"1111 277 LINE SMOOTH",
"1056 291 OFFCURVE",
"1032 317 OFFCURVE",
"1035 362 CURVE SMOOTH",
"1039 415 OFFCURVE",
"1086 448 OFFCURVE",
"1163 448 CURVE SMOOTH",
"1218 448 OFFCURVE",
"1263 429 OFFCURVE",
"1304 389 CURVE",
"1329 432 LINE",
"1294 474 OFFCURVE",
"1234 497 OFFCURVE",
"1167 497 CURVE SMOOTH",
"1058 497 OFFCURVE",
"985 440 OFFCURVE",
"978 357 CURVE SMOOTH",
"973 295 OFFCURVE",
"1016 246 OFFCURVE",
"1093 228 CURVE SMOOTH",
"1173 209 LINE SMOOTH",
"1235 194 OFFCURVE",
"1260 169 OFFCURVE",
"1257 125 CURVE SMOOTH",
"1253 72 OFFCURVE",
"1206 42 OFFCURVE",
"1124 42 CURVE SMOOTH",
"1056 42 OFFCURVE",
"1012 58 OFFCURVE",
"963 101 CURVE",
"938 58 LINE",
"981 15 OFFCURVE",
"1042 -7 OFFCURVE",
"1117 -7 CURVE SMOOTH"
);
},
{
closed = 1;
nodes = (
"837 -7 OFFCURVE",
"913 49 OFFCURVE",
"913 133 CURVE SMOOTH",
"913 314 OFFCURVE",
"635 221 OFFCURVE",
"635 354 CURVE SMOOTH",
"635 414 OFFCURVE",
"682 448 OFFCURVE",
"763 448 CURVE SMOOTH",
"814 448 OFFCURVE",
"860 429 OFFCURVE",
"904 389 CURVE",
"929 432 LINE",
"891 473 OFFCURVE",
"829 497 OFFCURVE",
"762 497 CURVE SMOOTH",
"651 497 OFFCURVE",
"578 439 OFFCURVE",
"578 352 CURVE SMOOTH",
"578 170 OFFCURVE",
"857 260 OFFCURVE",
"857 130 CURVE SMOOTH",
"857 73 OFFCURVE",
"810 42 OFFCURVE",
"724 42 CURVE SMOOTH",
"662 42 OFFCURVE",
"616 59 OFFCURVE",
"563 101 CURVE",
"538 58 LINE",
"583 17 OFFCURVE",
"651 -7 OFFCURVE",
"723 -7 CURVE SMOOTH"
);
}
);
};
layerId = "9E718F8A-2CEA-4931-B05D-987794BD97DA";
paths = (
{
closed = 1;
nodes = (
"337 -7 OFFCURVE",
"413 45 OFFCURVE",
"413 129 CURVE SMOOTH",
"413 300 OFFCURVE",
"135 235 OFFCURVE",
"135 358 CURVE SMOOTH",
"135 418 OFFCURVE",
"182 448 OFFCURVE",
"263 448 CURVE SMOOTH",
"314 448 OFFCURVE",
"360 429 OFFCURVE",
"404 389 CURVE",
"429 432 LINE",
"391 473 OFFCURVE",
"329 497 OFFCURVE",
"262 497 CURVE SMOOTH",
"151 497 OFFCURVE",
"78 443 OFFCURVE",
"78 356 CURVE SMOOTH",
"78 187 OFFCURVE",
"357 249 OFFCURVE",
"357 126 CURVE SMOOTH",
"357 69 OFFCURVE",
"310 42 OFFCURVE",
"224 42 CURVE SMOOTH",
"162 42 OFFCURVE",
"116 59 OFFCURVE",
"63 101 CURVE",
"38 58 LINE",
"83 17 OFFCURVE",
"151 -7 OFFCURVE",
"223 -7 CURVE SMOOTH"
);
}
);
width = 477;
}
);
leftKerningGroup = s;
rightKerningGroup = s;
unicode = 0073;
userData = {
anchors = (
);
b = {
};
com.typemytype.robofont.layerData = {
b = {
anchors = (
);
components = (
);
contours = (
);
lib = {
};
name = s;
unicodes = (
);
width = 1007;
};
};
components = (
);
contours = (
);
lib = {
};
name = s;
unicodes = (
);
width = 1006.76001;
};
},
{
glyphname = germandbls;
lastChange = "2017-11-16 15:27:43 +0000";
layers = (
{
background = {
paths = (
{
closed = 1;
nodes = (
"117 0 LINE",
"156 493 LINE SMOOTH",
"165 601 OFFCURVE",
"224 661 OFFCURVE",
"323 661 CURVE SMOOTH",
"385 661 OFFCURVE",
"420 633 OFFCURVE",
"416 585 CURVE SMOOTH",
"408 491 OFFCURVE",
"261 466 OFFCURVE",
"252 361 CURVE SMOOTH",
"238 200 OFFCURVE",
"502 252 OFFCURVE",
"493 128 CURVE SMOOTH",
"489 74 OFFCURVE",
"441 42 OFFCURVE",
"367 42 CURVE SMOOTH",
"314 42 OFFCURVE",
"271 59 OFFCURVE",
"218 101 CURVE",
"193 58 LINE",
"232 17 OFFCURVE",
"295 -7 OFFCURVE",
"363 -7 CURVE SMOOTH",
"466 -7 OFFCURVE",
"543 48 OFFCURVE",
"549 128 CURVE SMOOTH",
"561 294 OFFCURVE",
"299 247 OFFCURVE",
"309 366 CURVE SMOOTH",
"315 441 OFFCURVE",
"460 470 OFFCURVE",
"469 585 CURVE SMOOTH",
"475 662 OFFCURVE",
"421 709 OFFCURVE",
"326 709 CURVE SMOOTH",
"196 709 OFFCURVE",
"112 627 OFFCURVE",
"101 489 CURVE SMOOTH",
"63 0 LINE"
);
}
);
};
layerId = "9E718F8A-2CEA-4931-B05D-987794BD97DA";
paths = (
{
closed = 1;
nodes = (
"117 0 LINE",
"156 491 LINE SMOOTH",
"165 609 OFFCURVE",
"223 661 OFFCURVE",
"320 661 CURVE SMOOTH",
"379 661 OFFCURVE",
"416 634 OFFCURVE",
"416 592 CURVE SMOOTH",
"416 491 OFFCURVE",
"252 469 OFFCURVE",
"252 351 CURVE SMOOTH",
"252 205 OFFCURVE",
"493 245 OFFCURVE",
"493 135 CURVE SMOOTH",
"493 77 OFFCURVE",
"445 42 OFFCURVE",
"373 42 CURVE SMOOTH",
"317 42 OFFCURVE",
"271 59 OFFCURVE",
"218 101 CURVE",
"193 58 LINE",
"238 17 OFFCURVE",
"306 -7 OFFCURVE",
"370 -7 CURVE SMOOTH",
"480 -7 OFFCURVE",
"549 53 OFFCURVE",
"549 137 CURVE SMOOTH",
"549 289 OFFCURVE",
"309 251 OFFCURVE",
"309 360 CURVE SMOOTH",
"309 440 OFFCURVE",
"469 472 OFFCURVE",
"469 594 CURVE SMOOTH",
"469 667 OFFCURVE",
"410 709 OFFCURVE",
"320 709 CURVE SMOOTH",
"204 709 OFFCURVE",
"114 643 OFFCURVE",
"102 496 CURVE SMOOTH",
"63 0 LINE"
);
}
);
width = 592;
}
);
leftKerningGroup = h;
rightKerningGroup = germandbls;
unicode = 00DF;
},
{
glyphname = t;
lastChange = "2017-11-16 15:27:43 +0000";
layers = (
{
anchors = (
{
name = bottom;
position = "{190, 0}";
},
{
name = center;
position = "{160, 245}";
},
{
name = top;
position = "{162, 635}";
},
{
name = topright;
position = "{254, 705}";
}
);
background = {
anchors = (
{
name = bottom;
position = "{190, 0}";
},
{
name = center;
position = "{160, 245}";
},
{
name = top;
position = "{162, 635}";
},
{
name = topright;
position = "{254, 705}";
}
);
paths = (
{
closed = 1;
nodes = (
"318 440 LINE",
"321 485 LINE",
"27 485 LINE",
"24 440 LINE"
);
},
{
closed = 1;
nodes = (
"97 158 LINE SMOOTH",
"90 60 OFFCURVE",
"139 -6 OFFCURVE",
"248 -6 CURVE SMOOTH",
"263 -6 OFFCURVE",
"279 -5 OFFCURVE",
"294 -3 CURVE",
"300 44 LINE",
"286 42 OFFCURVE",
"271 41 OFFCURVE",
"257 41 CURVE SMOOTH",
"181 41 OFFCURVE",
"146 84 OFFCURVE",
"152 166 CURVE SMOOTH",
"189 635 LINE",
"135 635 LINE"
);
}
);
};
layerId = "9E718F8A-2CEA-4931-B05D-987794BD97DA";
paths = (
{
closed = 1;
nodes = (
"318 440 LINE",
"321 485 LINE",
"27 485 LINE",
"24 440 LINE"
);
},
{
closed = 1;
nodes = (
"98 164 LINE SMOOTH",
"90 58 OFFCURVE",
"145 -6 OFFCURVE",
"251 -6 CURVE SMOOTH",
"263 -6 OFFCURVE",
"279 -5 OFFCURVE",
"294 -2 CURVE",
"300 45 LINE",
"286 42 OFFCURVE",
"271 41 OFFCURVE",
"257 41 CURVE SMOOTH",
"182 41 OFFCURVE",
"145 84 OFFCURVE",
"152 169 CURVE SMOOTH",
"189 635 LINE",
"135 635 LINE"
);
}
);
width = 322;
}
);
leftKerningGroup = t;
rightKerningGroup = t;
unicode = 0074;
userData = {
anchors = (
);
b = {
};
com.typemytype.robofont.layerData = {
b = {
anchors = (
);
components = (
);
contours = (
{
points = (
{
segmentType = curve;
smooth = 1;
x = 317;
y = 0;
},
{
smooth = 0;
x = 358;
y = 0;
},
{
smooth = 0;
x = 398;
y = 27;
},
{
segmentType = curve;
smooth = 1;
x = 398;
y = 79;
},
{
segmentType = line;
smooth = 0;
x = 398;
y = 876;
},
{
segmentType = line;
smooth = 1;
x = 578;
y = 876;
},
{
smooth = 0;
x = 621;
y = 876;
},
{
smooth = 0;
x = 634;
y = 897;
},
{
segmentType = curve;
smooth = 1;
x = 634;
y = 928;
},
{
smooth = 0;
x = 634;
y = 957;
},
{
smooth = 0;
x = 621;
y = 981;
},
{
segmentType = curve;
smooth = 1;
x = 578;
y = 981;
},
{
segmentType = line;
smooth = 0;
x = 398;
y = 981;
},
{
segmentType = line;
smooth = 1;
x = 398;
y = 1053;
},
{
smooth = 0;
x = 398;
y = 1285;
},
{
smooth = 0;
x = 432;
y = 1318;
},
{
segmentType = curve;
smooth = 1;
x = 544;
y = 1318;
},
{
segmentType = line;
smooth = 1;
x = 629;
y = 1318;
},
{
smooth = 0;
x = 706;
y = 1318;
},
{
smooth = 0;
x = 703;
y = 1438;
},
{
segmentType = curve;
smooth = 1;
x = 630;
y = 1438;
},
{
segmentType = line;
smooth = 1;
x = 510;
y = 1438;
},
{
smooth = 0;
x = 357;
y = 1438;
},
{
smooth = 0;
x = 238;
y = 1371;
},
{
segmentType = curve;
smooth = 1;
x = 238;
y = 1112;
},
{
segmentType = line;
smooth = 0;
x = 238;
y = 981;
},
{
segmentType = line;
smooth = 1;
x = 98;
y = 981;
},
{
smooth = 0;
x = 55;
y = 981;
},
{
smooth = 0;
x = 39;
y = 957;
},
{
segmentType = curve;
smooth = 1;
x = 39;
y = 928;
},
{
smooth = 0;
x = 39;
y = 899;
},
{
smooth = 0;
x = 55;
y = 876;
},
{
segmentType = curve;
smooth = 1;
x = 98;
y = 876;
},
{
segmentType = line;
smooth = 0;
x = 238;
y = 876;
},
{
segmentType = line;
smooth = 1;
x = 238;
y = 79;
},
{
smooth = 0;
x = 238;
y = 26;
},
{
smooth = 0;
x = 278;
y = 0;
}
);
}
);
lib = {
};
name = t;
unicodes = (
);
width = 706;
};
};
components = (
);
contours = (
);
lib = {
};
name = t;
unicodes = (
);
width = 768;
};
},
{
glyphname = tbar;
lastChange = "2017-11-16 15:27:43 +0000";
layers = (
{
background = {
paths = (
{
closed = 1;
nodes = (
"288 258 LINE",
"292 303 LINE",
"38 303 LINE",
"34 258 LINE"
);
},
{
closed = 1;
nodes = (
"323 440 LINE",
"326 485 LINE",
"32 485 LINE",
"29 440 LINE"
);
},
{
closed = 1;
nodes = (
"102 158 LINE SMOOTH",
"95 60 OFFCURVE",
"144 -6 OFFCURVE",
"253 -6 CURVE SMOOTH",
"268 -6 OFFCURVE",
"284 -5 OFFCURVE",
"299 -3 CURVE",
"305 44 LINE",
"291 42 OFFCURVE",
"276 41 OFFCURVE",
"262 41 CURVE SMOOTH",
"186 41 OFFCURVE",
"151 84 OFFCURVE",
"157 166 CURVE SMOOTH",
"194 635 LINE",
"140 635 LINE"
);
}
);
};
layerId = "9E718F8A-2CEA-4931-B05D-987794BD97DA";
paths = (
{
closed = 1;
nodes = (
"288 258 LINE",
"292 303 LINE",
"38 303 LINE",
"34 258 LINE"
);
},
{
closed = 1;
nodes = (
"323 440 LINE",
"326 485 LINE",
"32 485 LINE",
"29 440 LINE"
);
},
{
closed = 1;
nodes = (
"103 164 LINE SMOOTH",
"95 58 OFFCURVE",
"150 -6 OFFCURVE",
"256 -6 CURVE SMOOTH",
"268 -6 OFFCURVE",
"284 -5 OFFCURVE",
"299 -2 CURVE",
"305 45 LINE",
"291 42 OFFCURVE",
"276 41 OFFCURVE",
"262 41 CURVE SMOOTH",
"187 41 OFFCURVE",
"150 84 OFFCURVE",
"157 169 CURVE SMOOTH",
"194 635 LINE",
"140 635 LINE"
);
}
);
width = 332;
}
);
leftKerningGroup = t;
rightKerningGroup = t;
unicode = 0167;
userData = {
com.typemytype.robofont.layerData = {
b = {
anchors = (
);
components = (
);
contours = (
);
lib = {
};
name = tbar;
unicodes = (
);
width = 706;
};
};
};
},
{
glyphname = u;
lastChange = "2017-11-16 15:27:43 +0000";
layers = (
{
anchors = (
{
name = bottom;
position = "{256, 0}";
},
{
name = ogonek;
position = "{447, 10}";
},
{
name = top;
position = "{295, 490}";
},
{
name = topright;
position = "{461, 490}";
}
);
background = {
paths = (
{
closed = 1;
nodes = (
"320 -7 OFFCURVE",
"389 38 OFFCURVE",
"416 117 CURVE",
"404 105 LINE",
"396 0 LINE",
"449 0 LINE",
"487 485 LINE",
"433 485 LINE",
"411 209 LINE SMOOTH",
"403 105 OFFCURVE",
"341 42 OFFCURVE",
"244 42 CURVE SMOOTH",
"161 42 OFFCURVE",
"121 88 OFFCURVE",
"129 186 CURVE SMOOTH",
"153 485 LINE",
"99 485 LINE",
"75 182 LINE SMOOTH",
"65 57 OFFCURVE",
"125 -7 OFFCURVE",
"239 -7 CURVE SMOOTH"
);
}
);
};
layerId = "9E718F8A-2CEA-4931-B05D-987794BD97DA";
paths = (
{
closed = 1;
nodes = (
"320 -7 OFFCURVE",
"389 38 OFFCURVE",
"416 117 CURVE",
"404 105 LINE",
"396 0 LINE",
"449 0 LINE",
"487 485 LINE",
"433 485 LINE",
"411 209 LINE SMOOTH",
"403 105 OFFCURVE",
"341 42 OFFCURVE",
"244 42 CURVE SMOOTH",
"161 42 OFFCURVE",
"121 88 OFFCURVE",
"129 186 CURVE SMOOTH",
"153 485 LINE",
"99 485 LINE",
"75 182 LINE SMOOTH",
"65 57 OFFCURVE",
"125 -7 OFFCURVE",
"239 -7 CURVE SMOOTH"
);
}
);
width = 550;
}
);
leftKerningGroup = u;
rightKerningGroup = u;
unicode = 0075;
userData = {
anchors = (
);
b = {
};
com.typemytype.robofont.layerData = {
b = {
anchors = (
);
components = (
);
contours = (
{
points = (
{
segmentType = curve;
smooth = 1;
x = 915;
y = 991;
},
{
smooth = 0;
x = 875;
y = 991;
},
{
smooth = 0;
x = 834;
y = 965;
},
{
segmentType = curve;
smooth = 1;
x = 834;
y = 916;
},
{
segmentType = line;
smooth = 0;
x = 834;
y = 395;
},
{
smooth = 0;
x = 821;
y = 198;
},
{
smooth = 0;
x = 698;
y = 90;
},
{
segmentType = curve;
smooth = 1;
x = 542;
y = 90;
},
{
smooth = 0;
x = 385;
y = 90;
},
{
smooth = 0;
x = 306;
y = 187;
},
{
segmentType = curve;
smooth = 1;
x = 306;
y = 367;
},
{
segmentType = line;
smooth = 1;
x = 306;
y = 916;
},
{
smooth = 0;
x = 306;
y = 967;
},
{
smooth = 0;
x = 266;
y = 991;
},
{
segmentType = curve;
smooth = 1;
x = 226;
y = 991;
},
{
smooth = 0;
x = 186;
y = 991;
},
{
smooth = 0;
x = 146;
y = 967;
},
{
segmentType = curve;
smooth = 1;
x = 146;
y = 916;
},
{
segmentType = line;
smooth = 1;
x = 146;
y = 369;
},
{
smooth = 0;
x = 146;
y = 96;
},
{
smooth = 0;
x = 294;
y = "-20";
},
{
segmentType = curve;
smooth = 1;
x = 507;
y = "-20";
},
{
smooth = 0;
x = 656;
y = "-20";
},
{
smooth = 0;
x = 786;
y = 49;
},
{
segmentType = curve;
smooth = 0;
x = 834;
y = 179;
},
{
segmentType = line;
smooth = 1;
x = 834;
y = 73;
},
{
smooth = 0;
x = 834;
y = 24;
},
{
smooth = 0;
x = 874;
y = 0;
},
{
segmentType = curve;
smooth = 1;
x = 913;
y = 0;
},
{
smooth = 0;
x = 953;
y = 0;
},
{
smooth = 0;
x = 994;
y = 24;
},
{
segmentType = curve;
smooth = 1;
x = 994;
y = 75;
},
{
segmentType = line;
smooth = 1;
x = 994;
y = 916;
},
{
smooth = 0;
x = 994;
y = 967;
},
{
smooth = 0;
x = 955;
y = 991;
}
);
}
);
lib = {
};
name = u;
unicodes = (
);
width = 1152;
};
};
components = (
);
contours = (
);
lib = {
};
name = u;
unicodes = (
);
width = 1195;
};
},
{
glyphname = uhorn;
lastChange = "2017-11-16 15:27:43 +0000";
layers = (
{
anchors = (
{
name = bottom;
position = "{256, 0}";
},
{
name = top;
position = "{295, 490}";
}
);
background = {
anchors = (
{
name = bottom;
position = "{256, 0}";
},
{
name = top;
position = "{295, 490}";
}
);
paths = (
{
closed = 1;
nodes = (
"1165 603 LINE SMOOTH",
"1159 521 OFFCURVE",
"1124 485 OFFCURVE",
"1049 485 CURVE SMOOTH",
"1033 485 LINE",
"1011 209 LINE SMOOTH",
"1003 108 OFFCURVE",
"935 42 OFFCURVE",
"839 42 CURVE SMOOTH",
"756 42 OFFCURVE",
"721 86 OFFCURVE",
"729 184 CURVE SMOOTH",
"753 485 LINE",
"699 485 LINE",
"675 180 LINE SMOOTH",
"665 57 OFFCURVE",
"719 -7 OFFCURVE",
"832 -7 CURVE SMOOTH",
"913 -7 OFFCURVE",
"985 36 OFFCURVE",
"1016 117 CURVE",
"1004 108 LINE",
"996 0 LINE",
"1049 0 LINE",
"1086 466 LINE",
"1058 448 LINE",
"1151 449 OFFCURVE",
"1211 502 OFFCURVE",
"1215 594 CURVE SMOOTH",
"1216 616 LINE",
"1166 616 LINE"
);
},
{
closed = 1;
nodes = (
"320 -7 OFFCURVE",
"389 38 OFFCURVE",
"416 117 CURVE",
"404 105 LINE",
"396 0 LINE",
"449 0 LINE",
"487 485 LINE",
"433 485 LINE",
"411 209 LINE SMOOTH",
"403 105 OFFCURVE",
"341 42 OFFCURVE",
"244 42 CURVE SMOOTH",
"161 42 OFFCURVE",
"121 88 OFFCURVE",
"129 186 CURVE SMOOTH",
"153 485 LINE",
"99 485 LINE",
"75 182 LINE SMOOTH",
"65 57 OFFCURVE",
"125 -7 OFFCURVE",
"239 -7 CURVE SMOOTH"
);
}
);
};
layerId = "9E718F8A-2CEA-4931-B05D-987794BD97DA";
paths = (
{
closed = 1;
nodes = (
"565 603 LINE SMOOTH",
"559 521 OFFCURVE",
"524 486 OFFCURVE",
"449 485 CURVE SMOOTH",
"433 485 LINE",
"411 209 LINE SMOOTH",
"403 105 OFFCURVE",
"341 42 OFFCURVE",
"244 42 CURVE SMOOTH",
"161 42 OFFCURVE",
"121 88 OFFCURVE",
"129 186 CURVE SMOOTH",
"153 485 LINE",
"99 485 LINE",
"75 182 LINE SMOOTH",
"65 57 OFFCURVE",
"125 -7 OFFCURVE",
"239 -7 CURVE SMOOTH",
"320 -7 OFFCURVE",
"389 38 OFFCURVE",
"416 117 CURVE",
"404 105 LINE",
"396 0 LINE",
"449 0 LINE",
"486 466 LINE",
"458 448 LINE",
"551 449 OFFCURVE",
"608 502 OFFCURVE",
"615 594 CURVE SMOOTH",
"616 616 LINE",
"566 616 LINE"
);
}
);
width = 560;
}
);
leftKerningGroup = u;
rightKerningGroup = uhorn;
unicode = 01B0;
},
{
glyphname = uogonek;
lastChange = "2017-11-16 15:27:43 +0000";
layers = (
{
background = {
paths = (
{
closed = 1;
nodes = (
"1087 485 LINE",
"1033 485 LINE",
"1011 209 LINE SMOOTH",
"1003 108 OFFCURVE",
"935 42 OFFCURVE",
"839 42 CURVE SMOOTH",
"756 42 OFFCURVE",
"721 86 OFFCURVE",
"729 184 CURVE SMOOTH",
"753 485 LINE",
"699 485 LINE",
"675 180 LINE SMOOTH",
"665 57 OFFCURVE",
"719 -7 OFFCURVE",
"832 -7 CURVE SMOOTH",
"913 -7 OFFCURVE",
"985 36 OFFCURVE",
"1016 117 CURVE",
"1004 108 LINE",
"996 0 LINE",
"1012 0 LINE",
"1035 38 LINE",
"954 25 OFFCURVE",
"901 -23 OFFCURVE",
"896 -88 CURVE SMOOTH",
"891 -149 OFFCURVE",
"934 -191 OFFCURVE",
"1001 -191 CURVE SMOOTH",
"1032 -191 OFFCURVE",
"1061 -183 OFFCURVE",
"1083 -168 CURVE",
"1070 -130 LINE",
"1048 -141 OFFCURVE",
"1026 -148 OFFCURVE",
"1009 -148 CURVE SMOOTH",
"967 -148 OFFCURVE",
"943 -123 OFFCURVE",
"947 -82 CURVE SMOOTH",
"952 -34 OFFCURVE",
"991 0 OFFCURVE",
"1045 0 CURVE SMOOTH",
"1049 0 LINE"
);
},
{
closed = 1;
nodes = (
"320 -7 OFFCURVE",
"389 38 OFFCURVE",
"416 117 CURVE",
"404 105 LINE",
"396 0 LINE",
"449 0 LINE",
"487 485 LINE",
"433 485 LINE",
"411 209 LINE SMOOTH",
"403 105 OFFCURVE",
"341 42 OFFCURVE",
"244 42 CURVE SMOOTH",
"161 42 OFFCURVE",
"121 88 OFFCURVE",
"129 186 CURVE SMOOTH",
"153 485 LINE",
"99 485 LINE",
"75 182 LINE SMOOTH",
"65 57 OFFCURVE",
"125 -7 OFFCURVE",
"239 -7 CURVE SMOOTH"
);
},
{
closed = 1;
nodes = (
"434 -191 OFFCURVE",
"465 -180 OFFCURVE",
"483 -168 CURVE",
"470 -129 LINE",
"448 -142 OFFCURVE",
"425 -148 OFFCURVE",
"409 -148 CURVE SMOOTH",
"370 -148 OFFCURVE",
"347 -127 OFFCURVE",
"347 -86 CURVE SMOOTH",
"347 -41 OFFCURVE",
"376 -5 OFFCURVE",
"446 10 CURVE",
"436 41 LINE",
"347 26 OFFCURVE",
"296 -26 OFFCURVE",
"296 -95 CURVE SMOOTH",
"296 -152 OFFCURVE",
"337 -191 OFFCURVE",
"403 -191 CURVE SMOOTH"
);
}
);
};
layerId = "9E718F8A-2CEA-4931-B05D-987794BD97DA";
paths = (
{
closed = 1;
nodes = (
"487 485 LINE",
"433 485 LINE",
"411 209 LINE SMOOTH",
"403 105 OFFCURVE",
"341 42 OFFCURVE",
"244 42 CURVE SMOOTH",
"161 42 OFFCURVE",
"121 88 OFFCURVE",
"129 186 CURVE SMOOTH",
"153 485 LINE",
"99 485 LINE",
"75 182 LINE SMOOTH",
"65 57 OFFCURVE",
"125 -7 OFFCURVE",
"239 -7 CURVE SMOOTH",
"320 -7 OFFCURVE",
"389 38 OFFCURVE",
"416 117 CURVE",
"404 105 LINE",
"396 0 LINE",
"412 0 LINE",
"435 38 LINE",
"341 22 OFFCURVE",
"296 -30 OFFCURVE",
"296 -95 CURVE SMOOTH",
"296 -152 OFFCURVE",
"337 -191 OFFCURVE",
"403 -191 CURVE SMOOTH",
"434 -191 OFFCURVE",
"465 -180 OFFCURVE",
"483 -168 CURVE",
"470 -129 LINE",
"448 -142 OFFCURVE",
"425 -148 OFFCURVE",
"409 -148 CURVE SMOOTH",
"367 -148 OFFCURVE",
"347 -127 OFFCURVE",
"347 -86 CURVE SMOOTH",
"347 -41 OFFCURVE",
"379 0 OFFCURVE",
"443 0 CURVE SMOOTH",
"449 0 LINE"
);
}
);
width = 550;
}
);
leftKerningGroup = u;
rightKerningGroup = u;
unicode = 0173;
},
{
glyphname = v;
lastChange = "2017-11-16 15:27:43 +0000";
layers = (
{
anchors = (
{
name = bottom;
position = "{235, 0}";
},
{
name = top;
position = "{274, 490}";
}
);
background = {
anchors = (
{
name = bottom;
position = "{235, 0}";
},
{
name = top;
position = "{274, 490}";
}
);
paths = (
{
closed = 1;
nodes = (
"263 0 LINE",
"508 485 LINE",
"453 485 LINE",
"227 29 LINE",
"247 29 LINE",
"95 485 LINE",
"37 485 LINE",
"206 0 LINE"
);
}
);
};
layerId = "9E718F8A-2CEA-4931-B05D-987794BD97DA";
paths = (
{
closed = 1;
nodes = (
"263 0 LINE",
"508 485 LINE",
"451 485 LINE",
"226 29 LINE",
"246 29 LINE",
"93 485 LINE",
"37 485 LINE",
"206 0 LINE"
);
}
);
width = 507;
}
);
leftKerningGroup = v;
rightKerningGroup = v;
unicode = 0076;
userData = {
com.typemytype.robofont.layerData = {
b = {
anchors = (
);
components = (
);
contours = (
{
points = (
{
segmentType = line;
smooth = 0;
x = 518;
y = 0;
},
{
smooth = 0;
x = 589;
y = 0;
},
{
smooth = 0;
x = 618;
y = 36;
},
{
segmentType = curve;
smooth = 1;
x = 654;
y = 121;
},
{
segmentType = line;
smooth = 1;
x = 979;
y = 890;
},
{
smooth = 0;
x = 1000;
y = 940;
},
{
smooth = 0;
x = 968;
y = 991;
},
{
segmentType = curve;
smooth = 1;
x = 907;
y = 991;
},
{
smooth = 0;
x = 878;
y = 991;
},
{
smooth = 0;
x = 850;
y = 975;
},
{
segmentType = curve;
smooth = 1;
x = 836;
y = 940;
},
{
segmentType = line;
smooth = 0;
x = 518;
y = 166;
}
);
},
{
points = (
{
segmentType = curve;
smooth = 0;
x = 518;
y = 0;
},
{
segmentType = line;
smooth = 0;
x = 518;
y = 166;
},
{
segmentType = line;
smooth = 1;
x = 200;
y = 940;
},
{
smooth = 0;
x = 186;
y = 975;
},
{
smooth = 0;
x = 158;
y = 991;
},
{
segmentType = curve;
smooth = 1;
x = 129;
y = 991;
},
{
smooth = 0;
x = 68;
y = 991;
},
{
smooth = 0;
x = 36;
y = 940;
},
{
segmentType = curve;
smooth = 1;
x = 57;
y = 890;
},
{
segmentType = line;
smooth = 1;
x = 382;
y = 121;
},
{
smooth = 0;
x = 418;
y = 36;
},
{
smooth = 0;
x = 447;
y = 0;
}
);
}
);
lib = {
};
name = v;
unicodes = (
);
width = 1027;
};
};
};
},
{
glyphname = w;
lastChange = "2017-11-16 15:27:43 +0000";
layers = (
{
anchors = (
{
name = bottom;
position = "{398, 0}";
},
{
name = top;
position = "{437, 490}";
}
);
background = {
anchors = (
{
name = bottom;
position = "{398, 0}";
},
{
name = top;
position = "{437, 490}";
}
);
paths = (
{
closed = 1;
nodes = (
"248 0 LINE",
"453 464 LINE",
"418 464 LINE",
"547 0 LINE",
"605 0 LINE",
"818 485 LINE",
"762 485 LINE",
"565 28 LINE",
"591 28 LINE",
"466 485 LINE",
"409 485 LINE",
"209 28 LINE",
"234 28 LINE",
"112 485 LINE",
"54 485 LINE",
"190 0 LINE"
);
}
);
};
layerId = "9E718F8A-2CEA-4931-B05D-987794BD97DA";
paths = (
{
closed = 1;
nodes = (
"248 0 LINE",
"451 464 LINE",
"416 464 LINE",
"547 0 LINE",
"605 0 LINE",
"818 485 LINE",
"760 485 LINE",
"564 28 LINE",
"590 28 LINE",
"464 485 LINE",
"407 485 LINE",
"208 28 LINE",
"233 28 LINE",
"110 485 LINE",
"54 485 LINE",
"190 0 LINE"
);
}
);
width = 834;
}
);
leftKerningGroup = v;
rightKerningGroup = v;
unicode = 0077;
userData = {
anchors = (
);
b = {
};
com.typemytype.robofont.layerData = {
b = {
anchors = (
);
components = (
);
contours = (
{
points = (
{
segmentType = curve;
smooth = 1;
x = 477;
y = 0;
},
{
smooth = 0;
x = 524;
y = 0;
},
{
smooth = 0;
x = 564;
y = 30;
},
{
segmentType = curve;
smooth = 0;
x = 588;
y = 96;
},
{
segmentType = line;
smooth = 0;
x = 859;
y = 839;
},
{
segmentType = line;
smooth = 0;
x = 859;
y = 991;
},
{
smooth = 0;
x = 808;
y = 991;
},
{
smooth = 0;
x = 771;
y = 959;
},
{
segmentType = curve;
smooth = 1;
x = 750;
y = 899;
},
{
segmentType = line;
smooth = 0;
x = 488;
y = 173;
},
{
segmentType = line;
smooth = 1;
x = 223;
y = 936;
},
{
smooth = 0;
x = 210;
y = 974;
},
{
smooth = 0;
x = 183;
y = 991;
},
{
segmentType = curve;
smooth = 1;
x = 152;
y = 991;
},
{
smooth = 0;
x = 112;
y = 991;
},
{
smooth = 0;
x = 79;
y = 962;
},
{
segmentType = curve;
smooth = 1;
x = 79;
y = 916;
},
{
smooth = 0;
x = 79;
y = 909;
},
{
smooth = 0;
x = 81;
y = 899;
},
{
segmentType = curve;
smooth = 0;
x = 84;
y = 888;
},
{
segmentType = line;
smooth = 1;
x = 372;
y = 88;
},
{
smooth = 0;
x = 394;
y = 26;
},
{
smooth = 0;
x = 433;
y = 0;
}
);
},
{
points = (
{
segmentType = curve;
smooth = 1;
x = 1241;
y = 0;
},
{
smooth = 0;
x = 1285;
y = 0;
},
{
smooth = 0;
x = 1324;
y = 26;
},
{
segmentType = curve;
smooth = 1;
x = 1346;
y = 88;
},
{
segmentType = line;
smooth = 0;
x = 1634;
y = 888;
},
{
smooth = 0;
x = 1637;
y = 899;
},
{
smooth = 0;
x = 1639;
y = 909;
},
{
segmentType = curve;
smooth = 1;
x = 1639;
y = 916;
},
{
smooth = 0;
x = 1639;
y = 962;
},
{
smooth = 0;
x = 1606;
y = 991;
},
{
segmentType = curve;
smooth = 1;
x = 1566;
y = 991;
},
{
smooth = 0;
x = 1535;
y = 991;
},
{
smooth = 0;
x = 1508;
y = 974;
},
{
segmentType = curve;
smooth = 1;
x = 1495;
y = 936;
},
{
segmentType = line;
smooth = 0;
x = 1230;
y = 173;
},
{
segmentType = line;
smooth = 1;
x = 968;
y = 899;
},
{
smooth = 0;
x = 947;
y = 959;
},
{
smooth = 0;
x = 910;
y = 991;
},
{
segmentType = curve;
smooth = 0;
x = 859;
y = 991;
},
{
segmentType = line;
smooth = 0;
x = 859;
y = 839;
},
{
segmentType = line;
smooth = 0;
x = 1130;
y = 96;
},
{
smooth = 0;
x = 1154;
y = 30;
},
{
smooth = 0;
x = 1194;
y = 0;
}
);
}
);
lib = {
};
name = w;
unicodes = (
);
width = 1699;
};
};
components = (
);
contours = (
);
lib = {
};
name = w;
unicodes = (
);
width = 1742;
};
},
